<svg id="Capa_1" data-name="Capa 1" xmlns="http://www.w3.org/2000/svg" viewBox="0 0 200.94 70.93"><defs><style>.cls-1{fill:#fff;}.cls-2{fill:#a9dc0b;stroke-width:0.25px;}.cls-2,.cls-3{stroke:#a9dc0b;stroke-miterlimit:10;}.cls-3{fill:none;stroke-linecap:round;stroke-width:0.75px;opacity:0.15;}.cls-4,.cls-8{font-size:7px;fill:#191919;font-family:Silka-Regular, Silka;}.cls-5{letter-spacing:-0.03em;}.cls-6{letter-spacing:-0.04em;}.cls-7{letter-spacing:-0.06em;}.cls-8{text-decoration:underline;}</style></defs><g id="Aliado"><rect class="cls-1" x="0.38" y="0.55" width="200" height="70"/><path class="cls-2" d="M247.89,265a10.51,10.51,0,0,1,2.6-7.44,9.14,9.14,0,0,1,6.74-2.82h4.47v-3l6.21,5.17-6.64,5.44v-2.76h-5c-2.59,0-2.67,1.55-2.67,1.55Z" transform="translate(-233.2 -229.12)"/><path class="cls-2" d="M267.91,264.37a10.47,10.47,0,0,1-2.6,7.44,9.13,9.13,0,0,1-6.73,2.82h-4.47v3l-6.22-5.17,6.65-5.44v2.76h5c2.59,0,2.68-1.55,2.68-1.55Z" transform="translate(-233.2 -229.12)"/><path class="cls-3" d="M233.58,235.08H237a7.8,7.8,0,0,0,7.62-5.41" transform="translate(-233.2 -229.12)"/><path class="cls-3" d="M233.58,230.85h4.26c1.77,0,2.19-.82,2.3-1.18" transform="translate(-233.2 -229.12)"/><path class="cls-3" d="M255.52,229.67l-4.31,3.52,5.43,4.52v-2.64h3.91a8,8,0,0,0,5.88-2.46,8.21,8.21,0,0,0,1.73-2.94" transform="translate(-233.2 -229.12)"/><path class="cls-3" d="M257,229.67v1.18h4.37c1.75,0,2.19-.81,2.3-1.18a.58.58,0,0,0,0-.18" transform="translate(-233.2 -229.12)"/><path class="cls-3" d="M279.07,229.67l-4.31,3.52,5.43,4.52v-2.64h3.91a8,8,0,0,0,5.88-2.46,8.21,8.21,0,0,0,1.73-2.94" transform="translate(-233.2 -229.12)"/><path class="cls-3" d="M280.57,229.67v1.18h4.37c1.75,0,2.19-.81,2.3-1.18a.58.58,0,0,0,0-.18" transform="translate(-233.2 -229.12)"/><path class="cls-3" d="M310.83,229.49a.58.58,0,0,1,0,.18c-.11.37-.55,1.18-2.3,1.18h-4.37v-1.18" transform="translate(-233.2 -229.12)"/><path class="cls-3" d="M302.62,229.67l-4.3,3.52,5.42,4.52v-2.64h3.91a8,8,0,0,0,5.89-2.46,8.19,8.19,0,0,0,1.72-2.94" transform="translate(-233.2 -229.12)"/><path class="cls-3" d="M326.17,229.67l-4.3,3.52,5.42,4.52v-2.64h3.91a8,8,0,0,0,5.89-2.46,8.19,8.19,0,0,0,1.72-2.94" transform="translate(-233.2 -229.12)"/><path class="cls-3" d="M327.67,229.67v1.18H332c1.75,0,2.19-.81,2.3-1.18a.58.58,0,0,0,0-.18" transform="translate(-233.2 -229.12)"/><path class="cls-3" d="M357.93,229.49a.58.58,0,0,1,0,.18c-.1.37-.54,1.18-2.3,1.18h-4.37v-1.18" transform="translate(-233.2 -229.12)"/><path class="cls-3" d="M349.72,229.67l-4.3,3.52,5.43,4.52v-2.64h3.9a8,8,0,0,0,5.89-2.46,8.21,8.21,0,0,0,1.73-2.94" transform="translate(-233.2 -229.12)"/><path class="cls-3" d="M374.77,229.67v1.18h4.38c1.75,0,2.19-.81,2.29-1.18" transform="translate(-233.2 -229.12)"/><path class="cls-3" d="M373.27,229.67l-4.3,3.52,5.43,4.52v-2.64h3.9a8,8,0,0,0,5.89-2.46,8.21,8.21,0,0,0,1.73-2.94" transform="translate(-233.2 -229.12)"/><path class="cls-3" d="M396.83,229.67l-4.31,3.52,5.43,4.52v-2.64h3.9a8,8,0,0,0,5.89-2.46,8.21,8.21,0,0,0,1.73-2.94" transform="translate(-233.2 -229.12)"/><path class="cls-3" d="M398.33,229.67v1.18h4.37c1.75,0,2.19-.81,2.29-1.18a.58.58,0,0,0,0-.18" transform="translate(-233.2 -229.12)"/><path class="cls-3" d="M421.88,229.67v1.18h4.37c1.75,0,2.19-.81,2.3-1.18" transform="translate(-233.2 -229.12)"/><path class="cls-3" d="M420.38,229.67l-4.31,3.52,5.43,4.52v-2.64h3.91a8,8,0,0,0,5.88-2.46,8.21,8.21,0,0,0,1.73-2.94" transform="translate(-233.2 -229.12)"/><path class="cls-3" d="M233.58,256.43a3.55,3.55,0,0,0,1.39.24h4.37v-2.41l5.81,4.75-5.43,4.52v-2.64h-3.9a8.4,8.4,0,0,1-2.24-.3" transform="translate(-233.2 -229.12)"/><path class="cls-3" d="M233.58,243.48H237a8,8,0,0,1,5.89,2.46,9.22,9.22,0,0,1,2.27,6.51" transform="translate(-233.2 -229.12)"/><path class="cls-3" d="M233.58,247.7h4.26c2.26,0,2.33,1.36,2.33,1.36" transform="translate(-233.2 -229.12)"/><path class="cls-3" d="M256.19,255.31s.07,1.36,2.33,1.36h4.38v-2.42l5.8,4.75-5.43,4.53v-2.64h-3.9a8,8,0,0,1-5.89-2.47,9.18,9.18,0,0,1-2.27-6.5" transform="translate(-233.2 -229.12)"/><path class="cls-3" d="M263.73,249.05s-.08-1.35-2.34-1.35H257v2.41l-5.81-4.75,5.43-4.52v2.64h3.91a8,8,0,0,1,5.88,2.46,9.18,9.18,0,0,1,2.27,6.51" transform="translate(-233.2 -229.12)"/><path class="cls-3" d="M279.74,255.31s.07,1.36,2.34,1.36h4.37v-2.42l5.8,4.75-5.43,4.53v-2.64h-3.9a8,8,0,0,1-5.89-2.47,9.18,9.18,0,0,1-2.27-6.5" transform="translate(-233.2 -229.12)"/><path class="cls-3" d="M287.28,249.05s-.08-1.35-2.34-1.35h-4.37v2.41l-5.81-4.75,5.43-4.52v2.64h3.91a8,8,0,0,1,5.88,2.46,9.18,9.18,0,0,1,2.27,6.51" transform="translate(-233.2 -229.12)"/><path class="cls-3" d="M303.29,255.31s.08,1.36,2.34,1.36H310v-2.42l5.8,4.75-5.42,4.53v-2.64h-3.91a8,8,0,0,1-5.89-2.47,9.18,9.18,0,0,1-2.26-6.5" transform="translate(-233.2 -229.12)"/><path class="cls-3" d="M310.83,249.05s-.08-1.35-2.34-1.35h-4.37v2.41l-5.8-4.75,5.42-4.52v2.64h3.91a8,8,0,0,1,5.89,2.46,9.22,9.22,0,0,1,2.26,6.51" transform="translate(-233.2 -229.12)"/><path class="cls-3" d="M326.84,255.31s.08,1.36,2.34,1.36h4.37v-2.42l5.8,4.75-5.42,4.53v-2.64H330a8,8,0,0,1-5.89-2.47,9.18,9.18,0,0,1-2.26-6.5" transform="translate(-233.2 -229.12)"/><path class="cls-3" d="M334.38,249.05s-.08-1.35-2.34-1.35h-4.37v2.41l-5.8-4.75,5.42-4.52v2.64h3.91a8,8,0,0,1,5.89,2.46,9.22,9.22,0,0,1,2.26,6.51" transform="translate(-233.2 -229.12)"/><path class="cls-3" d="M350.39,255.31s.08,1.36,2.34,1.36h4.37v-2.42l5.81,4.75-5.43,4.53v-2.64h-3.91a8,8,0,0,1-5.88-2.47,9.13,9.13,0,0,1-2.27-6.5" transform="translate(-233.2 -229.12)"/><path class="cls-3" d="M357.93,249.05s-.07-1.35-2.34-1.35h-4.37v2.41l-5.8-4.75,5.43-4.52v2.64h3.9a8,8,0,0,1,5.89,2.46,9.22,9.22,0,0,1,2.27,6.51" transform="translate(-233.2 -229.12)"/><path class="cls-3" d="M374,255.31s.07,1.36,2.33,1.36h4.37v-2.42l5.81,4.75L381,263.53v-2.64h-3.9a8,8,0,0,1-5.89-2.47,9.13,9.13,0,0,1-2.27-6.5" transform="translate(-233.2 -229.12)"/><path class="cls-3" d="M381.48,249.05s-.07-1.35-2.33-1.35h-4.38v2.41l-5.8-4.75,5.43-4.52v2.64h3.9a8,8,0,0,1,5.89,2.46,9.22,9.22,0,0,1,2.27,6.51" transform="translate(-233.2 -229.12)"/><path class="cls-3" d="M397.5,255.31s.07,1.36,2.33,1.36h4.38v-2.42L410,259l-5.43,4.53v-2.64h-3.9a8,8,0,0,1-5.89-2.47,9.18,9.18,0,0,1-2.27-6.5" transform="translate(-233.2 -229.12)"/><path class="cls-3" d="M405,249.05s-.07-1.35-2.33-1.35h-4.37v2.41l-5.81-4.75,5.43-4.52v2.64h3.9a8,8,0,0,1,5.89,2.46,9.18,9.18,0,0,1,2.27,6.51" transform="translate(-233.2 -229.12)"/><path class="cls-3" d="M421.05,255.31s.07,1.36,2.34,1.36h4.37v-2.42l5.8,4.75-5.43,4.53v-2.64h-3.9a8,8,0,0,1-5.89-2.47,9.18,9.18,0,0,1-2.27-6.5" transform="translate(-233.2 -229.12)"/><path class="cls-3" d="M428.59,249.05s-.08-1.35-2.34-1.35h-4.37v2.41l-5.81-4.75,5.43-4.52v2.64h3.91a8,8,0,0,1,5.88,2.46,9.18,9.18,0,0,1,2.27,6.51" transform="translate(-233.2 -229.12)"/><path class="cls-3" d="M233.58,275.53a3.35,3.35,0,0,1,1.39-.25h4.37v2.41l5.81-4.75-5.43-4.52v2.64h-3.9a8.4,8.4,0,0,0-2.24.3" transform="translate(-233.2 -229.12)"/><path class="cls-3" d="M233.58,288.47H237a8,8,0,0,0,5.89-2.46,9.22,9.22,0,0,0,2.27-6.51" transform="translate(-233.2 -229.12)"/><path class="cls-3" d="M233.58,284.25h4.26c2.26,0,2.33-1.36,2.33-1.36" transform="translate(-233.2 -229.12)"/><path class="cls-3" d="M256.19,276.64s.07-1.36,2.33-1.36h4.38v2.41l5.8-4.75-5.43-4.52v2.64h-3.9a8,8,0,0,0-5.89,2.46,9.22,9.22,0,0,0-2.27,6.51" transform="translate(-233.2 -229.12)"/><path class="cls-3" d="M263.73,282.89s-.08,1.36-2.34,1.36H257v-2.41l-5.81,4.74,5.43,4.53v-2.64h3.91a8,8,0,0,0,5.88-2.47,9.13,9.13,0,0,0,2.27-6.5" transform="translate(-233.2 -229.12)"/><path class="cls-3" d="M279.74,276.64s.07-1.36,2.34-1.36h4.37v2.41l5.8-4.75-5.43-4.52v2.64h-3.9a8,8,0,0,0-5.89,2.46,9.22,9.22,0,0,0-2.27,6.51" transform="translate(-233.2 -229.12)"/><path class="cls-3" d="M287.28,282.89s-.08,1.36-2.34,1.36h-4.37v-2.41l-5.81,4.74,5.43,4.53v-2.64h3.91A8,8,0,0,0,290,286a9.13,9.13,0,0,0,2.27-6.5" transform="translate(-233.2 -229.12)"/><path class="cls-3" d="M303.29,276.64s.08-1.36,2.34-1.36H310v2.41l5.8-4.75-5.42-4.52v2.64h-3.91a8,8,0,0,0-5.89,2.46,9.22,9.22,0,0,0-2.26,6.51" transform="translate(-233.2 -229.12)"/><path class="cls-3" d="M310.83,282.89s-.08,1.36-2.34,1.36h-4.37v-2.41l-5.8,4.74,5.42,4.53v-2.64h3.91a8,8,0,0,0,5.89-2.47,9.18,9.18,0,0,0,2.26-6.5" transform="translate(-233.2 -229.12)"/><path class="cls-3" d="M326.84,276.64s.08-1.36,2.34-1.36h4.37v2.41l5.8-4.75-5.42-4.52v2.64H330a8,8,0,0,0-5.89,2.46,9.22,9.22,0,0,0-2.26,6.51" transform="translate(-233.2 -229.12)"/><path class="cls-3" d="M334.38,282.89s-.08,1.36-2.34,1.36h-4.37v-2.41l-5.8,4.74,5.42,4.53v-2.64h3.91a8,8,0,0,0,5.89-2.47,9.18,9.18,0,0,0,2.26-6.5" transform="translate(-233.2 -229.12)"/><path class="cls-3" d="M350.39,276.64s.08-1.36,2.34-1.36h4.37v2.41l5.81-4.75-5.43-4.52v2.64h-3.91a8,8,0,0,0-5.88,2.46,9.18,9.18,0,0,0-2.27,6.51" transform="translate(-233.2 -229.12)"/><path class="cls-3" d="M357.93,282.89s-.07,1.36-2.34,1.36h-4.37v-2.41l-5.8,4.74,5.43,4.53v-2.64h3.9a8,8,0,0,0,5.89-2.47,9.18,9.18,0,0,0,2.27-6.5" transform="translate(-233.2 -229.12)"/><path class="cls-3" d="M374,276.64s.07-1.36,2.33-1.36h4.37v2.41l5.81-4.75L381,268.42v2.64h-3.9a8,8,0,0,0-5.89,2.46A9.18,9.18,0,0,0,369,280" transform="translate(-233.2 -229.12)"/><path class="cls-3" d="M381.48,282.89s-.07,1.36-2.33,1.36h-4.38v-2.41l-5.8,4.74,5.43,4.53v-2.64h3.9a8,8,0,0,0,5.89-2.47,9.18,9.18,0,0,0,2.27-6.5" transform="translate(-233.2 -229.12)"/><path class="cls-3" d="M397.5,276.64s.07-1.36,2.33-1.36h4.38v2.41l5.8-4.75-5.43-4.52v2.64h-3.9a8,8,0,0,0-5.89,2.46,9.22,9.22,0,0,0-2.27,6.51" transform="translate(-233.2 -229.12)"/><path class="cls-3" d="M405,282.89s-.07,1.36-2.33,1.36h-4.37v-2.41l-5.81,4.74,5.43,4.53v-2.64h3.9a8,8,0,0,0,5.89-2.47,9.13,9.13,0,0,0,2.27-6.5" transform="translate(-233.2 -229.12)"/><path class="cls-3" d="M421.05,276.64s.07-1.36,2.34-1.36h4.37v2.41l5.8-4.75-5.43-4.52v2.64h-3.9a8,8,0,0,0-5.89,2.46,9.22,9.22,0,0,0-2.27,6.51" transform="translate(-233.2 -229.12)"/><path class="cls-3" d="M428.59,282.89s-.08,1.36-2.34,1.36h-4.37v-2.41l-5.81,4.74,5.43,4.53v-2.64h3.91a8,8,0,0,0,5.88-2.47,9.13,9.13,0,0,0,2.27-6.5" transform="translate(-233.2 -229.12)"/><path class="cls-3" d="M233.58,296.87H237a8,8,0,0,1,5.89,2.47c.1.1.19.21.29.33" transform="translate(-233.2 -229.12)"/><path class="cls-3" d="M252.34,299.67l-1.13-.92,5.43-4.52v2.64h3.91a8,8,0,0,1,5.88,2.47,3.11,3.11,0,0,1,.29.33" transform="translate(-233.2 -229.12)"/><path class="cls-3" d="M275.89,299.67l-1.13-.92,5.43-4.52v2.64h3.91a8,8,0,0,1,5.88,2.47c.1.1.19.21.29.33" transform="translate(-233.2 -229.12)"/><path class="cls-3" d="M299.44,299.67l-1.12-.92,5.42-4.52v2.64h3.91a8,8,0,0,1,5.89,2.47c.1.1.19.21.29.33" transform="translate(-233.2 -229.12)"/><path class="cls-3" d="M323,299.67l-1.12-.92,5.42-4.52v2.64h3.91a8,8,0,0,1,5.89,2.47c.1.1.19.21.29.33" transform="translate(-233.2 -229.12)"/><path class="cls-3" d="M346.54,299.67l-1.12-.92,5.43-4.52v2.64h3.9a8,8,0,0,1,5.89,2.47c.1.1.19.21.29.33" transform="translate(-233.2 -229.12)"/><path class="cls-3" d="M370.09,299.67l-1.12-.92,5.43-4.52v2.64h3.9a8,8,0,0,1,5.89,2.47c.1.1.19.21.29.33" transform="translate(-233.2 -229.12)"/><path class="cls-3" d="M393.65,299.67l-1.13-.92,5.43-4.52v2.64h3.9a8,8,0,0,1,5.89,2.47c.1.1.19.21.29.33" transform="translate(-233.2 -229.12)"/><path class="cls-3" d="M417.2,299.67l-1.13-.92,5.43-4.52v2.64h3.91a8,8,0,0,1,5.88,2.47,3.11,3.11,0,0,1,.29.33" transform="translate(-233.2 -229.12)"/><text class="cls-4" transform="translate(67.64 34.59)">Cambios y d<tspan class="cls-5" x="43.63" y="0">e</tspan><tspan class="cls-6" x="47.66" y="0">v</tspan><tspan class="cls-7" x="51.23" y="0">o</tspan><tspan x="55.31" y="0">lucione</tspan><tspan class="cls-6" x="80.57" y="0">s</tspan><tspan x="83.99" y="0">.</tspan></text><text class="cls-8" transform="translate(67.67 58.89)">Conoce más aquí</text></g></svg>