<svg id="Capa_1" data-name="Capa 1" xmlns="http://www.w3.org/2000/svg" viewBox="0 0 85.92 107.57"><defs><style>.cls-1{fill:#8fca00;}</style></defs><path class="cls-1" d="M1748.85,110.94a1.94,1.94,0,0,0,1.94,1.94H1767c14.14,0,26.17-12.14,32.39-19.86a1.94,1.94,0,0,1,3.41,1.62,72.29,72.29,0,0,1-3.31,12.17,37,37,0,0,1-34.75,23.9h-14a1.94,1.94,0,0,0-1.94,1.94v8.64a2,2,0,0,1-3.17,1.51l-25.32-20.43a1.94,1.94,0,0,1,0-3l25.32-20.43a2,2,0,0,1,3.17,1.52Z" transform="translate(-1719.64 -35.66)"/><path class="cls-1" d="M1776.35,68a1.94,1.94,0,0,0-1.94-1.95h-16.25c-14.14,0-26.18,12.15-32.4,19.86a1.94,1.94,0,0,1-3.41-1.62,71.9,71.9,0,0,1,3.31-12.16,37.06,37.06,0,0,1,34.75-23.91h14a1.94,1.94,0,0,0,1.94-1.94V37.61a1.94,1.94,0,0,1,3.16-1.52l25.32,20.43a1.93,1.93,0,0,1,0,3L1779.51,80a1.94,1.94,0,0,1-3.16-1.51Z" transform="translate(-1719.64 -35.66)"/></svg>