<svg id="Capa_1" data-name="Capa 1" xmlns="http://www.w3.org/2000/svg" viewBox="0 0 110.73 105.02"><defs><style>.cls-1,.cls-2{fill:none;stroke:#8fca00;stroke-miterlimit:10;stroke-width:7px;}.cls-2{stroke-linecap:round;}</style></defs><path class="cls-1" d="M488.3,120H531a.52.52,0,0,0,.52-.56l-5.75-62.62a.52.52,0,0,0-.51-.47H474.46a.52.52,0,0,0-.52.48L471.3,89.56" transform="translate(-424.27 -38.03)"/><path class="cls-2" d="M484.12,62.86V57.12a15.59,15.59,0,0,1,15.59-15.59h0a15.59,15.59,0,0,1,15.58,15.59v5.74" transform="translate(-424.27 -38.03)"/><rect class="cls-1" x="3.5" y="62.32" width="17.87" height="39.2" rx="2.58"/><path class="cls-1" d="M445.64,100.35S493.24,77.47,498.82,86c3,4.64.56,8.55-2.33,11.17a19,19,0,0,1-7.71,4.12c-4.91,1.36-15.32,4.9-15.32,10.55,0,7.39,6.86,8.07,14.84,8.07s9.49,14.84-14.84,14.84H445.64Z" transform="translate(-424.27 -38.03)"/></svg>