<svg id="Capa_1" data-name="Capa 1" xmlns="http://www.w3.org/2000/svg" viewBox="0 0 93.04 105.35"><defs><style>.cls-1{fill:#8fca00;}</style></defs><path class="cls-1" d="M1384.16,103.16v14.67a7.15,7.15,0,0,0,7.15,7.14h26.93v10a8.23,8.23,0,0,1-8.23,8.23H1340.7a8.23,8.23,0,0,1-8.23-8.23V85.41a8.22,8.22,0,0,1,8.23-8.23H1410a8.22,8.22,0,0,1,8.23,8.23V96h-26.93A7.15,7.15,0,0,0,1384.16,103.16Z" transform="translate(-1332.47 -37.88)"/><line class="cls-1" x1="93.04" y1="79.37" x2="93.04" y2="65.65"/><path class="cls-1" d="M1420.81,98.84h-26.56a7.14,7.14,0,0,0-7.15,7.14v8.83a7.14,7.14,0,0,0,7.15,7.14h26.56a4.69,4.69,0,0,0,4.7-4.7V103.54A4.69,4.69,0,0,0,1420.81,98.84Zm-20.35,17a5.46,5.46,0,1,1,5.45-5.46A5.45,5.45,0,0,1,1400.46,115.85Z" transform="translate(-1332.47 -37.88)"/><path class="cls-1" d="M1410.23,71.33l-.13.15L1407.56,74l-33.23,0,20-25.13c5.52,4.49,11.59,9.4,15.11,12.25A7,7,0,0,1,1410.23,71.33Z" transform="translate(-1332.47 -37.88)"/><path class="cls-1" d="M1383.15,39.8l-28.28,34.26h-9.77l26.54-33.13A8.06,8.06,0,0,1,1383,39.66Z" transform="translate(-1332.47 -37.88)"/><path class="cls-1" d="M1391.4,46.56,1369.3,74h-9l26-31.71Z" transform="translate(-1332.47 -37.88)"/></svg>