<svg id="Capa_1" data-name="Capa 1" xmlns="http://www.w3.org/2000/svg" viewBox="0 0 200.03 70"><defs><style>.cls-1{fill:#fff;}.cls-2{fill:#9fd800;}.cls-3,.cls-9{font-size:7px;fill:#191919;}.cls-3{font-family:Silka-Medium, Silka;font-weight:500;}.cls-4{letter-spacing:-0.04em;}.cls-5{letter-spacing:-0.04em;}.cls-6,.cls-7,.cls-9{font-family:Silka-Regular, Silka;}.cls-6,.cls-7{font-weight:400;}.cls-7,.cls-8{letter-spacing:-0.04em;}.cls-9{text-decoration:underline;}.cls-10,.cls-12{fill:#a9dc0b;}.cls-11,.cls-12{opacity:0.15;}</style></defs><rect class="cls-1" width="200" height="70"/><rect class="cls-2" x="79.64" y="17.58" width="59.25" height="8.88"/><text class="cls-3" transform="translate(80.59 24.02)">Gene<tspan class="cls-4" x="18.42" y="0">r</tspan><tspan x="21.05" y="0">a ing</tspan><tspan class="cls-5" x="38.04" y="0">r</tspan><tspan x="40.67" y="0">esos</tspan><tspan class="cls-6" x="56.83" y="0"> </tspan><tspan class="cls-7" x="58.79" y="0">e</tspan><tspan class="cls-6" x="62.76" y="0">xt</tspan><tspan class="cls-7" x="69.47" y="0">r</tspan><tspan class="cls-6" x="71.98" y="0">a </tspan><tspan class="cls-6"><tspan x="0" y="8.4">p</tspan><tspan class="cls-8" x="4.63" y="8.4">r</tspan><tspan x="7.14" y="8.4">omocionando nuest</tspan><tspan class="cls-8" x="76.68" y="8.4">r</tspan><tspan x="79.2" y="8.4">os </tspan><tspan x="0" y="16.8">p</tspan><tspan class="cls-8" x="4.63" y="16.8">r</tspan><tspan x="7.14" y="16.8">oducto</tspan><tspan class="cls-8" x="32.16" y="16.8">s</tspan><tspan x="35.58" y="16.8">.</tspan></tspan></text><text class="cls-9" transform="translate(80.28 58.37)">Inscríbete aho<tspan class="cls-8" x="50.18" y="0">r</tspan><tspan x="52.69" y="0">a</tspan></text><path class="cls-10" d="M728.09,259l-1-2.47h-2.36l-.33.78-.43,1-.62,1.46-.5,1.19-.84,2-1.23,2.91h2.56l.64-1.7h3.85l.68,1.7H731Zm-2.18.2,1.14,3h-2.38Z" transform="translate(-701.04 -229.65)"/><path class="cls-10" d="M733.39,255.16h-2.26v8.6a2.47,2.47,0,0,0,.26,1.13,2.16,2.16,0,0,0,2.07,1.17s1.25.05,1.7-.4l-.37-1.76a1.43,1.43,0,0,1-.79.21h0a.65.65,0,0,1-.64-.66Z" transform="translate(-701.04 -229.65)"/><rect class="cls-10" x="34.72" y="29.2" width="2.18" height="7.01"/><circle class="cls-10" cx="35.81" cy="27.18" r="1.26"/><path class="cls-10" d="M745.72,260.93a2.51,2.51,0,0,0-1.73-2,3.77,3.77,0,0,0-.84-.17,4.17,4.17,0,0,0-.52,0,5.46,5.46,0,0,0-.73.05,3.48,3.48,0,0,0-.72.16,2.57,2.57,0,0,0-1.56,1.27,2,2,0,0,0-.25.7l.26.06,1.81.41a1.06,1.06,0,0,1,.81-.88,2,2,0,0,1,.37,0,1,1,0,0,1,.53.13.82.82,0,0,1,.36.38,1.41,1.41,0,0,1,.13.63h-2.35a2.34,2.34,0,0,0-2.14,1.33,2.21,2.21,0,0,0-.19.91c0,1.47,1.09,2.28,2.6,2.28a2.58,2.58,0,0,0,2.05-.71v.49h2.12V261A.62.62,0,0,0,745.72,260.93Zm-3.12,3.38a2.8,2.8,0,0,1-.67.08.71.71,0,0,1-.77-.76.62.62,0,0,1,.45-.56,1.24,1.24,0,0,1,.5-.1h1.52A1.37,1.37,0,0,1,742.6,264.31Z" transform="translate(-701.04 -229.65)"/><path class="cls-10" d="M750.28,264.12a1.74,1.74,0,1,1,1.68-1.74v-3a3.33,3.33,0,0,0-2.08-.73,3.7,3.7,0,0,0,0,7.39,3.33,3.33,0,0,0,2.08-.73v-3A1.71,1.71,0,0,1,750.28,264.12Z" transform="translate(-701.04 -229.65)"/><polygon class="cls-10" points="50.92 35.7 50.92 36.21 53.15 36.21 53.15 25.51 50.92 25.51 50.92 29.76 50.92 35.7"/><path class="cls-10" d="M761.85,260.16a3.63,3.63,0,0,0-.83-.78,3.24,3.24,0,0,0-.85-.43,3.28,3.28,0,0,0-.83-.22,3.64,3.64,0,0,0-.57,0,3.83,3.83,0,0,0-1.18.18,3.47,3.47,0,0,0-.88.39,3.66,3.66,0,0,0-1.8,3.12,2.92,2.92,0,0,0,0,.51,3.88,3.88,0,0,0,7.64,0,2.92,2.92,0,0,0,0-.51A3.55,3.55,0,0,0,761.85,260.16Zm-3.08,4a1.78,1.78,0,0,1-1.71-1.28,1.7,1.7,0,0,1-.08-.51,1.78,1.78,0,0,1,1.79-1.78,1.86,1.86,0,0,1,.74.16,1.78,1.78,0,0,1,1,1.62,1.7,1.7,0,0,1-.08.51A1.78,1.78,0,0,1,758.77,264.17Z" transform="translate(-701.04 -229.65)"/><path class="cls-10" d="M720.05,262.44a1.86,1.86,0,0,0-.54,1.53.07.07,0,0,1-.07.08h-3.33A.07.07,0,0,1,716,264a1.88,1.88,0,0,0-.53-1.53,4.31,4.31,0,0,1-1.64-3.22,3.83,3.83,0,0,1,3.89-4.06h0a3.83,3.83,0,0,1,3.9,4.06A4.35,4.35,0,0,1,720.05,262.44Z" transform="translate(-701.04 -229.65)"/><rect class="cls-10" x="15.15" y="34.65" width="3.22" height="0.74" rx="0.36"/><rect class="cls-10" x="15.91" y="35.55" width="1.7" height="0.74" rx="0.36"/><path class="cls-10" d="M744.78,271.44a.94.94,0,0,0-.33-.23.92.92,0,0,0-.4-.08,1,1,0,0,0-.39.07,1,1,0,0,0-.33.23,1.06,1.06,0,0,0-.23.37,1.44,1.44,0,0,0-.08.49,1.51,1.51,0,0,0,.08.48,1.11,1.11,0,0,0,.23.36,1.06,1.06,0,0,0,.72.32,1.05,1.05,0,0,0,.73-.32,1.16,1.16,0,0,0,.23-.37,1.19,1.19,0,0,0,.08-.47,1.21,1.21,0,0,0-.08-.48A1.28,1.28,0,0,0,744.78,271.44Z" transform="translate(-701.04 -229.65)"/><path class="cls-10" d="M749.14,271.36a1,1,0,0,0-.28-.2.83.83,0,0,0-.36-.08.8.8,0,0,0-.63.27,1.16,1.16,0,0,0-.31.68h1.85a1.18,1.18,0,0,0-.09-.37A.92.92,0,0,0,749.14,271.36Z" transform="translate(-701.04 -229.65)"/><path class="cls-10" d="M736.22,271.36a1,1,0,0,0-.28-.2.86.86,0,0,0-.36-.08.8.8,0,0,0-.63.27,1.16,1.16,0,0,0-.31.68h1.85a1.18,1.18,0,0,0-.09-.37A.92.92,0,0,0,736.22,271.36Z" transform="translate(-701.04 -229.65)"/><path class="cls-10" d="M729.34,271.44a.9.9,0,0,0-.32-.23.92.92,0,0,0-.4-.08.9.9,0,0,0-.4.08,1,1,0,0,0-.34.23,1.54,1.54,0,0,0-.23.37,1.42,1.42,0,0,0-.08.48,1.4,1.4,0,0,0,.08.47,1.37,1.37,0,0,0,.23.37,1,1,0,0,0,.34.23.9.9,0,0,0,.4.09.93.93,0,0,0,.4-.09.9.9,0,0,0,.32-.23,1.11,1.11,0,0,0,.23-.36,1.51,1.51,0,0,0,.08-.48,1.53,1.53,0,0,0-.08-.49A1.11,1.11,0,0,0,729.34,271.44Z" transform="translate(-701.04 -229.65)"/><path class="cls-10" d="M753.47,271.44a.86.86,0,0,0-.33-.23.92.92,0,0,0-.4-.08,1,1,0,0,0-.39.07,1,1,0,0,0-.33.23,1.06,1.06,0,0,0-.23.37,1.44,1.44,0,0,0-.08.49,1.51,1.51,0,0,0,.08.48,1.11,1.11,0,0,0,.23.36,1.06,1.06,0,0,0,.72.32.93.93,0,0,0,.4-.09.86.86,0,0,0,.33-.23,1.16,1.16,0,0,0,.23-.37,1.19,1.19,0,0,0,.09-.47,1.21,1.21,0,0,0-.09-.48A1.28,1.28,0,0,0,753.47,271.44Z" transform="translate(-701.04 -229.65)"/><path class="cls-10" d="M758.14,271.48a1.28,1.28,0,0,0-.35-.26,1,1,0,0,0-.44-.09,1.1,1.1,0,0,0-.45.09,1.42,1.42,0,0,0-.34.25,1.25,1.25,0,0,0-.22.37,1.33,1.33,0,0,0-.07.45,1.38,1.38,0,0,0,.08.45,1,1,0,0,0,.23.37.94.94,0,0,0,.34.25,1.08,1.08,0,0,0,.44.09,1.06,1.06,0,0,0,.45-.09.94.94,0,0,0,.34-.25,1,1,0,0,0,.22-.36,1.33,1.33,0,0,0,.08-.45,1.32,1.32,0,0,0-.31-.82Z" transform="translate(-701.04 -229.65)"/><path class="cls-10" d="M712.23,267.8v8.25h53.5V267.8Zm3.57,6.28v-4.77h3.53v.76h-2.7v1.22H719v.76h-2.4v1.28h2.74v.75Zm8.4-2.92a.72.72,0,0,0-.55.23l0,.07a.93.93,0,0,0-.17.6v2h-.83v-2a1,1,0,0,0-.19-.65.68.68,0,0,0-.54-.23.66.66,0,0,0-.49.19l-.06,0a1,1,0,0,0-.21.66v2h-.84v-3.6h.84V271a2.11,2.11,0,0,1,.19-.23l.08-.07a.64.64,0,0,1,.15-.13,1,1,0,0,1,.3-.14,1.11,1.11,0,0,1,.37,0,1.24,1.24,0,0,1,.66.17,1.16,1.16,0,0,1,.41.47,1.72,1.72,0,0,1,.33-.33,1.33,1.33,0,0,1,.19-.14,1.43,1.43,0,0,1,.71-.17,1.19,1.19,0,0,1,.92.36,1.38,1.38,0,0,1,.34,1v2.29h-.83v-2a1,1,0,0,0-.19-.65A.68.68,0,0,0,724.2,271.16Zm4.6,3a1.28,1.28,0,0,1-.73-.19l-.13-.1a2,2,0,0,1-.36-.34v1.65h-.83v-4.7h.83v.6a1.72,1.72,0,0,1,.49-.48,1.28,1.28,0,0,1,.73-.19,1.67,1.67,0,0,1,.62.12,1.46,1.46,0,0,1,.53.37,1.77,1.77,0,0,1,.38.59,2.14,2.14,0,0,1,.14.79,2.2,2.2,0,0,1-.14.8,1.85,1.85,0,0,1-.37.59,1.63,1.63,0,0,1-.54.37h0A1.77,1.77,0,0,1,728.8,274.16Zm4.63-2.87h0a1.31,1.31,0,0,0-.5.09,1,1,0,0,0-.39.26,1.22,1.22,0,0,0-.25.45,2,2,0,0,0-.09.62v1.37h-.83v-3.6h.83v.81a1.52,1.52,0,0,1,.48-.65,1.21,1.21,0,0,1,.79-.23Zm3.88,1.17a.49.49,0,0,0,0,.12h-2.65a1.14,1.14,0,0,0,.35.68,1.08,1.08,0,0,0,.69.23,1.12,1.12,0,0,0,.53-.11,1.59,1.59,0,0,0,.44-.32l.49.43a2,2,0,0,1-.62.49,1.79,1.79,0,0,1-.86.19A1.89,1.89,0,0,1,735,274a1.71,1.71,0,0,1-.59-.38,1.69,1.69,0,0,1-.39-.59,1.92,1.92,0,0,1-.15-.77,2.2,2.2,0,0,1,.13-.73,1.84,1.84,0,0,1,.37-.6,1.69,1.69,0,0,1,.55-.4,1.67,1.67,0,0,1,.71-.15,1.81,1.81,0,0,1,.76.15,1.66,1.66,0,0,1,.86,1.05,2.55,2.55,0,0,1,.11.74Zm4.07,1.62h-.84v-2a.92.92,0,0,0-.2-.65.71.71,0,0,0-.56-.23.75.75,0,0,0-.58.24.93.93,0,0,0-.23.66v2h-.83v-3.6H739v.57a2.43,2.43,0,0,1,.2-.25,1.59,1.59,0,0,1,.24-.2,1.23,1.23,0,0,1,.31-.14,1.13,1.13,0,0,1,.38,0,1.19,1.19,0,0,1,.94.37,1.48,1.48,0,0,1,.34,1Zm4.53,0h-.83v-.6a1.86,1.86,0,0,1-.49.48,1.3,1.3,0,0,1-.73.2h-.05a1.56,1.56,0,0,1-.57-.11,1.63,1.63,0,0,1-.54-.37,2,2,0,0,1-.37-.59,2.2,2.2,0,0,1-.14-.8,2,2,0,0,1,.14-.79,1.61,1.61,0,0,1,.37-.59,1.38,1.38,0,0,1,.53-.37,1.68,1.68,0,0,1,.63-.12,1.3,1.3,0,0,1,.73.19,1.9,1.9,0,0,1,.49.44V269.1h.83Zm4.32-1.62s0,.08,0,.12h-2.65a1.1,1.1,0,0,0,.36.68,1,1,0,0,0,.68.23,1.12,1.12,0,0,0,.53-.11,1.59,1.59,0,0,0,.44-.32l.49.43a2,2,0,0,1-.62.49,1.76,1.76,0,0,1-.86.19,1.89,1.89,0,0,1-.72-.14,1.81,1.81,0,0,1-.59-.38,1.69,1.69,0,0,1-.39-.59,1.92,1.92,0,0,1-.15-.77,2.2,2.2,0,0,1,.13-.73,1.84,1.84,0,0,1,.37-.6,1.74,1.74,0,0,1,.56-.4,1.63,1.63,0,0,1,.7-.15,1.81,1.81,0,0,1,.76.15,1.66,1.66,0,0,1,.86,1.05,2.55,2.55,0,0,1,.11.74Zm4.37,1.62h-.83v-.6a1.72,1.72,0,0,1-.49.48,1.3,1.3,0,0,1-.73.2,1.63,1.63,0,0,1-.62-.12,1.2,1.2,0,0,1-.34-.21,1,1,0,0,1-.19-.16,1.87,1.87,0,0,1-.38-.59,2.2,2.2,0,0,1-.14-.8,1.53,1.53,0,0,1,0-.38h0a1.67,1.67,0,0,1,.1-.4,1.75,1.75,0,0,1,.37-.59,1.38,1.38,0,0,1,.53-.37,1.72,1.72,0,0,1,.63-.12,1.28,1.28,0,0,1,.73.19,1.9,1.9,0,0,1,.49.44V269.1h.83Zm4.53-1.07a1.91,1.91,0,0,1-.4.6,2,2,0,0,1-.61.41l-.12,0a2,2,0,0,1-.65.11,1.87,1.87,0,0,1-.76-.15,1.85,1.85,0,0,1-.61-.4,1.91,1.91,0,0,1-.4-.6,1.71,1.71,0,0,1-.14-.72,2,2,0,0,1,.11-.64l0-.1a1.94,1.94,0,0,1,.41-.6,1.91,1.91,0,0,1,.6-.4,2,2,0,0,1,.77-.15,2.15,2.15,0,0,1,.77.14,1.94,1.94,0,0,1,.6.41,1.67,1.67,0,0,1,.4.59,1.8,1.8,0,0,1,.15.73A1.77,1.77,0,0,1,759.13,273Zm3.09-1.72h0a1.31,1.31,0,0,0-.5.09,1,1,0,0,0-.39.26,1.2,1.2,0,0,0-.23.4s0,0,0,0a2,2,0,0,0-.09.62v1.37h-.83v-3.6H761v.81a1.51,1.51,0,0,1,.11-.22,1.41,1.41,0,0,1,.37-.43,1.21,1.21,0,0,1,.79-.23Z" transform="translate(-701.04 -229.65)"/><g class="cls-11"><path class="cls-10" d="M714.2,231.58a1,1,0,0,0-.34-.23.89.89,0,0,0-.39-.09,1.1,1.1,0,0,0-.4.08,1.23,1.23,0,0,0-.33.23,1,1,0,0,0-.22.37,1.21,1.21,0,0,0-.09.48,1.3,1.3,0,0,0,.09.49,1.09,1.09,0,0,0,.22.36,1,1,0,0,0,.33.23.92.92,0,0,0,.4.08.88.88,0,0,0,.39-.08,1,1,0,0,0,.34-.23,1.25,1.25,0,0,0,.22-.37,1.21,1.21,0,0,0,.09-.48,1.19,1.19,0,0,0-.09-.47A1.14,1.14,0,0,0,714.2,231.58Z" transform="translate(-701.04 -229.65)"/><path class="cls-10" d="M718.55,231.5a.9.9,0,0,0-.27-.2.87.87,0,0,0-.37-.08.83.83,0,0,0-.63.27,1.16,1.16,0,0,0-.3.68h1.85a2.22,2.22,0,0,0-.09-.37A.91.91,0,0,0,718.55,231.5Z" transform="translate(-701.04 -229.65)"/><path class="cls-10" d="M705.63,231.5a.9.9,0,0,0-.27-.2.87.87,0,0,0-.37-.08.83.83,0,0,0-.63.27,1.1,1.1,0,0,0-.3.68h1.85a2.22,2.22,0,0,0-.09-.37A.91.91,0,0,0,705.63,231.5Z" transform="translate(-701.04 -229.65)"/><path class="cls-10" d="M722.89,231.58a1,1,0,0,0-.34-.23.86.86,0,0,0-.39-.09,1.1,1.1,0,0,0-.4.08,1.23,1.23,0,0,0-.33.23,1,1,0,0,0-.22.37,1.21,1.21,0,0,0-.08.48,1.29,1.29,0,0,0,.08.49,1.09,1.09,0,0,0,.22.36,1,1,0,0,0,.33.23.92.92,0,0,0,.4.08.85.85,0,0,0,.39-.08,1,1,0,0,0,.34-.23,1.54,1.54,0,0,0,.23-.37,1.42,1.42,0,0,0,.08-.48,1.4,1.4,0,0,0-.08-.47A1.37,1.37,0,0,0,722.89,231.58Z" transform="translate(-701.04 -229.65)"/><path class="cls-10" d="M727.55,231.62a1.23,1.23,0,0,0-.34-.26,1.13,1.13,0,0,0-.45-.09,1,1,0,0,0-.44.09,1.11,1.11,0,0,0-.34.25,1.07,1.07,0,0,0-.22.37,1.32,1.32,0,0,0-.08.44,1.44,1.44,0,0,0,.08.46,1.16,1.16,0,0,0,.23.37,1.12,1.12,0,0,0,.35.25,1,1,0,0,0,.44.09,1.13,1.13,0,0,0,.45-.09,1.09,1.09,0,0,0,.56-.61,1.63,1.63,0,0,0,.07-.45,1.33,1.33,0,0,0-.08-.45A1.16,1.16,0,0,0,727.55,231.62Z" transform="translate(-701.04 -229.65)"/><path class="cls-10" d="M724,229.65v4.58h-.83v-.6a2.24,2.24,0,0,1-.49.48,1.3,1.3,0,0,1-.73.19,1.63,1.63,0,0,1-.62-.12,1.6,1.6,0,0,1-.54-.36,2.19,2.19,0,0,1-.37-.59,2.24,2.24,0,0,1-.14-.8,2,2,0,0,1,.14-.8,1.69,1.69,0,0,1,.37-.59,1.64,1.64,0,0,1,.53-.37,1.68,1.68,0,0,1,.63-.12,1.3,1.3,0,0,1,.73.19,1.93,1.93,0,0,1,.49.45v-1.54h-7.86v4.58h-.83v-.6a2.24,2.24,0,0,1-.49.48,1.34,1.34,0,0,1-.74.19,1.67,1.67,0,0,1-.62-.12,1.56,1.56,0,0,1-.53-.36,2,2,0,0,1-.37-.59,2,2,0,0,1-.14-.8,2,2,0,0,1,.14-.8,1.69,1.69,0,0,1,.37-.59,1.64,1.64,0,0,1,.53-.37,1.67,1.67,0,0,1,.62-.12,1.31,1.31,0,0,1,.74.19,2.12,2.12,0,0,1,.49.45v-1.54H701v1h.54v.81a1.55,1.55,0,0,1,.48-.66,1.14,1.14,0,0,1,.79-.22v.87h0a1.31,1.31,0,0,0-.5.09,1.05,1.05,0,0,0-.39.27,1,1,0,0,0-.25.44,2,2,0,0,0-.09.63v1.37H701v2h34.11v-6.54Zm-17.3,2.95a.49.49,0,0,1,0,.12h-2.64a1.11,1.11,0,0,0,.35.68,1,1,0,0,0,.68.23,1.27,1.27,0,0,0,.54-.1,1.81,1.81,0,0,0,.44-.33l.48.43a2,2,0,0,1-.61.5,1.91,1.91,0,0,1-.86.18,2,2,0,0,1-.73-.14,1.62,1.62,0,0,1-.58-.38,1.6,1.6,0,0,1-.39-.59,1.89,1.89,0,0,1-.15-.77,2.2,2.2,0,0,1,.13-.73,1.9,1.9,0,0,1,.37-.59,1.72,1.72,0,0,1,.55-.41,1.82,1.82,0,0,1,1.47,0,1.46,1.46,0,0,1,.53.42,1.76,1.76,0,0,1,.33.62,2.67,2.67,0,0,1,.11.75A.34.34,0,0,1,706.72,232.6Zm4.07,1.63H710v-2a.91.91,0,0,0-.2-.65.68.68,0,0,0-.56-.23.77.77,0,0,0-.58.23.93.93,0,0,0-.23.66v2h-.83v-3.6h.83v.56a1.59,1.59,0,0,1,.2-.24,1.21,1.21,0,0,1,.24-.21,1.46,1.46,0,0,1,.31-.14,1.4,1.4,0,0,1,.38,0,1.2,1.2,0,0,1,.94.38,1.46,1.46,0,0,1,.33,1Zm8.86-1.63a.49.49,0,0,0,0,.12H717a1.11,1.11,0,0,0,.35.68,1,1,0,0,0,.69.23,1.25,1.25,0,0,0,.53-.1,1.63,1.63,0,0,0,.44-.33l.49.43a2.13,2.13,0,0,1-.62.5,1.91,1.91,0,0,1-.86.18,1.89,1.89,0,0,1-.72-.14,1.58,1.58,0,0,1-.59-.38,1.6,1.6,0,0,1-.39-.59,1.89,1.89,0,0,1-.15-.77,2.2,2.2,0,0,1,.13-.73,1.9,1.9,0,0,1,.37-.59,1.72,1.72,0,0,1,.55-.41,1.82,1.82,0,0,1,1.47,0,1.58,1.58,0,0,1,.54.42,1.92,1.92,0,0,1,.32.62,2.67,2.67,0,0,1,.11.75Zm8.9.56a1.91,1.91,0,0,1-1.78,1.15,2,2,0,0,1-.77-.15,1.75,1.75,0,0,1-.6-.4,1.86,1.86,0,0,1-.4-2,1.91,1.91,0,0,1,.4-.6,2,2,0,0,1,.61-.41,2.05,2.05,0,0,1,1.54,0,1.91,1.91,0,0,1,.6.4,1.91,1.91,0,0,1,.55,1.33A1.8,1.8,0,0,1,728.55,233.16Zm3.09-1.73h0a1.31,1.31,0,0,0-.5.09,1.05,1.05,0,0,0-.39.27,1,1,0,0,0-.25.44,2,2,0,0,0-.09.63v1.37h-.84v-3.6h.84v.81a1.55,1.55,0,0,1,.48-.66,1.14,1.14,0,0,1,.79-.22Z" transform="translate(-701.04 -229.65)"/></g><g class="cls-11"><path class="cls-10" d="M774.72,231.52a1,1,0,0,0-.34-.23.85.85,0,0,0-.39-.08,1.09,1.09,0,0,0-.4.07,1.23,1.23,0,0,0-.33.23,1.14,1.14,0,0,0-.22.37,1.23,1.23,0,0,0-.08.49,1.27,1.27,0,0,0,.08.48,1.09,1.09,0,0,0,.22.36,1,1,0,0,0,.33.23.93.93,0,0,0,.4.09.86.86,0,0,0,.39-.09,1,1,0,0,0,.34-.23,1.37,1.37,0,0,0,.23-.37,1.4,1.4,0,0,0,.08-.47,1.42,1.42,0,0,0-.08-.48A1.54,1.54,0,0,0,774.72,231.52Z" transform="translate(-701.04 -229.65)"/><path class="cls-10" d="M779.08,231.44a1,1,0,0,0-.28-.2.87.87,0,0,0-.37-.07.82.82,0,0,0-.63.26,1.22,1.22,0,0,0-.3.68h1.85a1.18,1.18,0,0,0-.09-.37A1.49,1.49,0,0,0,779.08,231.44Z" transform="translate(-701.04 -229.65)"/><path class="cls-10" d="M766.15,231.44a.79.79,0,0,0-.27-.2.87.87,0,0,0-.37-.07.82.82,0,0,0-.63.26,1.22,1.22,0,0,0-.3.68h1.85a2.22,2.22,0,0,0-.09-.37A1.17,1.17,0,0,0,766.15,231.44Z" transform="translate(-701.04 -229.65)"/><path class="cls-10" d="M759.28,231.52a.86.86,0,0,0-.33-.23.87.87,0,0,0-.4-.08.92.92,0,0,0-.4.08.86.86,0,0,0-.33.23,1.28,1.28,0,0,0-.23.37,1.21,1.21,0,0,0-.09.48,1.19,1.19,0,0,0,.09.47,1.16,1.16,0,0,0,.23.37.86.86,0,0,0,.33.23.93.93,0,0,0,.4.09.87.87,0,0,0,.4-.09.86.86,0,0,0,.33-.23,1.09,1.09,0,0,0,.22-.36,1.27,1.27,0,0,0,.08-.48,1.21,1.21,0,0,0-.08-.48A1,1,0,0,0,759.28,231.52Z" transform="translate(-701.04 -229.65)"/><path class="cls-10" d="M783.41,231.52a1,1,0,0,0-.33-.23.92.92,0,0,0-.4-.08,1.09,1.09,0,0,0-.4.07,1.23,1.23,0,0,0-.33.23,1.14,1.14,0,0,0-.22.37,1.44,1.44,0,0,0-.08.49,1.51,1.51,0,0,0,.08.48,1.09,1.09,0,0,0,.22.36,1,1,0,0,0,.33.23.93.93,0,0,0,.8,0,1,1,0,0,0,.33-.23,1.37,1.37,0,0,0,.23-.37,1.4,1.4,0,0,0,.08-.47,1.42,1.42,0,0,0-.08-.48A1.54,1.54,0,0,0,783.41,231.52Z" transform="translate(-701.04 -229.65)"/><path class="cls-10" d="M788.07,231.56a.94.94,0,0,0-.34-.25,1,1,0,0,0-.45-.1.92.92,0,0,0-.44.1,1,1,0,0,0-.34.24,1.07,1.07,0,0,0-.22.37,1.33,1.33,0,0,0-.07.45,1.12,1.12,0,0,0,.08.45,1.14,1.14,0,0,0,.22.37,1.07,1.07,0,0,0,.35.25,1,1,0,0,0,.44.09,1.13,1.13,0,0,0,.45-.09,1.09,1.09,0,0,0,.56-.61,1.39,1.39,0,0,0,0-.9A1,1,0,0,0,788.07,231.56Z" transform="translate(-701.04 -229.65)"/><path class="cls-10" d="M784.54,229.65v4.52h-.83v-.6a1.72,1.72,0,0,1-.49.48,1.3,1.3,0,0,1-.73.19,1.63,1.63,0,0,1-.62-.12,1.47,1.47,0,0,1-.53-.36,1.87,1.87,0,0,1-.38-.59,2.24,2.24,0,0,1-.14-.8,2.2,2.2,0,0,1,.14-.8,1.85,1.85,0,0,1,.37-.59,1.47,1.47,0,0,1,.53-.36,1.55,1.55,0,0,1,.63-.13,1.36,1.36,0,0,1,.73.19,1.93,1.93,0,0,1,.49.45v-1.48h-7.86v4.52H775v-.6a1.86,1.86,0,0,1-.49.48,1.3,1.3,0,0,1-.73.19,1.63,1.63,0,0,1-.62-.12,1.6,1.6,0,0,1-.54-.36,2,2,0,0,1-.37-.59,2.24,2.24,0,0,1-.14-.8,2,2,0,0,1,.14-.8,1.69,1.69,0,0,1,.37-.59,1.47,1.47,0,0,1,.53-.36,1.51,1.51,0,0,1,.63-.13,1.36,1.36,0,0,1,.73.19,1.93,1.93,0,0,1,.49.45v-1.48H749.27v.5h-2.7v1.23H749v.76h-2.4v1.27h2.74v.76h-3.57v-4.52h-3.57v6.48h53.5v-6.48Zm-28.84,4.52h-.83v-2a1,1,0,0,0-.19-.66.67.67,0,0,0-.54-.22.72.72,0,0,0-.55.23.89.89,0,0,0-.22.66v2h-.83v-2a1,1,0,0,0-.19-.65.67.67,0,0,0-.54-.22.69.69,0,0,0-.55.24,1,1,0,0,0-.21.66v2h-.84v-3.6h.84v.55l.19-.24a1.45,1.45,0,0,1,.23-.19,1.4,1.4,0,0,1,.3-.15,1.44,1.44,0,0,1,.37,0,1.16,1.16,0,0,1,.66.18,1.13,1.13,0,0,1,.41.46,1.89,1.89,0,0,1,.52-.46,1.34,1.34,0,0,1,.71-.18,1.19,1.19,0,0,1,.92.36,1.41,1.41,0,0,1,.34,1Zm4.58-1a1.85,1.85,0,0,1-.37.59,1.6,1.6,0,0,1-.54.36,1.72,1.72,0,0,1-.63.12,1.28,1.28,0,0,1-.73-.19,1.74,1.74,0,0,1-.49-.44v1.65h-.83v-4.69h.83v.6a1.72,1.72,0,0,1,.49-.48,1.28,1.28,0,0,1,.73-.2,1.5,1.5,0,0,1,.62.13,1.56,1.56,0,0,1,.53.36,1.87,1.87,0,0,1,.38.59,2.2,2.2,0,0,1,.14.8A2.24,2.24,0,0,1,760.28,233.17Zm3.09-1.8h0a1.31,1.31,0,0,0-.5.09,1.05,1.05,0,0,0-.39.27,1.18,1.18,0,0,0-.25.44,2,2,0,0,0-.09.63v1.37h-.83v-3.6h.83v.81a1.61,1.61,0,0,1,.48-.66,1.21,1.21,0,0,1,.79-.22Zm3.88,1.18a.37.37,0,0,0,0,.11h-2.65a1.11,1.11,0,0,0,.35.68,1,1,0,0,0,.69.24,1.25,1.25,0,0,0,.53-.11,1.82,1.82,0,0,0,.44-.32l.49.43a2.28,2.28,0,0,1-.62.49,1.91,1.91,0,0,1-.86.18,1.88,1.88,0,0,1-.72-.13,1.84,1.84,0,0,1-.59-.39,1.6,1.6,0,0,1-.39-.59,1.87,1.87,0,0,1-.15-.76,2.15,2.15,0,0,1,.13-.73,1.85,1.85,0,0,1,.92-1,1.82,1.82,0,0,1,1.47,0,1.71,1.71,0,0,1,.54.42,1.92,1.92,0,0,1,.32.62,2.67,2.67,0,0,1,.11.75Zm4.07,1.62h-.84v-2a.92.92,0,0,0-.2-.65.71.71,0,0,0-.56-.23.78.78,0,0,0-.58.23.93.93,0,0,0-.23.66v2h-.83v-3.6h.83v.56a2.31,2.31,0,0,1,.2-.24,1.16,1.16,0,0,1,.24-.2,1.77,1.77,0,0,1,.31-.15,1.46,1.46,0,0,1,.38,0,1.18,1.18,0,0,1,.94.38,1.47,1.47,0,0,1,.34,1Zm8.85-1.62s0,.07,0,.11h-2.65a1.08,1.08,0,0,0,.36.68,1,1,0,0,0,.68.24,1.25,1.25,0,0,0,.53-.11,1.82,1.82,0,0,0,.44-.32l.49.43a2.28,2.28,0,0,1-.62.49,2.1,2.1,0,0,1-1.58.05,1.84,1.84,0,0,1-.59-.39,1.6,1.6,0,0,1-.39-.59,1.87,1.87,0,0,1-.15-.76,2.15,2.15,0,0,1,.13-.73,1.84,1.84,0,0,1,.37-.6,1.76,1.76,0,0,1,.56-.41,1.8,1.8,0,0,1,1.46,0,1.71,1.71,0,0,1,.54.42,1.92,1.92,0,0,1,.32.62,2.67,2.67,0,0,1,.11.75Zm8.9.55a1.91,1.91,0,0,1-.4.6,2,2,0,0,1-.61.4,2,2,0,0,1-.77.15,1.87,1.87,0,0,1-.76-.15,1.7,1.7,0,0,1-.61-.4,2,2,0,0,1-.4-.59,1.79,1.79,0,0,1-.14-.73,2,2,0,0,1,.14-.73,2,2,0,0,1,1-1,2.05,2.05,0,0,1,1.54,0,2.08,2.08,0,0,1,.61.4,1.73,1.73,0,0,1,.39.6,1.85,1.85,0,0,1,0,1.46Zm3.09-1.73h0a1.35,1.35,0,0,0-.5.09,1.05,1.05,0,0,0-.39.27,1.18,1.18,0,0,0-.25.44,2,2,0,0,0-.09.63v1.37h-.83v-3.6h.83v.81a1.61,1.61,0,0,1,.48-.66,1.21,1.21,0,0,1,.79-.22Z" transform="translate(-701.04 -229.65)"/></g><g class="cls-11"><path class="cls-10" d="M835.24,231.52a1,1,0,0,0-.33-.23.92.92,0,0,0-.4-.08,1.09,1.09,0,0,0-.4.07,1.23,1.23,0,0,0-.33.23,1.14,1.14,0,0,0-.22.37,1.44,1.44,0,0,0-.08.49,1.51,1.51,0,0,0,.08.48,1.09,1.09,0,0,0,.22.36,1,1,0,0,0,.33.23.93.93,0,0,0,.8,0,1,1,0,0,0,.33-.23,1.37,1.37,0,0,0,.23-.37,1.4,1.4,0,0,0,.08-.47,1.42,1.42,0,0,0-.08-.48A1.54,1.54,0,0,0,835.24,231.52Z" transform="translate(-701.04 -229.65)"/><path class="cls-10" d="M839.6,231.44a1,1,0,0,0-.28-.2.86.86,0,0,0-.36-.07.79.79,0,0,0-.63.26,1.16,1.16,0,0,0-.31.68h1.85a1.18,1.18,0,0,0-.09-.37A.92.92,0,0,0,839.6,231.44Z" transform="translate(-701.04 -229.65)"/><path class="cls-10" d="M826.68,231.44a1,1,0,0,0-.28-.2.86.86,0,0,0-.36-.07.83.83,0,0,0-.64.26,1.22,1.22,0,0,0-.3.68H827a1.18,1.18,0,0,0-.09-.37A1.14,1.14,0,0,0,826.68,231.44Z" transform="translate(-701.04 -229.65)"/><path class="cls-10" d="M819.8,231.52a.9.9,0,0,0-.32-.23.92.92,0,0,0-.4-.08,1,1,0,0,0-.41.08.94.94,0,0,0-.33.23,1.28,1.28,0,0,0-.23.37,1.21,1.21,0,0,0-.08.48,1.19,1.19,0,0,0,.08.47,1.16,1.16,0,0,0,.23.37.94.94,0,0,0,.33.23,1,1,0,0,0,.41.09.93.93,0,0,0,.4-.09.9.9,0,0,0,.32-.23,1,1,0,0,0,.22-.36,1.28,1.28,0,0,0,.09-.48,1.21,1.21,0,0,0-.09-.48A.91.91,0,0,0,819.8,231.52Z" transform="translate(-701.04 -229.65)"/><path class="cls-10" d="M843.93,231.52a.94.94,0,0,0-.33-.23.92.92,0,0,0-.4-.08,1,1,0,0,0-.39.07,1,1,0,0,0-.33.23,1.16,1.16,0,0,0-.23.37,1.44,1.44,0,0,0-.08.49,1.51,1.51,0,0,0,.08.48,1.11,1.11,0,0,0,.23.36,1.06,1.06,0,0,0,.72.32,1.05,1.05,0,0,0,.73-.32,1.16,1.16,0,0,0,.23-.37,1.19,1.19,0,0,0,.08-.47,1.21,1.21,0,0,0-.08-.48A1.28,1.28,0,0,0,843.93,231.52Z" transform="translate(-701.04 -229.65)"/><path class="cls-10" d="M848.59,231.56a.94.94,0,0,0-.34-.25.92.92,0,0,0-.44-.1.93.93,0,0,0-.45.1,1,1,0,0,0-.34.24,1.07,1.07,0,0,0-.22.37,1.33,1.33,0,0,0-.07.45,1.12,1.12,0,0,0,.08.45,1,1,0,0,0,.23.37.94.94,0,0,0,.34.25,1,1,0,0,0,.44.09,1.06,1.06,0,0,0,.45-.09,1.09,1.09,0,0,0,.56-.61,1.33,1.33,0,0,0,.07-.45,1.12,1.12,0,0,0-.08-.45A1,1,0,0,0,848.59,231.56Z" transform="translate(-701.04 -229.65)"/><path class="cls-10" d="M845.07,229.65v4.52h-.84v-.6a1.72,1.72,0,0,1-.49.48,1.3,1.3,0,0,1-.73.19,1.67,1.67,0,0,1-.62-.12,1.47,1.47,0,0,1-.53-.36,1.87,1.87,0,0,1-.38-.59,2.24,2.24,0,0,1-.14-.8,2.2,2.2,0,0,1,.14-.8,1.85,1.85,0,0,1,.37-.59,1.69,1.69,0,0,1,1.16-.49,1.36,1.36,0,0,1,.73.19,1.93,1.93,0,0,1,.49.45v-1.48h-7.86v4.52h-.83v-.6a1.72,1.72,0,0,1-.49.48,1.3,1.3,0,0,1-.73.19,1.63,1.63,0,0,1-.62-.12,1.47,1.47,0,0,1-.53-.36,1.87,1.87,0,0,1-.38-.59,2.24,2.24,0,0,1-.14-.8,2.2,2.2,0,0,1,.14-.8,1.85,1.85,0,0,1,.37-.59,1.47,1.47,0,0,1,.53-.36,1.55,1.55,0,0,1,.63-.13,1.36,1.36,0,0,1,.73.19,1.93,1.93,0,0,1,.49.45v-1.48H809.79v.5h-2.7v1.23h2.4v.76h-2.4v1.27h2.74v.76h-3.57v-4.52h-3.57v6.48h53.5v-6.48Zm-28.85,4.52h-.83v-2a1,1,0,0,0-.19-.66.67.67,0,0,0-.54-.22.73.73,0,0,0-.55.23.94.94,0,0,0-.22.66v2h-.83v-2a1,1,0,0,0-.19-.65.64.64,0,0,0-.53-.22.7.7,0,0,0-.56.24,1,1,0,0,0-.21.66v2h-.83v-3.6h.83v.55l.19-.24a2.11,2.11,0,0,1,.23-.19,1.4,1.4,0,0,1,.3-.15,1.52,1.52,0,0,1,.38,0,1.13,1.13,0,0,1,.65.18,1.24,1.24,0,0,1,.42.46,1.72,1.72,0,0,1,.51-.46,1.36,1.36,0,0,1,.71-.18,1.23,1.23,0,0,1,.93.36,1.46,1.46,0,0,1,.33,1Zm4.58-1a1.85,1.85,0,0,1-.37.59,1.6,1.6,0,0,1-.54.36,1.68,1.68,0,0,1-.63.12,1.28,1.28,0,0,1-.73-.19,1.74,1.74,0,0,1-.49-.44v1.65h-.83v-4.69h.83v.6a1.72,1.72,0,0,1,.49-.48,1.28,1.28,0,0,1,.73-.2,1.5,1.5,0,0,1,.62.13,1.47,1.47,0,0,1,.53.36,1.87,1.87,0,0,1,.38.59,2.2,2.2,0,0,1,.14.8A2,2,0,0,1,820.8,233.17Zm3.1-1.8h0a1.35,1.35,0,0,0-.5.09,1.05,1.05,0,0,0-.39.27,1.18,1.18,0,0,0-.25.44,2,2,0,0,0-.09.63v1.37h-.83v-3.6h.83v.81a1.71,1.71,0,0,1,.48-.66,1.22,1.22,0,0,1,.8-.22Zm3.87,1.18s0,.07,0,.11h-2.65a1.08,1.08,0,0,0,.36.68,1,1,0,0,0,.68.24,1.25,1.25,0,0,0,.53-.11,1.82,1.82,0,0,0,.44-.32l.49.43a2.28,2.28,0,0,1-.62.49,2.1,2.1,0,0,1-1.58.05,1.84,1.84,0,0,1-.59-.39,1.6,1.6,0,0,1-.39-.59,1.87,1.87,0,0,1-.14-.76,2.15,2.15,0,0,1,.12-.73,1.84,1.84,0,0,1,.37-.6,1.76,1.76,0,0,1,.56-.41,1.8,1.8,0,0,1,1.46,0,1.51,1.51,0,0,1,.54.42,1.92,1.92,0,0,1,.32.62,2.35,2.35,0,0,1,.11.75Zm4.07,1.62H831v-2a1,1,0,0,0-.2-.65.75.75,0,0,0-.57-.23.78.78,0,0,0-.58.23.92.92,0,0,0-.22.66v2h-.84v-3.6h.84v.56a2.23,2.23,0,0,1,.19-.24,1.16,1.16,0,0,1,.24-.2,1.77,1.77,0,0,1,.31-.15,1.46,1.46,0,0,1,.38,0,1.18,1.18,0,0,1,.94.38,1.42,1.42,0,0,1,.34,1Zm8.85-1.62s0,.07,0,.11H838a1.08,1.08,0,0,0,.36.68,1,1,0,0,0,.68.24,1.25,1.25,0,0,0,.53-.11,1.82,1.82,0,0,0,.44-.32l.49.43a2.14,2.14,0,0,1-.62.49,1.87,1.87,0,0,1-.85.18,1.93,1.93,0,0,1-.73-.13,1.84,1.84,0,0,1-.59-.39,1.9,1.9,0,0,1-.39-.59,1.87,1.87,0,0,1-.14-.76,1.93,1.93,0,0,1,.13-.73,1.66,1.66,0,0,1,.36-.6,1.76,1.76,0,0,1,.56-.41,1.8,1.8,0,0,1,1.46,0,1.51,1.51,0,0,1,.54.42,1.92,1.92,0,0,1,.32.62,2.35,2.35,0,0,1,.11.75Zm8.9.55a1.91,1.91,0,0,1-.4.6,1.85,1.85,0,0,1-.61.4,2,2,0,0,1-.77.15,1.91,1.91,0,0,1-.76-.15,1.7,1.7,0,0,1-.61-.4,1.91,1.91,0,0,1-.4-2,2,2,0,0,1,1-1,2,2,0,0,1,.77-.15,1.92,1.92,0,0,1,.77.15,2,2,0,0,1,.61.4,1.91,1.91,0,0,1,.4.6,2,2,0,0,1,.14.73A1.8,1.8,0,0,1,849.59,233.1Zm3.1-1.73h-.05a1.35,1.35,0,0,0-.5.09,1.05,1.05,0,0,0-.39.27,1.18,1.18,0,0,0-.25.44,2,2,0,0,0-.09.63v1.37h-.83v-3.6h.83v.81a1.64,1.64,0,0,1,.49-.66,1.18,1.18,0,0,1,.79-.22Z" transform="translate(-701.04 -229.65)"/></g><g class="cls-11"><path class="cls-10" d="M895.76,231.52a.94.94,0,0,0-.33-.23.92.92,0,0,0-.4-.08,1,1,0,0,0-.39.07,1,1,0,0,0-.33.23,1.16,1.16,0,0,0-.23.37,1.44,1.44,0,0,0-.08.49,1.51,1.51,0,0,0,.08.48,1.11,1.11,0,0,0,.23.36,1.06,1.06,0,0,0,.72.32,1.05,1.05,0,0,0,.73-.32,1.16,1.16,0,0,0,.23-.37,1.19,1.19,0,0,0,.08-.47,1.21,1.21,0,0,0-.08-.48A1.28,1.28,0,0,0,895.76,231.52Z" transform="translate(-701.04 -229.65)"/><path class="cls-10" d="M900.12,231.44a1,1,0,0,0-.28-.2.83.83,0,0,0-.36-.07.79.79,0,0,0-.63.26,1.16,1.16,0,0,0-.31.68h1.85a1.18,1.18,0,0,0-.09-.37A.92.92,0,0,0,900.12,231.44Z" transform="translate(-701.04 -229.65)"/><path class="cls-10" d="M887.2,231.44a1,1,0,0,0-.28-.2.86.86,0,0,0-.36-.07.79.79,0,0,0-.63.26,1.16,1.16,0,0,0-.31.68h1.85a1.18,1.18,0,0,0-.09-.37A.92.92,0,0,0,887.2,231.44Z" transform="translate(-701.04 -229.65)"/><path class="cls-10" d="M880.32,231.52a.9.9,0,0,0-.32-.23.92.92,0,0,0-.4-.08.9.9,0,0,0-.4.08,1,1,0,0,0-.34.23,1.54,1.54,0,0,0-.23.37,1.42,1.42,0,0,0-.08.48,1.4,1.4,0,0,0,.08.47,1.37,1.37,0,0,0,.23.37,1,1,0,0,0,.34.23.9.9,0,0,0,.4.09.93.93,0,0,0,.4-.09.9.9,0,0,0,.32-.23,1.11,1.11,0,0,0,.23-.36,1.51,1.51,0,0,0,.08-.48,1.42,1.42,0,0,0-.08-.48A1.06,1.06,0,0,0,880.32,231.52Z" transform="translate(-701.04 -229.65)"/><path class="cls-10" d="M898.55,232.66a1.08,1.08,0,0,0,.36.68,1,1,0,0,0,.68.24,1.22,1.22,0,0,0,.53-.11,2.08,2.08,0,0,0,.45-.32l.47.42h0a2.06,2.06,0,0,1-.61.48,1.87,1.87,0,0,1-.85.18,1.79,1.79,0,0,1-1.32-.52,1.9,1.9,0,0,1-.39-.59,2.06,2.06,0,0,1-.14-.76,1.93,1.93,0,0,1,.13-.73,1.81,1.81,0,0,1,.36-.6,1.88,1.88,0,0,1,.56-.41,1.64,1.64,0,0,1,.71-.15,1.6,1.6,0,0,1,.75.16,1.51,1.51,0,0,1,.54.42,1.54,1.54,0,0,1,.26.47v-1.89H896.9v4.52h-.84v-.6a1.72,1.72,0,0,1-.49.48,1.3,1.3,0,0,1-.73.19,1.67,1.67,0,0,1-.62-.12,1.47,1.47,0,0,1-.53-.36,1.87,1.87,0,0,1-.38-.59,2.24,2.24,0,0,1-.14-.8,2.2,2.2,0,0,1,.14-.8,1.85,1.85,0,0,1,.37-.59,1.69,1.69,0,0,1,1.16-.49,1.36,1.36,0,0,1,.73.19,1.93,1.93,0,0,1,.49.45v-1.48H870.32v.5h-2.71v1.23H870v.76h-2.4v1.27h2.74v.76h-3.57v-4.52h-3.56v6.48h37.85v-3.47Zm-21.81,1.51h-.83v-2a1,1,0,0,0-.19-.66.67.67,0,0,0-.54-.22.73.73,0,0,0-.55.23.93.93,0,0,0-.21.66v2h-.84v-2a1,1,0,0,0-.19-.65.64.64,0,0,0-.53-.22.71.71,0,0,0-.56.24,1,1,0,0,0-.21.66v2h-.83v-3.6h.83v.55l.19-.24a1.55,1.55,0,0,1,.24-.19,1.05,1.05,0,0,1,.3-.15,1.38,1.38,0,0,1,.37,0,1.16,1.16,0,0,1,.66.18,1.21,1.21,0,0,1,.41.46,1.86,1.86,0,0,1,.51-.46,1.36,1.36,0,0,1,.71-.18,1.2,1.2,0,0,1,.93.36,1.46,1.46,0,0,1,.33,1Zm4.58-1a1.69,1.69,0,0,1-.37.59,1.6,1.6,0,0,1-.54.36,1.67,1.67,0,0,1-.62.12,1.29,1.29,0,0,1-.74-.19,1.74,1.74,0,0,1-.49-.44v1.65h-.83v-4.69h.83v.6a1.86,1.86,0,0,1,.49-.48,1.3,1.3,0,0,1,.73-.2,1.5,1.5,0,0,1,.62.13,1.47,1.47,0,0,1,.53.36,1.71,1.71,0,0,1,.38.59,2,2,0,0,1,.14.8A2,2,0,0,1,881.32,233.17Zm3.1-1.8h0a1.35,1.35,0,0,0-.5.09,1.05,1.05,0,0,0-.39.27,1.18,1.18,0,0,0-.25.44,2,2,0,0,0-.09.63v1.37h-.83v-3.6h.83v.81a1.73,1.73,0,0,1,.49-.66,1.19,1.19,0,0,1,.79-.22Zm3.87,1.18s0,.07,0,.11h-2.65a1.08,1.08,0,0,0,.36.68,1,1,0,0,0,.68.24,1.25,1.25,0,0,0,.53-.11,2.08,2.08,0,0,0,.45-.32l.48.43a2.14,2.14,0,0,1-.62.49,1.87,1.87,0,0,1-.85.18,1.93,1.93,0,0,1-.73-.13,1.84,1.84,0,0,1-.59-.39,1.9,1.9,0,0,1-.39-.59,1.87,1.87,0,0,1-.14-.76,1.93,1.93,0,0,1,.13-.73,1.66,1.66,0,0,1,.36-.6,1.76,1.76,0,0,1,.56-.41,1.64,1.64,0,0,1,.71-.15,1.62,1.62,0,0,1,.75.16,1.51,1.51,0,0,1,.54.42,1.92,1.92,0,0,1,.32.62,2.35,2.35,0,0,1,.11.75Zm4.07,1.62h-.83v-2a1,1,0,0,0-.2-.65.73.73,0,0,0-.57-.23.78.78,0,0,0-.58.23.92.92,0,0,0-.22.66v2h-.83v-3.6H890v.56a2.23,2.23,0,0,1,.19-.24,1,1,0,0,1,.25-.2,1.4,1.4,0,0,1,.3-.15,1.46,1.46,0,0,1,.38,0,1.22,1.22,0,0,1,.95.38,1.46,1.46,0,0,1,.33,1Z" transform="translate(-701.04 -229.65)"/></g><path class="cls-12" d="M704.58,280.83c-.45.45-1.7.4-1.7.4a2.17,2.17,0,0,1-1.84-.82V270.33h1.77l0,8.28a.66.66,0,0,0,.63.67h0a1.37,1.37,0,0,0,.78-.21Z" transform="translate(-701.04 -229.65)"/><rect class="cls-12" x="4.14" y="44.37" width="2.18" height="7.01"/><circle class="cls-12" cx="5.22" cy="42.34" r="1.26"/><path class="cls-12" d="M715.12,276.05c-.06-.49-.48-2.11-2.89-2.18h-.18c-3,0-3.26,2.18-3.26,2.18l2.07.46a1.09,1.09,0,0,1,1.18-.92h.19a.87.87,0,0,1,.67.46,1.39,1.39,0,0,1,.16.68h-2.35a2.26,2.26,0,0,0-2.33,2.24c0,1.47,1.09,2.28,2.6,2.28a2.54,2.54,0,0,0,2-.71V281h2.12v-4.84A.72.72,0,0,0,715.12,276.05Zm-3.1,3.43a2.8,2.8,0,0,1-.67.08.71.71,0,0,1-.77-.76.63.63,0,0,1,.45-.57,1.43,1.43,0,0,1,.5-.09h1.52A1.37,1.37,0,0,1,712,279.48Z" transform="translate(-701.04 -229.65)"/><path class="cls-12" d="M719.69,279.28a1.73,1.73,0,1,1,1.69-1.74v-3a3.43,3.43,0,0,0-2.09-.72,3.7,3.7,0,0,0,0,7.38,3.43,3.43,0,0,0,2.09-.72v-3A1.71,1.71,0,0,1,719.69,279.28Z" transform="translate(-701.04 -229.65)"/><polygon class="cls-12" points="20.34 50.87 20.34 51.38 22.56 51.38 22.56 40.67 20.34 40.67 20.34 44.93 20.34 50.87"/><path class="cls-12" d="M731.71,276.05a3.8,3.8,0,0,0-2.31-2,3.74,3.74,0,0,0-1.21-.19h-.25a2.2,2.2,0,0,0-.36,0,3.2,3.2,0,0,0-.82.22,3.74,3.74,0,0,0-2.1,1.92,3.61,3.61,0,0,0-.33,1.5,3.86,3.86,0,0,0,7.71,0A3.61,3.61,0,0,0,731.71,276.05Zm-3.52,3.29a1.78,1.78,0,0,1-1-3.29,1.77,1.77,0,0,1,1.91,0,1.76,1.76,0,0,1,.83,1.5A1.79,1.79,0,0,1,728.19,279.34Z" transform="translate(-701.04 -229.65)"/><g class="cls-11"><path class="cls-10" d="M714.2,286.61a1.16,1.16,0,0,0-.34-.24,1,1,0,0,0-.39-.08,1.1,1.1,0,0,0-.4.08,1,1,0,0,0-.33.23,1.09,1.09,0,0,0-.22.36,1.3,1.3,0,0,0-.09.49,1.21,1.21,0,0,0,.09.48,1,1,0,0,0,.22.37,1.23,1.23,0,0,0,.33.23,1.1,1.1,0,0,0,.4.08,1,1,0,0,0,.39-.08,1,1,0,0,0,.34-.24,1.09,1.09,0,0,0,.22-.36,1.32,1.32,0,0,0,0-1A1.09,1.09,0,0,0,714.2,286.61Z" transform="translate(-701.04 -229.65)"/><path class="cls-10" d="M718.55,286.53a.76.76,0,0,0-.27-.2.87.87,0,0,0-.37-.08.86.86,0,0,0-.63.26,1.21,1.21,0,0,0-.3.69h1.85a2,2,0,0,0-.09-.37A.91.91,0,0,0,718.55,286.53Z" transform="translate(-701.04 -229.65)"/><path class="cls-10" d="M705.63,286.53a.76.76,0,0,0-.27-.2.87.87,0,0,0-.37-.08.86.86,0,0,0-.63.26,1.15,1.15,0,0,0-.3.69h1.85a2,2,0,0,0-.09-.37A.91.91,0,0,0,705.63,286.53Z" transform="translate(-701.04 -229.65)"/><path class="cls-10" d="M722.89,286.61a1.16,1.16,0,0,0-.34-.24,1,1,0,0,0-.39-.08,1.1,1.1,0,0,0-.4.08,1,1,0,0,0-.33.23,1.09,1.09,0,0,0-.22.36,1.29,1.29,0,0,0-.08.49,1.21,1.21,0,0,0,.08.48,1,1,0,0,0,.22.37,1.23,1.23,0,0,0,.33.23,1.1,1.1,0,0,0,.4.08,1,1,0,0,0,.73-.32,1.31,1.31,0,0,0,.23-.36,1.48,1.48,0,0,0,0-1A1.31,1.31,0,0,0,722.89,286.61Z" transform="translate(-701.04 -229.65)"/><path class="cls-10" d="M727.55,286.64a1.2,1.2,0,0,0-.34-.25,1.13,1.13,0,0,0-.45-.09,1,1,0,0,0-.44.09.86.86,0,0,0-.34.25,1,1,0,0,0-.22.36,1.31,1.31,0,0,0,0,.9,1.21,1.21,0,0,0,.23.38,1.3,1.3,0,0,0,.35.25,1,1,0,0,0,.44.09,1.13,1.13,0,0,0,.45-.09,1.42,1.42,0,0,0,.34-.25,1.25,1.25,0,0,0,.22-.37,1.63,1.63,0,0,0,.07-.45,1.42,1.42,0,0,0-.08-.45A1.28,1.28,0,0,0,727.55,286.64Z" transform="translate(-701.04 -229.65)"/><path class="cls-10" d="M701,283v2.68h.54v.81a1.52,1.52,0,0,1,.48-.65,1.2,1.2,0,0,1,.79-.23v.88h0a1.31,1.31,0,0,0-.5.09,1,1,0,0,0-.39.26,1.1,1.1,0,0,0-.25.45,2,2,0,0,0-.09.62v1.37H701v2h34.11V283Zm5.68,4.66a.49.49,0,0,1,0,.12h-2.64a1.14,1.14,0,0,0,.35.68,1.07,1.07,0,0,0,.68.23,1.27,1.27,0,0,0,.54-.11,1.75,1.75,0,0,0,.44-.32l.48.43a1.81,1.81,0,0,1-.61.49,1.91,1.91,0,0,1-.86.19,2,2,0,0,1-.73-.14,1.77,1.77,0,0,1-.58-.38,1.69,1.69,0,0,1-.39-.59,1.92,1.92,0,0,1-.15-.77,2.2,2.2,0,0,1,.13-.73,1.84,1.84,0,0,1,.37-.6,1.69,1.69,0,0,1,.55-.4,1.67,1.67,0,0,1,.71-.15,1.81,1.81,0,0,1,.76.15,1.74,1.74,0,0,1,.86,1,2.55,2.55,0,0,1,.11.74A.41.41,0,0,1,706.72,287.63Zm4.07,1.62H710v-2a.92.92,0,0,0-.2-.65.71.71,0,0,0-.56-.23.74.74,0,0,0-.58.24.91.91,0,0,0-.23.66v2h-.83v-3.6h.83v.57a2.43,2.43,0,0,1,.2-.25,1.59,1.59,0,0,1,.24-.2,1.24,1.24,0,0,1,.69-.19,1.19,1.19,0,0,1,.94.37,1.48,1.48,0,0,1,.33,1Zm4.54,0h-.83v-.6a1.86,1.86,0,0,1-.49.48,1.34,1.34,0,0,1-.74.2,1.67,1.67,0,0,1-.62-.12,1.75,1.75,0,0,1-.53-.37,1.85,1.85,0,0,1-.37-.59,2,2,0,0,1-.14-.8,2,2,0,0,1,.14-.79,1.61,1.61,0,0,1,.37-.59,1.38,1.38,0,0,1,.53-.37,1.67,1.67,0,0,1,.62-.12,1.31,1.31,0,0,1,.74.19,2.08,2.08,0,0,1,.49.44v-1.94h.83Zm4.32-1.62a.49.49,0,0,0,0,.12H717a1.14,1.14,0,0,0,.35.68,1.08,1.08,0,0,0,.69.23,1.25,1.25,0,0,0,.53-.11,1.59,1.59,0,0,0,.44-.32l.49.43a2,2,0,0,1-.62.49,1.91,1.91,0,0,1-.86.19,1.89,1.89,0,0,1-.72-.14,1.71,1.71,0,0,1-.59-.38,1.69,1.69,0,0,1-.39-.59,1.92,1.92,0,0,1-.15-.77,2.2,2.2,0,0,1,.13-.73,1.84,1.84,0,0,1,.37-.6,1.69,1.69,0,0,1,.55-.4,1.67,1.67,0,0,1,.71-.15,1.81,1.81,0,0,1,.76.15,1.66,1.66,0,0,1,.86,1,2.55,2.55,0,0,1,.11.74Zm4.37,1.62h-.83v-.6a1.86,1.86,0,0,1-.49.48,1.3,1.3,0,0,1-.73.2,1.63,1.63,0,0,1-.62-.12,1.79,1.79,0,0,1-.54-.37,2,2,0,0,1-.37-.59,2.2,2.2,0,0,1-.14-.8,2,2,0,0,1,.14-.79,1.61,1.61,0,0,1,.37-.59,1.38,1.38,0,0,1,.53-.37,1.68,1.68,0,0,1,.63-.12,1.3,1.3,0,0,1,.73.19,1.9,1.9,0,0,1,.49.44v-1.94H724Zm4.53-1.07a1.91,1.91,0,0,1-.4.6,1.92,1.92,0,0,1-1.38.56,2,2,0,0,1-.77-.15,1.91,1.91,0,0,1-.6-.4,1.75,1.75,0,0,1-.4-.6,1.72,1.72,0,0,1-.15-.72,1.85,1.85,0,0,1,.15-.74,1.91,1.91,0,0,1,.4-.6,2,2,0,0,1,1.38-.55,2.15,2.15,0,0,1,.77.14,1.94,1.94,0,0,1,.6.41,1.87,1.87,0,0,1,.55,1.32A1.77,1.77,0,0,1,728.55,288.18Zm3.09-1.72h0a1.31,1.31,0,0,0-.5.09,1,1,0,0,0-.39.26,1.1,1.1,0,0,0-.25.45,2,2,0,0,0-.09.62v1.37h-.84v-3.6h.84v.81a1.52,1.52,0,0,1,.48-.65,1.2,1.2,0,0,1,.79-.23Z" transform="translate(-701.04 -229.65)"/></g><path class="cls-12" d="M758.84,276.05l-.84-2-.28-.67-.73-1.73h-2.36l0,.07-.83,2-1,2.36L750.68,281h2.56l.64-1.71h3.85l.68,1.71h2.5Zm-4.23,1.25.52-1.25.72-1.72.66,1.72.48,1.25Z" transform="translate(-701.04 -229.65)"/><path class="cls-12" d="M763.33,270.27h-2.27v8.59a2.49,2.49,0,0,0,.27,1.14,2.16,2.16,0,0,0,2.07,1.17s1.25.05,1.7-.4l-.38-1.76a1.37,1.37,0,0,1-.78.21h0a.66.66,0,0,1-.64-.67Z" transform="translate(-701.04 -229.65)"/><rect class="cls-12" x="64.66" y="44.31" width="2.18" height="7.01"/><circle class="cls-12" cx="65.75" cy="42.29" r="1.26"/><path class="cls-12" d="M772.57,273.8c-3,0-3.26,2.19-3.26,2.19l2.07.46a1.09,1.09,0,0,1,1.18-.92c1.08,0,1,1.14,1,1.14h-2.35a2.26,2.26,0,0,0-2.33,2.24c0,1.47,1.09,2.28,2.6,2.28a2.58,2.58,0,0,0,2-.71v.5h2.12v-4.85S775.59,273.8,772.57,273.8Zm0,5.62a2.8,2.8,0,0,1-.67.08.71.71,0,0,1-.77-.76.62.62,0,0,1,.45-.56,1.24,1.24,0,0,1,.5-.1h1.52A1.37,1.37,0,0,1,772.54,279.42Z" transform="translate(-701.04 -229.65)"/><path class="cls-12" d="M780.21,279.22a1.73,1.73,0,1,1,1.69-1.74v-3a3.38,3.38,0,0,0-2.08-.72,3.7,3.7,0,0,0,0,7.39,3.33,3.33,0,0,0,2.08-.73v-3A1.71,1.71,0,0,1,780.21,279.22Z" transform="translate(-701.04 -229.65)"/><polygon class="cls-12" points="80.86 50.81 80.86 51.32 83.08 51.32 83.08 40.62 80.86 40.62 80.86 44.87 80.86 50.81"/><path class="cls-12" d="M788.71,273.8a3.7,3.7,0,1,0,3.86,3.69A3.78,3.78,0,0,0,788.71,273.8Zm0,5.48a1.79,1.79,0,1,1,1.79-1.79A1.79,1.79,0,0,1,788.71,279.28Z" transform="translate(-701.04 -229.65)"/><path class="cls-12" d="M750,277.55a1.88,1.88,0,0,0-.53,1.53.07.07,0,0,1-.07.08h-3.33a.07.07,0,0,1-.07-.08,1.86,1.86,0,0,0-.54-1.53,4.35,4.35,0,0,1-1.64-3.22,3.82,3.82,0,0,1,3.9-4.06h0a3.82,3.82,0,0,1,3.89,4.06A4.31,4.31,0,0,1,750,277.55Z" transform="translate(-701.04 -229.65)"/><rect class="cls-12" x="45.09" y="49.76" width="3.22" height="0.74" rx="0.36"/><rect class="cls-12" x="45.85" y="50.66" width="1.7" height="0.74" rx="0.36"/><g class="cls-11"><path class="cls-10" d="M774.72,286.55a1.16,1.16,0,0,0-.34-.24,1,1,0,0,0-.39-.08,1.1,1.1,0,0,0-.4.08,1,1,0,0,0-.33.23,1.09,1.09,0,0,0-.22.36,1.29,1.29,0,0,0-.08.49,1.21,1.21,0,0,0,.08.48,1,1,0,0,0,.55.6,1.1,1.1,0,0,0,.4.08,1,1,0,0,0,.39-.08.88.88,0,0,0,.34-.24,1.31,1.31,0,0,0,.23-.36,1.42,1.42,0,0,0,.08-.48,1.51,1.51,0,0,0-.08-.48A1.31,1.31,0,0,0,774.72,286.55Z" transform="translate(-701.04 -229.65)"/><path class="cls-10" d="M779.08,286.47a.8.8,0,0,0-.28-.2.87.87,0,0,0-.37-.08.86.86,0,0,0-.63.26,1.28,1.28,0,0,0-.3.69h1.85a1.12,1.12,0,0,0-.09-.37A1.09,1.09,0,0,0,779.08,286.47Z" transform="translate(-701.04 -229.65)"/><path class="cls-10" d="M766.15,286.47a.68.68,0,0,0-.27-.2.87.87,0,0,0-.37-.08.86.86,0,0,0-.63.26,1.28,1.28,0,0,0-.3.69h1.85a2,2,0,0,0-.09-.37A.91.91,0,0,0,766.15,286.47Z" transform="translate(-701.04 -229.65)"/><path class="cls-10" d="M759.28,286.55a1,1,0,0,0-.33-.24,1,1,0,0,0-.4-.08,1.1,1.1,0,0,0-.4.08,1,1,0,0,0-.33.24,1.11,1.11,0,0,0-.23.36,1.28,1.28,0,0,0-.09.48,1.21,1.21,0,0,0,.09.48,1.11,1.11,0,0,0,.23.36.78.78,0,0,0,.33.24,1.1,1.1,0,0,0,.4.08,1,1,0,0,0,.4-.08.86.86,0,0,0,.33-.23,1,1,0,0,0,.22-.37,1.21,1.21,0,0,0,.08-.48,1.24,1.24,0,0,0-.08-.48A1.09,1.09,0,0,0,759.28,286.55Z" transform="translate(-701.04 -229.65)"/><path class="cls-10" d="M783.41,286.55a1.27,1.27,0,0,0-.33-.24,1,1,0,0,0-.8,0,1,1,0,0,0-.33.23,1.09,1.09,0,0,0-.22.36,1.53,1.53,0,0,0-.08.49,1.42,1.42,0,0,0,.08.48,1,1,0,0,0,.55.6,1,1,0,0,0,.8,0,.93.93,0,0,0,.33-.24,1.31,1.31,0,0,0,.23-.36,1.42,1.42,0,0,0,.08-.48,1.51,1.51,0,0,0-.08-.48A1.31,1.31,0,0,0,783.41,286.55Z" transform="translate(-701.04 -229.65)"/><path class="cls-10" d="M788.07,286.58a1.07,1.07,0,0,0-.34-.25,1.1,1.1,0,0,0-.45-.09,1,1,0,0,0-.44.09,1.07,1.07,0,0,0-.56.62,1.23,1.23,0,0,0-.07.44,1.21,1.21,0,0,0,.08.46,1,1,0,0,0,.57.62,1,1,0,0,0,.44.09,1.13,1.13,0,0,0,.45-.09,1.07,1.07,0,0,0,.56-.62,1.27,1.27,0,0,0,.07-.44,1.33,1.33,0,0,0-.08-.45A1,1,0,0,0,788.07,286.58Z" transform="translate(-701.04 -229.65)"/><path class="cls-10" d="M742.17,282.91v8.25h53.5v-8.25Zm7.14,6.29h-3.57v-4.78h3.53v.76h-2.7v1.23H749v.75h-2.4v1.28h2.74Zm6.39,0h-.83v-2.05a1,1,0,0,0-.19-.65.67.67,0,0,0-.54-.22.71.71,0,0,0-.55.22.93.93,0,0,0-.22.67v2h-.83v-2.05a1,1,0,0,0-.19-.65.67.67,0,0,0-.54-.22.72.72,0,0,0-.55.23,1,1,0,0,0-.21.66v2h-.84v-3.61h.84v.56a1.55,1.55,0,0,1,.19-.24,1.5,1.5,0,0,1,.23-.2,1,1,0,0,1,.3-.14,1.44,1.44,0,0,1,.37-.05,1.24,1.24,0,0,1,.66.17,1.16,1.16,0,0,1,.41.47,1.93,1.93,0,0,1,.52-.47,1.43,1.43,0,0,1,.71-.17,1.19,1.19,0,0,1,.92.36,1.41,1.41,0,0,1,.34,1Zm4.58-1a1.75,1.75,0,0,1-.37.59,1.63,1.63,0,0,1-.54.37,1.72,1.72,0,0,1-.63.12,1.28,1.28,0,0,1-.73-.19,2.1,2.1,0,0,1-.49-.44v1.65h-.83v-4.7h.83v.6a1.72,1.72,0,0,1,.49-.48,1.28,1.28,0,0,1,.73-.19,1.67,1.67,0,0,1,.62.12,1.59,1.59,0,0,1,.53.37,1.77,1.77,0,0,1,.38.59,2.33,2.33,0,0,1,0,1.59Zm3.09-1.79h0a1.31,1.31,0,0,0-.5.09,1.16,1.16,0,0,0-.39.26,1.22,1.22,0,0,0-.25.45,2,2,0,0,0-.09.62v1.38h-.83v-3.61h.83v.82a1.49,1.49,0,0,1,.48-.66,1.16,1.16,0,0,1,.79-.22Zm3.88,1.17a.49.49,0,0,0,0,.12h-2.65a1.14,1.14,0,0,0,.35.68,1.08,1.08,0,0,0,.69.23,1.12,1.12,0,0,0,.53-.11,1.59,1.59,0,0,0,.44-.32l.49.43a2,2,0,0,1-.62.49,1.79,1.79,0,0,1-.86.19,1.89,1.89,0,0,1-.72-.14,1.81,1.81,0,0,1-.59-.38,1.6,1.6,0,0,1-.39-.59,1.92,1.92,0,0,1-.15-.77,2.2,2.2,0,0,1,.13-.73,2,2,0,0,1,.37-.6,1.81,1.81,0,0,1,.55-.4,1.82,1.82,0,0,1,1.47,0,1.58,1.58,0,0,1,.54.42,1.82,1.82,0,0,1,.32.62,2.6,2.6,0,0,1,.11.74Zm4.07,1.63h-.84v-2.05a.94.94,0,0,0-.2-.65.7.7,0,0,0-.56-.22.75.75,0,0,0-.58.23.93.93,0,0,0-.23.66v2h-.83v-3.61h.83v.57a2.43,2.43,0,0,1,.2-.25,1.59,1.59,0,0,1,.24-.2,1.23,1.23,0,0,1,.31-.14,1.46,1.46,0,0,1,.38-.05,1.18,1.18,0,0,1,.94.37,1.48,1.48,0,0,1,.34,1Zm4.53,0H775v-.6a2,2,0,0,1-.49.47,1.23,1.23,0,0,1-.73.2,1.58,1.58,0,0,1-1.16-.49,1.92,1.92,0,0,1-.37-.59,2.16,2.16,0,0,1-.14-.8,2,2,0,0,1,.14-.79,1.61,1.61,0,0,1,.37-.59,1.5,1.5,0,0,1,.53-.37,1.68,1.68,0,0,1,.63-.12,1.28,1.28,0,0,1,.73.19,2.1,2.1,0,0,1,.49.44v-1.93h.83Zm4.32-1.63s0,.08,0,.12h-2.65a1.1,1.1,0,0,0,.36.68,1,1,0,0,0,.68.23,1.12,1.12,0,0,0,.53-.11,1.59,1.59,0,0,0,.44-.32l.49.43a2,2,0,0,1-.62.49,1.76,1.76,0,0,1-.86.19,1.89,1.89,0,0,1-.72-.14,1.81,1.81,0,0,1-.59-.38,1.6,1.6,0,0,1-.39-.59,1.92,1.92,0,0,1-.15-.77,2.2,2.2,0,0,1,.13-.73,2,2,0,0,1,.37-.6,1.74,1.74,0,0,1,.56-.4,1.8,1.8,0,0,1,1.46,0,1.58,1.58,0,0,1,.54.42,1.82,1.82,0,0,1,.32.62,2.6,2.6,0,0,1,.11.74Zm4.37,1.63h-.83v-.6a1.83,1.83,0,0,1-.49.47,1.23,1.23,0,0,1-.73.2,1.63,1.63,0,0,1-.62-.12,1.5,1.5,0,0,1-.53-.37,1.77,1.77,0,0,1-.38-.59,2.33,2.33,0,0,1,0-1.59,1.75,1.75,0,0,1,.37-.59,1.5,1.5,0,0,1,.53-.37,1.72,1.72,0,0,1,.63-.12,1.28,1.28,0,0,1,.73.19,2.1,2.1,0,0,1,.49.44v-1.93h.83Zm4.53-1.08a1.91,1.91,0,0,1-.4.6,1.92,1.92,0,0,1-1.38.56,1.87,1.87,0,0,1-.76-.15,1.85,1.85,0,0,1-.61-.4,2,2,0,0,1-.4-.59,1.79,1.79,0,0,1-.14-.73,1.94,1.94,0,0,1,.14-.73,2.11,2.11,0,0,1,.41-.61,1.91,1.91,0,0,1,.6-.4,2.05,2.05,0,0,1,1.54,0,1.9,1.9,0,0,1,.61.4,1.79,1.79,0,0,1,.39.59,1.83,1.83,0,0,1,.15.73A1.77,1.77,0,0,1,789.07,288.12Zm3.09-1.72h0a1.35,1.35,0,0,0-.5.09,1.16,1.16,0,0,0-.39.26,1.22,1.22,0,0,0-.25.45,2,2,0,0,0-.09.62v1.38h-.83v-3.61h.83v.82a1.49,1.49,0,0,1,.48-.66,1.16,1.16,0,0,1,.79-.22Z" transform="translate(-701.04 -229.65)"/></g><path class="cls-12" d="M817.51,271.66h-2.36L811.2,281h2.56l.64-1.71h3.86l.68,1.71h2.49Zm-2.38,5.64,1.24-3,1.14,3Z" transform="translate(-701.04 -229.65)"/><path class="cls-12" d="M823.85,270.27h-2.26v8.59a2.48,2.48,0,0,0,.26,1.14,2.16,2.16,0,0,0,2.07,1.17s1.25.05,1.7-.4l-.38-1.76a1.37,1.37,0,0,1-.78.21h0a.66.66,0,0,1-.63-.67Z" transform="translate(-701.04 -229.65)"/><rect class="cls-12" x="125.18" y="44.31" width="2.18" height="7.01"/><circle class="cls-12" cx="126.27" cy="42.29" r="1.26"/><path class="cls-12" d="M833.09,273.8c-3,0-3.25,2.19-3.25,2.19l2.06.46a1.09,1.09,0,0,1,1.18-.92c1.08,0,1,1.14,1,1.14h-2.36a2.26,2.26,0,0,0-2.33,2.24c0,1.47,1.1,2.28,2.6,2.28a2.55,2.55,0,0,0,2.05-.71v.5h2.12v-4.85S836.11,273.8,833.09,273.8Zm0,5.62a3,3,0,0,1-.68.08.71.71,0,0,1-.77-.76.62.62,0,0,1,.45-.56,1.24,1.24,0,0,1,.5-.1h1.52A1.37,1.37,0,0,1,833.07,279.42Z" transform="translate(-701.04 -229.65)"/><path class="cls-12" d="M840.73,279.22a1.73,1.73,0,1,1,1.69-1.74v-3a3.38,3.38,0,0,0-2.08-.72,3.7,3.7,0,0,0,0,7.39,3.33,3.33,0,0,0,2.08-.73v-3A1.71,1.71,0,0,1,840.73,279.22Z" transform="translate(-701.04 -229.65)"/><polygon class="cls-12" points="141.38 50.81 141.38 51.32 143.61 51.32 143.61 40.62 141.38 40.62 141.38 44.87 141.38 50.81"/><path class="cls-12" d="M849.23,273.8a3.7,3.7,0,1,0,3.86,3.69A3.77,3.77,0,0,0,849.23,273.8Zm0,5.48a1.79,1.79,0,1,1,1.79-1.79A1.79,1.79,0,0,1,849.23,279.28Z" transform="translate(-701.04 -229.65)"/><path class="cls-12" d="M810.51,277.55a1.86,1.86,0,0,0-.54,1.53.07.07,0,0,1-.07.08h-3.33a.07.07,0,0,1-.07-.08,1.88,1.88,0,0,0-.53-1.53,4.31,4.31,0,0,1-1.64-3.22,3.82,3.82,0,0,1,3.89-4.06h0a3.83,3.83,0,0,1,3.9,4.06A4.35,4.35,0,0,1,810.51,277.55Z" transform="translate(-701.04 -229.65)"/><rect class="cls-12" x="105.61" y="49.76" width="3.22" height="0.74" rx="0.36"/><rect class="cls-12" x="106.37" y="50.66" width="1.7" height="0.74" rx="0.36"/><g class="cls-11"><path class="cls-10" d="M835.24,286.55a1.27,1.27,0,0,0-.33-.24,1,1,0,0,0-.8,0,1,1,0,0,0-.33.23,1.09,1.09,0,0,0-.22.36,1.53,1.53,0,0,0-.08.49,1.42,1.42,0,0,0,.08.48,1,1,0,0,0,.55.6,1,1,0,0,0,.8,0,.93.93,0,0,0,.33-.24,1.31,1.31,0,0,0,.23-.36,1.42,1.42,0,0,0,.08-.48,1.51,1.51,0,0,0-.08-.48A1.31,1.31,0,0,0,835.24,286.55Z" transform="translate(-701.04 -229.65)"/><path class="cls-10" d="M839.6,286.47a.8.8,0,0,0-.28-.2.86.86,0,0,0-.36-.08.83.83,0,0,0-.63.26,1.22,1.22,0,0,0-.31.69h1.85a1.12,1.12,0,0,0-.09-.37A.75.75,0,0,0,839.6,286.47Z" transform="translate(-701.04 -229.65)"/><path class="cls-10" d="M826.68,286.47a.8.8,0,0,0-.28-.2.89.89,0,0,0-1,.18,1.28,1.28,0,0,0-.3.69H827a1.12,1.12,0,0,0-.09-.37A.89.89,0,0,0,826.68,286.47Z" transform="translate(-701.04 -229.65)"/><path class="cls-10" d="M819.8,286.55a1.08,1.08,0,0,0-.32-.24,1.1,1.1,0,0,0-.4-.08,1.15,1.15,0,0,0-.41.08,1.12,1.12,0,0,0-.56.6,1.27,1.27,0,0,0-.08.48,1.21,1.21,0,0,0,.08.48,1.11,1.11,0,0,0,.23.36.85.85,0,0,0,.33.24,1.15,1.15,0,0,0,.41.08,1.1,1.1,0,0,0,.4-.08.9.9,0,0,0,.32-.23.91.91,0,0,0,.22-.37,1.21,1.21,0,0,0,.09-.48,1.24,1.24,0,0,0-.09-.48A1,1,0,0,0,819.8,286.55Z" transform="translate(-701.04 -229.65)"/><path class="cls-10" d="M843.93,286.55a1.12,1.12,0,0,0-.33-.24,1.1,1.1,0,0,0-.4-.08,1,1,0,0,0-.39.08.86.86,0,0,0-.33.23,1.11,1.11,0,0,0-.23.36,1.53,1.53,0,0,0-.08.49,1.42,1.42,0,0,0,.08.48,1.06,1.06,0,0,0,.23.37.86.86,0,0,0,.33.23,1,1,0,0,0,.39.08,1.1,1.1,0,0,0,.4-.08.85.85,0,0,0,.33-.24,1.11,1.11,0,0,0,.23-.36,1.21,1.21,0,0,0,.08-.48,1.27,1.27,0,0,0-.08-.48A1.11,1.11,0,0,0,843.93,286.55Z" transform="translate(-701.04 -229.65)"/><path class="cls-10" d="M848.59,286.58a1.07,1.07,0,0,0-.34-.25,1,1,0,0,0-.44-.09,1.05,1.05,0,0,0-1,.71,1.23,1.23,0,0,0-.07.44,1.21,1.21,0,0,0,.08.46,1.1,1.1,0,0,0,.23.37,1.07,1.07,0,0,0,.34.25,1,1,0,0,0,.44.09,1.05,1.05,0,0,0,1-.71,1.27,1.27,0,0,0,.07-.44,1.12,1.12,0,0,0-.08-.45A1,1,0,0,0,848.59,286.58Z" transform="translate(-701.04 -229.65)"/><path class="cls-10" d="M802.69,282.91v8.25h53.5v-8.25Zm7.14,6.29h-3.57v-4.78h3.53v.76h-2.7v1.23h2.4v.75h-2.4v1.28h2.74Zm6.39,0h-.83v-2.05a1,1,0,0,0-.19-.65.67.67,0,0,0-.54-.22.72.72,0,0,0-.55.22,1,1,0,0,0-.22.67v2h-.83v-2.05a1,1,0,0,0-.19-.65.64.64,0,0,0-.53-.22.72.72,0,0,0-.56.23,1,1,0,0,0-.21.66v2h-.83v-3.61h.83v.56a1.55,1.55,0,0,1,.19-.24l.23-.2a1,1,0,0,1,.3-.14,1.52,1.52,0,0,1,.38-.05,1.21,1.21,0,0,1,.65.17,1.27,1.27,0,0,1,.42.47,1.76,1.76,0,0,1,.51-.47,1.46,1.46,0,0,1,.71-.17,1.23,1.23,0,0,1,.93.36,1.46,1.46,0,0,1,.33,1Zm4.58-1a1.75,1.75,0,0,1-.37.59,1.63,1.63,0,0,1-.54.37,1.68,1.68,0,0,1-.63.12,1.28,1.28,0,0,1-.73-.19,2.1,2.1,0,0,1-.49-.44v1.65h-.83v-4.7h.83v.6a1.72,1.72,0,0,1,.49-.48,1.28,1.28,0,0,1,.73-.19,1.67,1.67,0,0,1,.62.12,1.5,1.5,0,0,1,.53.37,1.77,1.77,0,0,1,.38.59,2.14,2.14,0,0,1,.14.79A2,2,0,0,1,820.8,288.19Zm3.1-1.79h0a1.35,1.35,0,0,0-.5.09,1.16,1.16,0,0,0-.39.26,1.22,1.22,0,0,0-.25.45,2,2,0,0,0-.09.62v1.38h-.83v-3.61h.83v.82a1.57,1.57,0,0,1,.48-.66,1.17,1.17,0,0,1,.8-.22Zm3.87,1.17s0,.08,0,.12h-2.65a1.1,1.1,0,0,0,.36.68,1,1,0,0,0,.68.23,1.12,1.12,0,0,0,.53-.11,1.59,1.59,0,0,0,.44-.32l.49.43a2,2,0,0,1-.62.49,1.76,1.76,0,0,1-.86.19,1.89,1.89,0,0,1-.72-.14,1.81,1.81,0,0,1-.59-.38,1.6,1.6,0,0,1-.39-.59,1.92,1.92,0,0,1-.14-.77,2.19,2.19,0,0,1,.12-.73,2,2,0,0,1,.37-.6,1.74,1.74,0,0,1,.56-.4,1.8,1.8,0,0,1,1.46,0,1.41,1.41,0,0,1,.54.42,1.82,1.82,0,0,1,.32.62,2.29,2.29,0,0,1,.11.74Zm4.07,1.63H831v-2.05a1,1,0,0,0-.2-.65.74.74,0,0,0-.57-.22.75.75,0,0,0-.58.23.92.92,0,0,0-.22.66v2h-.84v-3.61h.84v.57a2.35,2.35,0,0,1,.19-.25,1.59,1.59,0,0,1,.24-.2,1.23,1.23,0,0,1,.31-.14,1.46,1.46,0,0,1,.38-.05,1.18,1.18,0,0,1,.94.37,1.44,1.44,0,0,1,.34,1Zm4.53,0h-.83v-.6a1.83,1.83,0,0,1-.49.47,1.23,1.23,0,0,1-.73.2,1.63,1.63,0,0,1-.62-.12,1.5,1.5,0,0,1-.53-.37,1.77,1.77,0,0,1-.38-.59,2.33,2.33,0,0,1,0-1.59,1.75,1.75,0,0,1,.37-.59,1.5,1.5,0,0,1,.53-.37,1.72,1.72,0,0,1,.63-.12,1.28,1.28,0,0,1,.73.19,2.1,2.1,0,0,1,.49.44v-1.93h.83Zm4.32-1.63s0,.08,0,.12H838a1.1,1.1,0,0,0,.36.68,1,1,0,0,0,.68.23,1.12,1.12,0,0,0,.53-.11,1.59,1.59,0,0,0,.44-.32l.49.43a1.85,1.85,0,0,1-.62.49,1.75,1.75,0,0,1-.85.19,1.94,1.94,0,0,1-.73-.14,1.81,1.81,0,0,1-.59-.38,1.9,1.9,0,0,1-.39-.59,1.92,1.92,0,0,1-.14-.77,2,2,0,0,1,.13-.73,1.7,1.7,0,0,1,.92-1,1.8,1.8,0,0,1,1.46,0,1.41,1.41,0,0,1,.54.42,1.82,1.82,0,0,1,.32.62,2.29,2.29,0,0,1,.11.74Zm4.38,1.63h-.84v-.6a1.83,1.83,0,0,1-.49.47,1.23,1.23,0,0,1-.73.2,1.67,1.67,0,0,1-.62-.12,1.5,1.5,0,0,1-.53-.37,1.77,1.77,0,0,1-.38-.59,2.33,2.33,0,0,1,0-1.59,1.75,1.75,0,0,1,.37-.59,1.53,1.53,0,0,1,.54-.37,1.67,1.67,0,0,1,.62-.12,1.28,1.28,0,0,1,.73.19,2.1,2.1,0,0,1,.49.44v-1.93h.84Zm4.52-1.08a1.91,1.91,0,0,1-.4.6,1.87,1.87,0,0,1-.61.41,2,2,0,0,1-.77.15,1.91,1.91,0,0,1-.76-.15,1.85,1.85,0,0,1-.61-.4,1.8,1.8,0,0,1-.54-1.32,1.94,1.94,0,0,1,.14-.73,2.11,2.11,0,0,1,.41-.61,1.91,1.91,0,0,1,.6-.4,2,2,0,0,1,.77-.15,1.92,1.92,0,0,1,.77.15,1.8,1.8,0,0,1,.61.4,2,2,0,0,1,.4.59,2,2,0,0,1,.14.73A1.77,1.77,0,0,1,849.59,288.12Zm3.1-1.72h-.05a1.35,1.35,0,0,0-.5.09,1.16,1.16,0,0,0-.39.26,1.22,1.22,0,0,0-.25.45,2,2,0,0,0-.09.62v1.38h-.83v-3.61h.83v.82a1.51,1.51,0,0,1,.49-.66,1.13,1.13,0,0,1,.79-.22Z" transform="translate(-701.04 -229.65)"/></g><path class="cls-12" d="M878,271.66h-2.36L871.72,281h2.56l.65-1.71h3.85l.68,1.71H882Zm-2.38,5.64,1.24-3,1.14,3Z" transform="translate(-701.04 -229.65)"/><path class="cls-12" d="M884.37,270.27h-2.26v8.59a2.48,2.48,0,0,0,.26,1.14,2.17,2.17,0,0,0,2.07,1.17s1.25.05,1.7-.4l-.37-1.76a1.43,1.43,0,0,1-.79.21h0a.66.66,0,0,1-.64-.67Z" transform="translate(-701.04 -229.65)"/><rect class="cls-12" x="185.7" y="44.31" width="2.18" height="7.01"/><circle class="cls-12" cx="186.79" cy="42.29" r="1.26"/><path class="cls-12" d="M893.61,273.8c-3,0-3.25,2.19-3.25,2.19l2.06.46a1.09,1.09,0,0,1,1.18-.92c1.08,0,1,1.14,1,1.14h-2.35a2.27,2.27,0,0,0-2.34,2.24c0,1.47,1.1,2.28,2.6,2.28a2.55,2.55,0,0,0,2.05-.71v.5h2.12v-4.85S896.63,273.8,893.61,273.8Zm0,5.62a2.88,2.88,0,0,1-.68.08.7.7,0,0,1-.76-.76.61.61,0,0,1,.44-.56,1.24,1.24,0,0,1,.5-.1h1.53A1.37,1.37,0,0,1,893.59,279.42Z" transform="translate(-701.04 -229.65)"/><path class="cls-12" d="M899.57,277.49a1.72,1.72,0,0,0,1.5,1.72v2h-.21a3.7,3.7,0,0,1,0-7.39h.21v2A1.71,1.71,0,0,0,899.57,277.49Z" transform="translate(-701.04 -229.65)"/><path class="cls-12" d="M871,277.55a1.86,1.86,0,0,0-.54,1.53.07.07,0,0,1-.07.08h-3.33a.07.07,0,0,1-.07-.08,1.88,1.88,0,0,0-.53-1.53,4.31,4.31,0,0,1-1.64-3.22,3.82,3.82,0,0,1,3.89-4.06h0a3.82,3.82,0,0,1,3.9,4.06A4.35,4.35,0,0,1,871,277.55Z" transform="translate(-701.04 -229.65)"/><rect class="cls-12" x="166.13" y="49.76" width="3.22" height="0.74" rx="0.36"/><rect class="cls-12" x="166.89" y="50.66" width="1.7" height="0.74" rx="0.36"/><g class="cls-11"><path class="cls-10" d="M895.76,286.55a1.12,1.12,0,0,0-.33-.24,1.1,1.1,0,0,0-.4-.08,1,1,0,0,0-.39.08.86.86,0,0,0-.33.23,1.11,1.11,0,0,0-.23.36,1.53,1.53,0,0,0-.08.49,1.42,1.42,0,0,0,.08.48,1.06,1.06,0,0,0,.23.37.86.86,0,0,0,.33.23,1,1,0,0,0,.39.08,1.1,1.1,0,0,0,.4-.08.85.85,0,0,0,.33-.24,1.11,1.11,0,0,0,.23-.36,1.21,1.21,0,0,0,.08-.48,1.27,1.27,0,0,0-.08-.48A1.11,1.11,0,0,0,895.76,286.55Z" transform="translate(-701.04 -229.65)"/><path class="cls-10" d="M900.12,286.47a.8.8,0,0,0-.28-.2.88.88,0,0,0-1,.18,1.22,1.22,0,0,0-.31.69h1.85a1.12,1.12,0,0,0-.09-.37A.75.75,0,0,0,900.12,286.47Z" transform="translate(-701.04 -229.65)"/><path class="cls-10" d="M887.2,286.47a.8.8,0,0,0-.28-.2.86.86,0,0,0-.36-.08.83.83,0,0,0-.63.26,1.22,1.22,0,0,0-.31.69h1.85a1.12,1.12,0,0,0-.09-.37A.75.75,0,0,0,887.2,286.47Z" transform="translate(-701.04 -229.65)"/><path class="cls-10" d="M880.32,286.55a1.08,1.08,0,0,0-.32-.24,1.1,1.1,0,0,0-.4-.08,1.06,1.06,0,0,0-.4.08,1.16,1.16,0,0,0-.34.24,1.31,1.31,0,0,0-.23.36,1.51,1.51,0,0,0-.08.48,1.42,1.42,0,0,0,.08.48,1.31,1.31,0,0,0,.23.36.88.88,0,0,0,.34.24,1.06,1.06,0,0,0,.4.08,1.1,1.1,0,0,0,.4-.08.9.9,0,0,0,.32-.23,1.06,1.06,0,0,0,.23-.37,1.42,1.42,0,0,0,.08-.48,1.46,1.46,0,0,0-.08-.48A1.11,1.11,0,0,0,880.32,286.55Z" transform="translate(-701.04 -229.65)"/><path class="cls-10" d="M898.22,286.07a1.85,1.85,0,0,1,.56-.4,1.64,1.64,0,0,1,.71-.15,1.6,1.6,0,0,1,.75.16,1.41,1.41,0,0,1,.54.42,1.54,1.54,0,0,1,.26.47l0,.06v-3.72H863.22v8.25h37.85v-3.47h-2.52a1.1,1.1,0,0,0,.36.68,1.05,1.05,0,0,0,.68.23,1.09,1.09,0,0,0,.53-.11,1.79,1.79,0,0,0,.45-.32l.47.42h0a1.78,1.78,0,0,1-.61.48,1.75,1.75,0,0,1-.85.19,2,2,0,0,1-.73-.14,1.93,1.93,0,0,1-.59-.38,1.9,1.9,0,0,1-.39-.59,2.11,2.11,0,0,1-.14-.77,2,2,0,0,1,.13-.73A1.92,1.92,0,0,1,898.22,286.07Zm-27.87,3.13h-3.57v-4.78h3.54v.76h-2.71v1.23H870v.75h-2.4v1.28h2.74Zm6.39,0h-.83v-2.05a1,1,0,0,0-.19-.65.67.67,0,0,0-.54-.22.72.72,0,0,0-.55.22,1,1,0,0,0-.21.67v2h-.84v-2.05a1,1,0,0,0-.19-.65.64.64,0,0,0-.53-.22.74.74,0,0,0-.56.23,1,1,0,0,0-.21.66v2h-.83v-3.61h.83v.56a1.55,1.55,0,0,1,.19-.24,1.59,1.59,0,0,1,.24-.2.83.83,0,0,1,.3-.14,1.38,1.38,0,0,1,.37-.05,1.1,1.1,0,0,1,1.07.64,1.89,1.89,0,0,1,.51-.47,1.46,1.46,0,0,1,.71-.17,1.2,1.2,0,0,1,.93.36,1.46,1.46,0,0,1,.33,1Zm4.58-1a1.61,1.61,0,0,1-.37.59,1.63,1.63,0,0,1-.54.37,1.67,1.67,0,0,1-.62.12,1.29,1.29,0,0,1-.74-.19,2.1,2.1,0,0,1-.49-.44v1.65h-.83v-4.7h.83v.6a1.86,1.86,0,0,1,.49-.48,1.3,1.3,0,0,1,.73-.19,1.67,1.67,0,0,1,.62.12,1.5,1.5,0,0,1,.53.37,1.62,1.62,0,0,1,.38.59,2.33,2.33,0,0,1,0,1.59Zm3.1-1.79h0a1.35,1.35,0,0,0-.5.09,1.16,1.16,0,0,0-.39.26,1.22,1.22,0,0,0-.25.45,2,2,0,0,0-.09.62v1.38h-.83v-3.61h.83v.82a1.59,1.59,0,0,1,.49-.66,1.14,1.14,0,0,1,.79-.22Zm3.87,1.17s0,.08,0,.12h-2.65a1.1,1.1,0,0,0,.36.68,1,1,0,0,0,.68.23,1.12,1.12,0,0,0,.53-.11,1.79,1.79,0,0,0,.45-.32l.48.43a1.85,1.85,0,0,1-.62.49,1.75,1.75,0,0,1-.85.19,1.94,1.94,0,0,1-.73-.14,1.81,1.81,0,0,1-.59-.38,1.9,1.9,0,0,1-.39-.59,1.92,1.92,0,0,1-.14-.77,2,2,0,0,1,.13-.73,1.7,1.7,0,0,1,.92-1,1.64,1.64,0,0,1,.71-.15,1.62,1.62,0,0,1,.75.16,1.41,1.41,0,0,1,.54.42,1.82,1.82,0,0,1,.32.62,2.29,2.29,0,0,1,.11.74Zm4.07,1.63h-.83v-2.05a1,1,0,0,0-.2-.65.72.72,0,0,0-.57-.22.75.75,0,0,0-.58.23.92.92,0,0,0-.22.66v2h-.83v-3.61H890v.57a2.35,2.35,0,0,1,.19-.25,1.29,1.29,0,0,1,.25-.2,1,1,0,0,1,.3-.14,1.46,1.46,0,0,1,.38-.05,1.21,1.21,0,0,1,.95.37,1.48,1.48,0,0,1,.33,1Zm4.54,0h-.84v-.6a1.83,1.83,0,0,1-.49.47,1.23,1.23,0,0,1-.73.2,1.67,1.67,0,0,1-.62-.12,1.5,1.5,0,0,1-.53-.37,1.77,1.77,0,0,1-.38-.59,2.33,2.33,0,0,1,0-1.59,1.75,1.75,0,0,1,.37-.59,1.53,1.53,0,0,1,.54-.37,1.67,1.67,0,0,1,.62-.12,1.28,1.28,0,0,1,.73.19,2.1,2.1,0,0,1,.49.44v-1.93h.84Z" transform="translate(-701.04 -229.65)"/></g><path class="cls-12" d="M705,245.59c-3,0-3.26,2.19-3.26,2.19l2.06.46a1.11,1.11,0,0,1,1.19-.92c1.07,0,1,1.14,1,1.14h-2.35a2.26,2.26,0,0,0-2.33,2.25c0,1.46,1.09,2.27,2.6,2.27a2.54,2.54,0,0,0,2-.71v.5h2.12v-4.85S708,245.59,705,245.59Zm0,5.62a2.8,2.8,0,0,1-.67.08.71.71,0,0,1-.77-.76A.61.61,0,0,1,704,250a1.24,1.24,0,0,1,.5-.1H706A1.37,1.37,0,0,1,705,251.21Z" transform="translate(-701.04 -229.65)"/><path class="cls-12" d="M712.63,251a1.74,1.74,0,1,1,1.69-1.75v-3a3.43,3.43,0,0,0-2.09-.72,3.7,3.7,0,0,0,0,7.39,3.38,3.38,0,0,0,2.09-.73v-3A1.72,1.72,0,0,1,712.63,251Z" transform="translate(-701.04 -229.65)"/><polygon class="cls-12" points="13.28 22.6 13.28 23.11 15.5 23.11 15.5 12.41 13.28 12.41 13.28 16.66 13.28 22.6"/><path class="cls-12" d="M721.13,245.59a3.7,3.7,0,1,0,3.85,3.7A3.78,3.78,0,0,0,721.13,245.59Zm0,5.48a1.79,1.79,0,1,1,1.78-1.78A1.79,1.79,0,0,1,721.13,251.07Z" transform="translate(-701.04 -229.65)"/><g class="cls-11"><path class="cls-10" d="M707.13,258.34a.86.86,0,0,0-.33-.23.92.92,0,0,0-.39-.09,1.06,1.06,0,0,0-.4.08.86.86,0,0,0-.33.23.91.91,0,0,0-.22.37,1.33,1.33,0,0,0,0,1,.91.91,0,0,0,.22.37.86.86,0,0,0,.33.23.9.9,0,0,0,.4.08.91.91,0,0,0,.39-.08.86.86,0,0,0,.33-.23,1.1,1.1,0,0,0,.23-.37,1.21,1.21,0,0,0,.09-.48,1.19,1.19,0,0,0-.09-.47A.93.93,0,0,0,707.13,258.34Z" transform="translate(-701.04 -229.65)"/><path class="cls-10" d="M711.49,258.26a.76.76,0,0,0-.27-.2.87.87,0,0,0-.37-.08.83.83,0,0,0-.63.27,1.1,1.1,0,0,0-.3.68h1.85a2,2,0,0,0-.09-.37A.91.91,0,0,0,711.49,258.26Z" transform="translate(-701.04 -229.65)"/><path class="cls-10" d="M715.83,258.34a1,1,0,0,0-.34-.23.89.89,0,0,0-.39-.09,1.1,1.1,0,0,0-.4.08,1,1,0,0,0-.55.6,1.48,1.48,0,0,0,0,1,1,1,0,0,0,.55.6.92.92,0,0,0,.4.08.88.88,0,0,0,.39-.08,1,1,0,0,0,.34-.23,1.25,1.25,0,0,0,.22-.37,1.21,1.21,0,0,0,.09-.48,1.19,1.19,0,0,0-.09-.47A1,1,0,0,0,715.83,258.34Z" transform="translate(-701.04 -229.65)"/><path class="cls-10" d="M720.49,258.37a1.12,1.12,0,0,0-.35-.25,1.12,1.12,0,0,0-.88,0,1.12,1.12,0,0,0-.35.25,1.23,1.23,0,0,0-.21.37,1.27,1.27,0,0,0-.08.44,1.44,1.44,0,0,0,.08.46,1.28,1.28,0,0,0,.23.37,1.12,1.12,0,0,0,.35.25,1,1,0,0,0,.43.09,1.06,1.06,0,0,0,.45-.09,1.12,1.12,0,0,0,.35-.25,1.3,1.3,0,0,0,.29-.81,1.23,1.23,0,0,0-.31-.83Z" transform="translate(-701.04 -229.65)"/><path class="cls-10" d="M701,254.71v2.67h.29V258a1.59,1.59,0,0,1,.2-.24,1.21,1.21,0,0,1,.24-.21,1.46,1.46,0,0,1,.31-.14,1.38,1.38,0,0,1,.37-.05,1.2,1.2,0,0,1,.95.37,1.5,1.5,0,0,1,.33,1V261h-.83v-2.05a1,1,0,0,0-.2-.65.7.7,0,0,0-.56-.22.81.81,0,0,0-.59.23,1,1,0,0,0-.22.66v2H701v2h27.05v-8.24Zm7.23,6.28h-.83v-.6a1.88,1.88,0,0,1-.5.47,1.21,1.21,0,0,1-.73.2,1.67,1.67,0,0,1-.62-.12,1.46,1.46,0,0,1-.53-.37,1.75,1.75,0,0,1-.37-.59,2,2,0,0,1-.15-.79,2.2,2.2,0,0,1,.14-.8,1.87,1.87,0,0,1,.38-.59,1.5,1.5,0,0,1,.53-.37,1.67,1.67,0,0,1,.62-.12,1.31,1.31,0,0,1,.74.19,2.33,2.33,0,0,1,.49.44V256h.83Zm4.31-1.63a.49.49,0,0,1,0,.12h-2.64a1.14,1.14,0,0,0,.35.68,1.07,1.07,0,0,0,.68.23,1.13,1.13,0,0,0,.54-.11,1.75,1.75,0,0,0,.44-.32l.48.43a1.81,1.81,0,0,1-.61.49,1.79,1.79,0,0,1-.86.19,2,2,0,0,1-.73-.14,1.77,1.77,0,0,1-.58-.38,1.6,1.6,0,0,1-.39-.59,1.92,1.92,0,0,1-.15-.77,2.2,2.2,0,0,1,.13-.73,1.9,1.9,0,0,1,.37-.59,1.72,1.72,0,0,1,.55-.41,1.82,1.82,0,0,1,1.47,0,1.58,1.58,0,0,1,.54.42,1.82,1.82,0,0,1,.32.62,2.6,2.6,0,0,1,.11.74A.37.37,0,0,1,712.58,259.36ZM717,261h-.83v-.6a2,2,0,0,1-.49.47,1.26,1.26,0,0,1-.74.2,1.62,1.62,0,0,1-.61-.12h0a1.46,1.46,0,0,1-.53-.37,1.75,1.75,0,0,1-.37-.59,2,2,0,0,1-.14-.79,2,2,0,0,1,.14-.8,1.69,1.69,0,0,1,.37-.59,1.35,1.35,0,0,1,.46-.33l.07,0a1.67,1.67,0,0,1,.62-.12,1.31,1.31,0,0,1,.74.19,2.33,2.33,0,0,1,.49.44V256H717Zm2-.07a1.91,1.91,0,0,1-.6-.4,1.86,1.86,0,0,1-.4-2,1.91,1.91,0,0,1,.4-.6,2,2,0,0,1,.61-.41,1.92,1.92,0,0,1,.77-.15,2,2,0,0,1,.77.15,1.85,1.85,0,0,1,1.14,1.73,1.79,1.79,0,0,1-.14.73,2,2,0,0,1-.4.59,2,2,0,0,1-.62.41,1.92,1.92,0,0,1-.77.15A1.94,1.94,0,0,1,718.94,260.92Zm5.64-2.73h-.05a1.3,1.3,0,0,0-.49.09.39.39,0,0,0-.11.06,1,1,0,0,0-.28.2,1.24,1.24,0,0,0-.26.45,2.35,2.35,0,0,0-.08.63V261h-.84v-3.61h.84v.82a1.55,1.55,0,0,1,.48-.66,1.09,1.09,0,0,1,.57-.21h.22Z" transform="translate(-701.04 -229.65)"/></g><path class="cls-12" d="M749.93,243.4h-2.36l-4,9.31h2.55l.65-1.71h3.85l.68,1.71h2.5ZM747.55,249l1.24-3,1.14,3Z" transform="translate(-701.04 -229.65)"/><path class="cls-12" d="M756.27,242H754v8.6a2.47,2.47,0,0,0,.27,1.13,2.14,2.14,0,0,0,2.06,1.17s1.26,0,1.71-.4l-.38-1.76a1.37,1.37,0,0,1-.78.21h0a.66.66,0,0,1-.64-.66Z" transform="translate(-701.04 -229.65)"/><rect class="cls-12" x="57.6" y="16.04" width="2.18" height="7.01"/><circle class="cls-12" cx="58.69" cy="14.02" r="1.26"/><path class="cls-12" d="M765.51,245.53c-3,0-3.26,2.19-3.26,2.19l2.07.46a1.09,1.09,0,0,1,1.18-.92c1.08,0,1,1.14,1,1.14h-2.35a2.26,2.26,0,0,0-2.33,2.25c0,1.46,1.09,2.27,2.6,2.27a2.56,2.56,0,0,0,2-.7v.49h2.12v-4.85S768.53,245.53,765.51,245.53Zm0,5.62a2.37,2.37,0,0,1-.67.08.71.71,0,0,1-.77-.76.63.63,0,0,1,.45-.56,1.23,1.23,0,0,1,.5-.09h1.52A1.37,1.37,0,0,1,765.48,251.15Z" transform="translate(-701.04 -229.65)"/><path class="cls-12" d="M773.15,251a1.74,1.74,0,1,1,1.69-1.75v-3a3.41,3.41,0,0,0-2.09-.72,3.7,3.7,0,0,0,0,7.39,3.36,3.36,0,0,0,2.09-.73v-3A1.72,1.72,0,0,1,773.15,251Z" transform="translate(-701.04 -229.65)"/><polygon class="cls-12" points="73.8 22.54 73.8 23.05 76.02 23.05 76.02 12.35 73.8 12.35 73.8 16.6 73.8 22.54"/><path class="cls-12" d="M781.65,245.53a3.7,3.7,0,1,0,3.85,3.7A3.79,3.79,0,0,0,781.65,245.53Zm0,5.48a1.79,1.79,0,1,1,1.79-1.78A1.79,1.79,0,0,1,781.65,251Z" transform="translate(-701.04 -229.65)"/><path class="cls-12" d="M742.92,249.28a1.88,1.88,0,0,0-.53,1.53.07.07,0,0,1-.07.08H739a.08.08,0,0,1-.08-.08,1.81,1.81,0,0,0-.53-1.53,4.35,4.35,0,0,1-1.64-3.22,3.83,3.83,0,0,1,3.9-4.06h0a3.83,3.83,0,0,1,3.89,4.06A4.31,4.31,0,0,1,742.92,249.28Z" transform="translate(-701.04 -229.65)"/><rect class="cls-12" x="38.03" y="21.49" width="3.22" height="0.74" rx="0.36"/><rect class="cls-12" x="38.79" y="22.39" width="1.7" height="0.74" rx="0.36"/><g class="cls-11"><path class="cls-10" d="M767.66,258.28a1,1,0,0,0-.34-.23.86.86,0,0,0-.39-.09,1.1,1.1,0,0,0-.4.08,1.23,1.23,0,0,0-.33.23,1,1,0,0,0-.22.37,1.21,1.21,0,0,0-.08.48,1.29,1.29,0,0,0,.08.49,1.09,1.09,0,0,0,.22.36,1,1,0,0,0,.33.23.92.92,0,0,0,.4.08.85.85,0,0,0,.39-.08,1,1,0,0,0,.34-.23,1.14,1.14,0,0,0,.22-.37,1.21,1.21,0,0,0,.09-.48,1.19,1.19,0,0,0-.09-.47A1.14,1.14,0,0,0,767.66,258.28Z" transform="translate(-701.04 -229.65)"/><path class="cls-10" d="M772,258.2a1,1,0,0,0-.28-.2.87.87,0,0,0-.37-.08.83.83,0,0,0-.63.27,1.22,1.22,0,0,0-.3.68h1.85a2.22,2.22,0,0,0-.09-.37A1.09,1.09,0,0,0,772,258.2Z" transform="translate(-701.04 -229.65)"/><path class="cls-10" d="M759.09,258.2a.9.9,0,0,0-.27-.2.87.87,0,0,0-.37-.08.83.83,0,0,0-.63.27,1.16,1.16,0,0,0-.3.68h1.85a2.22,2.22,0,0,0-.09-.37A.91.91,0,0,0,759.09,258.2Z" transform="translate(-701.04 -229.65)"/><path class="cls-10" d="M752.22,258.28a.86.86,0,0,0-.33-.23.9.9,0,0,0-.4-.09.93.93,0,0,0-.4.09.86.86,0,0,0-.33.23,1,1,0,0,0-.23.37,1.19,1.19,0,0,0-.09.47,1.21,1.21,0,0,0,.09.48,1,1,0,0,0,.23.37.86.86,0,0,0,.33.23.92.92,0,0,0,.4.08.9.9,0,0,0,.4-.08.86.86,0,0,0,.33-.23,1.09,1.09,0,0,0,.22-.36,1.29,1.29,0,0,0,.08-.49,1.27,1.27,0,0,0-.08-.48A1.09,1.09,0,0,0,752.22,258.28Z" transform="translate(-701.04 -229.65)"/><path class="cls-10" d="M776.35,258.28a1,1,0,0,0-.34-.23.86.86,0,0,0-.39-.09,1.1,1.1,0,0,0-.4.08,1.23,1.23,0,0,0-.33.23,1,1,0,0,0-.22.37,1.21,1.21,0,0,0-.08.48,1.29,1.29,0,0,0,.08.49,1.09,1.09,0,0,0,.22.36,1,1,0,0,0,.33.23.92.92,0,0,0,.4.08.85.85,0,0,0,.39-.08,1,1,0,0,0,.34-.23,1.37,1.37,0,0,0,.23-.37,1.42,1.42,0,0,0,.08-.48,1.4,1.4,0,0,0-.08-.47A1.37,1.37,0,0,0,776.35,258.28Z" transform="translate(-701.04 -229.65)"/><path class="cls-10" d="M781,258.32a1.23,1.23,0,0,0-.34-.26,1.13,1.13,0,0,0-.45-.09,1,1,0,0,0-.44.09,1.11,1.11,0,0,0-.34.25,1.07,1.07,0,0,0-.22.37,1.32,1.32,0,0,0-.08.44,1.18,1.18,0,0,0,.09.46,1.14,1.14,0,0,0,.22.37,1.24,1.24,0,0,0,.35.25,1,1,0,0,0,.44.09,1.13,1.13,0,0,0,.45-.09,1.09,1.09,0,0,0,.56-.61,1.39,1.39,0,0,0,0-.9A1.16,1.16,0,0,0,781,258.32Z" transform="translate(-701.04 -229.65)"/><path class="cls-10" d="M745.29,258.23a.67.67,0,0,0-.54-.22.69.69,0,0,0-.55.24.93.93,0,0,0-.21.64,2.4,2.4,0,0,1,1.49,1.27v-1.28A1,1,0,0,0,745.29,258.23Zm0,0a.67.67,0,0,0-.54-.22.69.69,0,0,0-.55.24.93.93,0,0,0-.21.64,2.4,2.4,0,0,1,1.49,1.27v-1.28A1,1,0,0,0,745.29,258.23Zm0,0a.67.67,0,0,0-.54-.22.69.69,0,0,0-.55.24.93.93,0,0,0-.21.64,2.4,2.4,0,0,1,1.49,1.27v-1.28A1,1,0,0,0,745.29,258.23Zm0,0a.67.67,0,0,0-.54-.22.69.69,0,0,0-.55.24.93.93,0,0,0-.21.64,2.4,2.4,0,0,1,1.49,1.27v-1.28A1,1,0,0,0,745.29,258.23Zm0,0a.67.67,0,0,0-.54-.22.69.69,0,0,0-.55.24.93.93,0,0,0-.21.64,2.4,2.4,0,0,1,1.49,1.27v-1.28A1,1,0,0,0,745.29,258.23Zm0,0a.67.67,0,0,0-.54-.22.69.69,0,0,0-.55.24.93.93,0,0,0-.21.64,2.4,2.4,0,0,1,1.49,1.27v-1.28A1,1,0,0,0,745.29,258.23Zm-10.18-3.58v8.24h53.5v-8.24Zm3.57,6.28v-4.78h3.53v.76h-2.7v1.23h2.39v.76h-2.39v1.27h2.74v.76Zm9.13-2a1,1,0,0,0-.19-.66.67.67,0,0,0-.54-.22.68.68,0,0,0-.55.23.89.89,0,0,0-.22.66v2h-.83v-2.05a1,1,0,0,0-.19-.65.67.67,0,0,0-.54-.22.69.69,0,0,0-.55.24.93.93,0,0,0-.21.64v2h-.84v-3.6H744v.55a2,2,0,0,1,.19-.24,1.14,1.14,0,0,1,.23-.2,1.38,1.38,0,0,1,.3-.14,1.44,1.44,0,0,1,.37-.05,1.16,1.16,0,0,1,.66.18,1.07,1.07,0,0,1,.41.46,1.74,1.74,0,0,1,.52-.46,1.34,1.34,0,0,1,.71-.18,1.19,1.19,0,0,1,.92.36,1.41,1.41,0,0,1,.34,1v2.3h-.83Zm5.41,1a1.81,1.81,0,0,1-.38.59,1.47,1.47,0,0,1-.53.36,1.64,1.64,0,0,1-.35.09l-.28,0a1.36,1.36,0,0,1-.51-.09h0a.42.42,0,0,1-.19-.09l0,0a1.72,1.72,0,0,1-.44-.41V262h-.84v-4.69h.84v.6a1.72,1.72,0,0,1,.49-.48,1.26,1.26,0,0,1,.73-.2l.27,0a1.07,1.07,0,0,1,.34.09,1.79,1.79,0,0,1,.54.37,1.87,1.87,0,0,1,.38.59,2.2,2.2,0,0,1,.14.8A2.24,2.24,0,0,1,753.22,259.93Zm1-2.6H755v.81a1.61,1.61,0,0,1,.48-.66,1.16,1.16,0,0,1,.79-.22v.87h0a1.31,1.31,0,0,0-.5.09,1.05,1.05,0,0,0-.39.27,1.11,1.11,0,0,0-.25.44,2,2,0,0,0-.09.63v1.37h-.83Zm5.2,3.5a1.91,1.91,0,0,1-.86.18,2,2,0,0,1-.73-.14,1.62,1.62,0,0,1-.58-.38,1.6,1.6,0,0,1-.39-.59,1.82,1.82,0,0,1-.14-.64.53.53,0,0,1,0-.13,2.2,2.2,0,0,1,.13-.73,1.9,1.9,0,0,1,.37-.59,1.72,1.72,0,0,1,.55-.41,1.82,1.82,0,0,1,1.47,0,1.58,1.58,0,0,1,.54.42,1.92,1.92,0,0,1,.32.62,2.1,2.1,0,0,1,.09.5,1,1,0,0,1,0,.25v.1a.49.49,0,0,0,0,.12h-2.65a1.11,1.11,0,0,0,.35.68,1,1,0,0,0,.68.23,1.27,1.27,0,0,0,.54-.1,2,2,0,0,0,.44-.32l.48.42a1.75,1.75,0,0,1-.51.43Zm4.84.1h-.83v-2a.92.92,0,0,0-.2-.65.68.68,0,0,0-.56-.23.78.78,0,0,0-.58.23.93.93,0,0,0-.23.66v2H761v-3.6h.83v.56a1.59,1.59,0,0,1,.2-.24,1.21,1.21,0,0,1,.24-.21,1.24,1.24,0,0,1,.69-.19,1.2,1.2,0,0,1,.94.38,1.46,1.46,0,0,1,.33,1Zm4.54,0H768v-.6a2.24,2.24,0,0,1-.49.48,1.34,1.34,0,0,1-.74.19,1.67,1.67,0,0,1-.62-.12,1.56,1.56,0,0,1-.53-.36,2,2,0,0,1-.37-.59,2,2,0,0,1-.14-.8,2,2,0,0,1,.14-.8,1.69,1.69,0,0,1,.37-.59,1.64,1.64,0,0,1,.53-.37,1.67,1.67,0,0,1,.62-.12,1.31,1.31,0,0,1,.74.19,2.12,2.12,0,0,1,.49.45V256h.83Zm4.32-1.63a.49.49,0,0,0,0,.12h-2.65a1.11,1.11,0,0,0,.35.68,1,1,0,0,0,.69.23,1.25,1.25,0,0,0,.53-.1,1.82,1.82,0,0,0,.44-.32l.49.42a2.13,2.13,0,0,1-.62.5,1.91,1.91,0,0,1-.86.18,1.89,1.89,0,0,1-.72-.14,1.66,1.66,0,0,1-.59-.38,1.6,1.6,0,0,1-.39-.59,1.89,1.89,0,0,1-.15-.77,2.2,2.2,0,0,1,.13-.73,1.9,1.9,0,0,1,.37-.59,1.84,1.84,0,0,1,.55-.41,1.82,1.82,0,0,1,1.47,0,1.58,1.58,0,0,1,.54.42,1.92,1.92,0,0,1,.32.62,2.67,2.67,0,0,1,.11.75Zm4.37,1.63h-.83v-.6a2.24,2.24,0,0,1-.49.48,1.3,1.3,0,0,1-.73.19,1.63,1.63,0,0,1-.62-.12,1.47,1.47,0,0,1-.53-.36,2,2,0,0,1-.38-.59,2.24,2.24,0,0,1-.14-.8,2,2,0,0,1,.14-.8,1.69,1.69,0,0,1,.37-.59,1.64,1.64,0,0,1,.53-.37,1.68,1.68,0,0,1,.63-.12,1.28,1.28,0,0,1,.73.19,1.93,1.93,0,0,1,.49.45V256h.83Zm4.53-1.07a1.91,1.91,0,0,1-1.78,1.15,2,2,0,0,1-.77-.15,1.75,1.75,0,0,1-.6-.4,1.81,1.81,0,0,1-.4-.59,2,2,0,0,1,0-1.46,1.91,1.91,0,0,1,.4-.6,2.11,2.11,0,0,1,.61-.41,2.05,2.05,0,0,1,1.54,0,1.91,1.91,0,0,1,.6.4,1.91,1.91,0,0,1,.55,1.33A1.8,1.8,0,0,1,782,259.86Zm3.09-1.73h0a1.31,1.31,0,0,0-.5.09,1.05,1.05,0,0,0-.39.27,1.11,1.11,0,0,0-.25.44,2,2,0,0,0-.09.63v1.37H783v-3.6h.83v.81a1.61,1.61,0,0,1,.48-.66,1.16,1.16,0,0,1,.79-.22Zm-39.81.1a.67.67,0,0,0-.54-.22.69.69,0,0,0-.55.24.93.93,0,0,0-.21.64,2.4,2.4,0,0,1,1.49,1.27v-1.28A1,1,0,0,0,745.29,258.23Zm0,0a.67.67,0,0,0-.54-.22.69.69,0,0,0-.55.24.93.93,0,0,0-.21.64,2.4,2.4,0,0,1,1.49,1.27v-1.28A1,1,0,0,0,745.29,258.23Zm0,0a.67.67,0,0,0-.54-.22.69.69,0,0,0-.55.24.93.93,0,0,0-.21.64,2.4,2.4,0,0,1,1.49,1.27v-1.28A1,1,0,0,0,745.29,258.23Zm0,0a.67.67,0,0,0-.54-.22.69.69,0,0,0-.55.24.93.93,0,0,0-.21.64,2.4,2.4,0,0,1,1.49,1.27v-1.28A1,1,0,0,0,745.29,258.23Zm0,0a.67.67,0,0,0-.54-.22.69.69,0,0,0-.55.24.93.93,0,0,0-.21.64,2.4,2.4,0,0,1,1.49,1.27v-1.28A1,1,0,0,0,745.29,258.23Zm0,0a.67.67,0,0,0-.54-.22.69.69,0,0,0-.55.24.93.93,0,0,0-.21.64,2.4,2.4,0,0,1,1.49,1.27v-1.28A1,1,0,0,0,745.29,258.23Z" transform="translate(-701.04 -229.65)"/></g><path class="cls-12" d="M810.45,243.4h-2.36l-4,9.31h2.56l.64-1.71h3.86l.67,1.71h2.5ZM808.07,249l1.24-3,1.14,3Z" transform="translate(-701.04 -229.65)"/><path class="cls-12" d="M816.79,242h-2.26v8.6a2.47,2.47,0,0,0,.26,1.13,2.15,2.15,0,0,0,2.07,1.17s1.25,0,1.7-.4l-.38-1.76a1.37,1.37,0,0,1-.78.21h0a.66.66,0,0,1-.64-.66Z" transform="translate(-701.04 -229.65)"/><rect class="cls-12" x="118.12" y="16.04" width="2.18" height="7.01"/><circle class="cls-12" cx="119.21" cy="14.02" r="1.26"/><path class="cls-12" d="M826,245.53c-3,0-3.26,2.19-3.26,2.19l2.07.46a1.09,1.09,0,0,1,1.18-.92c1.08,0,1,1.14,1,1.14h-2.35a2.26,2.26,0,0,0-2.33,2.25c0,1.46,1.09,2.27,2.6,2.27a2.59,2.59,0,0,0,2-.7v.49h2.12v-4.85S829.05,245.53,826,245.53Zm0,5.62a2.37,2.37,0,0,1-.67.08.71.71,0,0,1-.77-.76.63.63,0,0,1,.45-.56,1.23,1.23,0,0,1,.5-.09H827A1.37,1.37,0,0,1,826,251.15Z" transform="translate(-701.04 -229.65)"/><path class="cls-12" d="M833.67,251a1.74,1.74,0,1,1,1.69-1.75v-3a3.38,3.38,0,0,0-2.08-.72,3.7,3.7,0,0,0,0,7.39,3.33,3.33,0,0,0,2.08-.73v-3A1.72,1.72,0,0,1,833.67,251Z" transform="translate(-701.04 -229.65)"/><polygon class="cls-12" points="134.32 22.54 134.32 23.05 136.55 23.05 136.55 12.35 134.32 12.35 134.32 16.6 134.32 22.54"/><path class="cls-12" d="M842.17,245.53a3.7,3.7,0,1,0,3.86,3.7A3.79,3.79,0,0,0,842.17,245.53Zm0,5.48a1.79,1.79,0,1,1,1.79-1.78A1.79,1.79,0,0,1,842.17,251Z" transform="translate(-701.04 -229.65)"/><path class="cls-12" d="M803.45,249.28a1.86,1.86,0,0,0-.54,1.53.07.07,0,0,1-.07.08h-3.33a.07.07,0,0,1-.07-.08,1.86,1.86,0,0,0-.54-1.53,4.35,4.35,0,0,1-1.64-3.22,3.83,3.83,0,0,1,3.9-4.06h0a3.83,3.83,0,0,1,3.9,4.06A4.35,4.35,0,0,1,803.45,249.28Z" transform="translate(-701.04 -229.65)"/><rect class="cls-12" x="98.55" y="21.49" width="3.22" height="0.74" rx="0.36"/><rect class="cls-12" x="99.31" y="22.39" width="1.7" height="0.74" rx="0.36"/><g class="cls-11"><path class="cls-10" d="M828.18,258.28a1,1,0,0,0-.33-.23.93.93,0,0,0-.4-.09,1.1,1.1,0,0,0-.4.08,1.23,1.23,0,0,0-.33.23,1,1,0,0,0-.22.37,1.21,1.21,0,0,0-.08.48,1.29,1.29,0,0,0,.08.49,1.09,1.09,0,0,0,.22.36,1,1,0,0,0,.33.23,1,1,0,0,0,.8,0,1,1,0,0,0,.33-.23,1.37,1.37,0,0,0,.23-.37,1.42,1.42,0,0,0,.08-.48,1.4,1.4,0,0,0-.08-.47A1.37,1.37,0,0,0,828.18,258.28Z" transform="translate(-701.04 -229.65)"/><path class="cls-10" d="M832.54,258.2a1,1,0,0,0-.28-.2.86.86,0,0,0-.36-.08.84.84,0,0,0-.64.27,1.22,1.22,0,0,0-.3.68h1.85a1.18,1.18,0,0,0-.09-.37A.89.89,0,0,0,832.54,258.2Z" transform="translate(-701.04 -229.65)"/><path class="cls-10" d="M819.62,258.2a1,1,0,0,0-.28-.2.87.87,0,0,0-.37-.08.83.83,0,0,0-.63.27,1.22,1.22,0,0,0-.3.68h1.85a2.22,2.22,0,0,0-.09-.37A1.09,1.09,0,0,0,819.62,258.2Z" transform="translate(-701.04 -229.65)"/><path class="cls-10" d="M812.74,258.28A1.06,1.06,0,0,0,812,258a1.05,1.05,0,0,0-.74.32,1.16,1.16,0,0,0-.23.37,1.19,1.19,0,0,0-.09.47,1.21,1.21,0,0,0,.09.48,1.16,1.16,0,0,0,.23.37,1,1,0,0,0,.74.31,1,1,0,0,0,.72-.31,1.09,1.09,0,0,0,.22-.36,1.3,1.3,0,0,0,.09-.49,1.28,1.28,0,0,0-.09-.48A1.09,1.09,0,0,0,812.74,258.28Z" transform="translate(-701.04 -229.65)"/><path class="cls-10" d="M836.87,258.28a1,1,0,0,0-.33-.23.93.93,0,0,0-.4-.09,1.1,1.1,0,0,0-.4.08,1.23,1.23,0,0,0-.33.23,1,1,0,0,0-.22.37,1.42,1.42,0,0,0-.08.48,1.53,1.53,0,0,0,.08.49,1.09,1.09,0,0,0,.22.36,1,1,0,0,0,.33.23,1,1,0,0,0,.8,0,1,1,0,0,0,.33-.23,1.16,1.16,0,0,0,.23-.37,1.42,1.42,0,0,0,.08-.48,1.4,1.4,0,0,0-.08-.47A1.16,1.16,0,0,0,836.87,258.28Z" transform="translate(-701.04 -229.65)"/><path class="cls-10" d="M841.53,258.32a1,1,0,0,0-.79-.35,1,1,0,0,0-.44.09,1.25,1.25,0,0,0-.34.25,1.07,1.07,0,0,0-.22.37,1.31,1.31,0,0,0-.07.44,1.17,1.17,0,0,0,.08.46,1.14,1.14,0,0,0,.22.37,1.24,1.24,0,0,0,.35.25,1,1,0,0,0,.44.09,1.1,1.1,0,0,0,.45-.09,1.07,1.07,0,0,0,.34-.25,1,1,0,0,0,.22-.36,1.33,1.33,0,0,0,.07-.45,1.12,1.12,0,0,0-.08-.45A1,1,0,0,0,841.53,258.32Z" transform="translate(-701.04 -229.65)"/><path class="cls-10" d="M795.63,254.65v8.24h53.5v-8.24Zm7.14,6.28H799.2v-4.78h3.53v.76H800v1.23h2.4v.76H800v1.27h2.74Zm6.39,0h-.83v-2a1,1,0,0,0-.19-.66.67.67,0,0,0-.54-.22.68.68,0,0,0-.55.23.94.94,0,0,0-.22.66v2H806v-2.05a1,1,0,0,0-.19-.65.66.66,0,0,0-.54-.22.69.69,0,0,0-.55.24,1,1,0,0,0-.21.66v2h-.84v-3.6h.84v.55l.19-.24a1.5,1.5,0,0,1,.23-.2,1.38,1.38,0,0,1,.3-.14,1.46,1.46,0,0,1,.38-.05,1.15,1.15,0,0,1,.65.18,1.17,1.17,0,0,1,.42.46,1.6,1.6,0,0,1,.51-.46,1.34,1.34,0,0,1,.71-.18,1.23,1.23,0,0,1,.93.36,1.46,1.46,0,0,1,.33,1Zm4.58-1a2,2,0,0,1-.37.59,1.6,1.6,0,0,1-.54.36,1.72,1.72,0,0,1-.63.12,1.28,1.28,0,0,1-.73-.19,1.74,1.74,0,0,1-.49-.44V262h-.83v-4.69H811v.6a1.72,1.72,0,0,1,.49-.48,1.28,1.28,0,0,1,.73-.2,1.67,1.67,0,0,1,.62.12,1.75,1.75,0,0,1,.53.37,1.87,1.87,0,0,1,.38.59,2.2,2.2,0,0,1,.14.8A2.24,2.24,0,0,1,813.74,259.93Zm3.1-1.8h-.05a1.35,1.35,0,0,0-.5.09,1.05,1.05,0,0,0-.39.27,1.11,1.11,0,0,0-.25.44,2,2,0,0,0-.09.63v1.37h-.83v-3.6h.83v.81a1.61,1.61,0,0,1,.48-.66,1.17,1.17,0,0,1,.8-.22Zm3.87,1.17a.49.49,0,0,0,0,.12h-2.65a1.11,1.11,0,0,0,.35.68,1,1,0,0,0,.69.23,1.25,1.25,0,0,0,.53-.1,1.82,1.82,0,0,0,.44-.32l.49.42a2.13,2.13,0,0,1-.62.5,1.91,1.91,0,0,1-.86.18,1.89,1.89,0,0,1-.72-.14,1.66,1.66,0,0,1-.59-.38,1.6,1.6,0,0,1-.39-.59,1.89,1.89,0,0,1-.15-.77,2.2,2.2,0,0,1,.13-.73,1.9,1.9,0,0,1,.37-.59,1.84,1.84,0,0,1,.55-.41,1.71,1.71,0,0,1,.71-.15,1.67,1.67,0,0,1,.76.16,1.58,1.58,0,0,1,.54.42,1.92,1.92,0,0,1,.32.62,2.67,2.67,0,0,1,.11.75Zm4.07,1.63h-.84v-2a.92.92,0,0,0-.2-.65.68.68,0,0,0-.56-.23.78.78,0,0,0-.58.23.93.93,0,0,0-.23.66v2h-.83v-3.6h.83v.56a1.59,1.59,0,0,1,.2-.24,1.21,1.21,0,0,1,.24-.21,1.73,1.73,0,0,1,.31-.14,1.46,1.46,0,0,1,.38-.05,1.18,1.18,0,0,1,.94.38,1.42,1.42,0,0,1,.34,1Zm4.53,0h-.83v-.6a2.24,2.24,0,0,1-.49.48,1.3,1.3,0,0,1-.73.19,1.63,1.63,0,0,1-.62-.12,1.47,1.47,0,0,1-.53-.36,2,2,0,0,1-.38-.59,2.24,2.24,0,0,1-.14-.8,2,2,0,0,1,.14-.8,1.69,1.69,0,0,1,.37-.59,1.64,1.64,0,0,1,.53-.37,1.68,1.68,0,0,1,.63-.12,1.28,1.28,0,0,1,.73.19,1.93,1.93,0,0,1,.49.45V256h.83Zm4.32-1.63s0,.08,0,.12H831a1.08,1.08,0,0,0,.36.68,1,1,0,0,0,.68.23,1.25,1.25,0,0,0,.53-.1,1.82,1.82,0,0,0,.44-.32l.49.42a2,2,0,0,1-.62.5,1.88,1.88,0,0,1-.86.18,1.92,1.92,0,0,1-.72-.14,1.66,1.66,0,0,1-.59-.38,1.74,1.74,0,0,1-.39-.59,1.89,1.89,0,0,1-.14-.77,2,2,0,0,1,.13-.73,1.71,1.71,0,0,1,.36-.59,1.76,1.76,0,0,1,.56-.41,1.8,1.8,0,0,1,1.46,0,1.41,1.41,0,0,1,.54.42,1.92,1.92,0,0,1,.32.62,2.35,2.35,0,0,1,.11.75Zm4.37,1.63h-.83v-.6a2,2,0,0,1-.49.48,1.3,1.3,0,0,1-.73.19,1.63,1.63,0,0,1-.62-.12,1.47,1.47,0,0,1-.53-.36,2,2,0,0,1-.38-.59,2.24,2.24,0,0,1-.14-.8,2.2,2.2,0,0,1,.14-.8,1.85,1.85,0,0,1,.37-.59,1.64,1.64,0,0,1,.53-.37,1.72,1.72,0,0,1,.63-.12,1.28,1.28,0,0,1,.73.19,1.93,1.93,0,0,1,.49.45V256H838Zm4.53-1.07a1.91,1.91,0,0,1-1.78,1.15,1.87,1.87,0,0,1-.76-.15,1.7,1.7,0,0,1-.61-.4,2,2,0,0,1-.4-.59,1.79,1.79,0,0,1-.14-.73,2,2,0,0,1,.14-.73,2,2,0,0,1,1-1,2,2,0,0,1,2.15.4,1.73,1.73,0,0,1,.39.6,1.77,1.77,0,0,1,.15.73A1.8,1.8,0,0,1,842.53,259.86Zm3.1-1.73h0a1.35,1.35,0,0,0-.5.09,1.05,1.05,0,0,0-.39.27,1.11,1.11,0,0,0-.25.44,2,2,0,0,0-.09.63v1.37h-.83v-3.6h.83v.81a1.61,1.61,0,0,1,.48-.66,1.17,1.17,0,0,1,.8-.22Z" transform="translate(-701.04 -229.65)"/></g><path class="cls-12" d="M871,243.4h-2.36l-4,9.31h2.56l.65-1.71h3.85l.68,1.71h2.49ZM868.59,249l1.24-3,1.14,3Z" transform="translate(-701.04 -229.65)"/><path class="cls-12" d="M877.31,242h-2.26v8.6a2.47,2.47,0,0,0,.26,1.13,2.15,2.15,0,0,0,2.07,1.17s1.25,0,1.7-.4l-.38-1.76a1.37,1.37,0,0,1-.78.21h0a.65.65,0,0,1-.63-.66Z" transform="translate(-701.04 -229.65)"/><rect class="cls-12" x="178.64" y="16.04" width="2.18" height="7.01"/><circle class="cls-12" cx="179.73" cy="14.02" r="1.26"/><path class="cls-12" d="M886.55,245.53c-3,0-3.25,2.19-3.25,2.19l2.06.46a1.09,1.09,0,0,1,1.18-.92c1.08,0,1,1.14,1,1.14h-2.36a2.26,2.26,0,0,0-2.33,2.25c0,1.46,1.1,2.27,2.6,2.27a2.57,2.57,0,0,0,2-.7v.49h2.12v-4.85S889.57,245.53,886.55,245.53Zm0,5.62a2.44,2.44,0,0,1-.68.08.71.71,0,0,1-.77-.76.63.63,0,0,1,.45-.56,1.23,1.23,0,0,1,.5-.09h1.53A1.37,1.37,0,0,1,886.53,251.15Z" transform="translate(-701.04 -229.65)"/><path class="cls-12" d="M894.19,251a1.74,1.74,0,1,1,1.69-1.75v-3a3.38,3.38,0,0,0-2.08-.72,3.7,3.7,0,0,0,0,7.39,3.33,3.33,0,0,0,2.08-.73v-3A1.71,1.71,0,0,1,894.19,251Z" transform="translate(-701.04 -229.65)"/><polygon class="cls-12" points="194.84 22.54 194.84 23.05 197.07 23.05 197.07 12.35 194.84 12.35 194.84 16.6 194.84 22.54"/><path class="cls-12" d="M901,248.57a1.85,1.85,0,0,0-.13.66,1.8,1.8,0,0,0,.13.66l0,.07v-1.47Zm0-2.67a3.62,3.62,0,0,0,0,6.66l0,0v-6.7Z" transform="translate(-701.04 -229.65)"/><path class="cls-12" d="M864,249.28a1.86,1.86,0,0,0-.54,1.53.07.07,0,0,1-.07.08H860a.07.07,0,0,1-.07-.08,1.88,1.88,0,0,0-.53-1.53,4.31,4.31,0,0,1-1.64-3.22,3.83,3.83,0,0,1,3.89-4.06h0a3.83,3.83,0,0,1,3.9,4.06A4.35,4.35,0,0,1,864,249.28Z" transform="translate(-701.04 -229.65)"/><rect class="cls-12" x="159.07" y="21.49" width="3.22" height="0.74" rx="0.36"/><rect class="cls-12" x="159.83" y="22.39" width="1.7" height="0.74" rx="0.36"/><g class="cls-11"><path class="cls-10" d="M888.7,258.28a1,1,0,0,0-.33-.23.93.93,0,0,0-.4-.09,1.1,1.1,0,0,0-.4.08,1.23,1.23,0,0,0-.33.23,1,1,0,0,0-.22.37,1.42,1.42,0,0,0-.08.48,1.53,1.53,0,0,0,.08.49,1.09,1.09,0,0,0,.22.36,1,1,0,0,0,.33.23,1,1,0,0,0,.8,0,1,1,0,0,0,.33-.23,1.16,1.16,0,0,0,.23-.37,1.42,1.42,0,0,0,.08-.48,1.4,1.4,0,0,0-.08-.47A1.16,1.16,0,0,0,888.7,258.28Z" transform="translate(-701.04 -229.65)"/><path class="cls-10" d="M893.06,258.2a1,1,0,0,0-.28-.2.83.83,0,0,0-.36-.08.8.8,0,0,0-.63.27,1.16,1.16,0,0,0-.31.68h1.85a1.18,1.18,0,0,0-.09-.37A.75.75,0,0,0,893.06,258.2Z" transform="translate(-701.04 -229.65)"/><path class="cls-10" d="M880.14,258.2a1,1,0,0,0-.28-.2.86.86,0,0,0-.36-.08.84.84,0,0,0-.64.27,1.22,1.22,0,0,0-.3.68h1.85a1.18,1.18,0,0,0-.09-.37A.89.89,0,0,0,880.14,258.2Z" transform="translate(-701.04 -229.65)"/><path class="cls-10" d="M873.26,258.28a.9.9,0,0,0-.32-.23.93.93,0,0,0-.4-.09,1,1,0,0,0-.41.09,1,1,0,0,0-.33.23,1.16,1.16,0,0,0-.23.37,1.19,1.19,0,0,0-.08.47,1.21,1.21,0,0,0,.08.48,1.16,1.16,0,0,0,.23.37,1,1,0,0,0,.33.23,1,1,0,0,0,.41.08.92.92,0,0,0,.4-.08.9.9,0,0,0,.32-.23,1.11,1.11,0,0,0,.23-.36,1.53,1.53,0,0,0,.08-.49,1.51,1.51,0,0,0-.08-.48A1.11,1.11,0,0,0,873.26,258.28Z" transform="translate(-701.04 -229.65)"/><path class="cls-10" d="M897.39,258.28a.86.86,0,0,0-.33-.23.93.93,0,0,0-.4-.09,1,1,0,0,0-.39.08,1,1,0,0,0-.33.23,1.06,1.06,0,0,0-.23.37,1.42,1.42,0,0,0-.08.48,1.53,1.53,0,0,0,.08.49,1.11,1.11,0,0,0,.23.36,1,1,0,0,0,.72.31.92.92,0,0,0,.4-.08.86.86,0,0,0,.33-.23,1.16,1.16,0,0,0,.23-.37,1.21,1.21,0,0,0,.08-.48,1.19,1.19,0,0,0-.08-.47A1.16,1.16,0,0,0,897.39,258.28Z" transform="translate(-701.04 -229.65)"/><path class="cls-10" d="M901.07,258v2.27a.81.81,0,0,1-.22-.07,1,1,0,0,1-.35-.25,1.16,1.16,0,0,1-.23-.37,1.31,1.31,0,0,1,0-.9,1.07,1.07,0,0,1,.21-.36,1,1,0,0,1,.35-.25A.84.84,0,0,1,901.07,258Z" transform="translate(-701.04 -229.65)"/><path class="cls-10" d="M899.91,257.81a1.87,1.87,0,0,1,.61-.41,1.8,1.8,0,0,1,.52-.13h0v-2.62H856.15v8.24h44.92V261h0a1.33,1.33,0,0,1-.53-.13,1.7,1.7,0,0,1-.61-.4,1.8,1.8,0,0,1-.54-1.32,1.8,1.8,0,0,1,.15-.73A1.75,1.75,0,0,1,899.91,257.81Zm-36.62,3.12h-3.57v-4.78h3.54v.76h-2.71v1.23H863v.76h-2.4v1.27h2.74Zm6.39,0h-.83v-2a1,1,0,0,0-.19-.66.67.67,0,0,0-.54-.22.7.7,0,0,0-.55.23.93.93,0,0,0-.21.66v2h-.84v-2.05a1,1,0,0,0-.19-.65.64.64,0,0,0-.53-.22.71.71,0,0,0-.56.24,1,1,0,0,0-.21.66v2h-.83v-3.6H865v.55l.19-.24a1.59,1.59,0,0,1,.24-.2,1,1,0,0,1,.3-.14,1.38,1.38,0,0,1,.37-.05,1.11,1.11,0,0,1,.65.18,1.17,1.17,0,0,1,.42.46,1.6,1.6,0,0,1,.51-.46,1.36,1.36,0,0,1,.71-.18,1.23,1.23,0,0,1,.93.36,1.46,1.46,0,0,1,.33,1Zm4.58-1a2,2,0,0,1-.37.59,1.6,1.6,0,0,1-.54.36,1.68,1.68,0,0,1-.63.12,1.28,1.28,0,0,1-.73-.19,1.74,1.74,0,0,1-.49-.44V262h-.83v-4.69h.83v.6a1.86,1.86,0,0,1,.49-.48,1.3,1.3,0,0,1,.73-.2,1.67,1.67,0,0,1,.62.12,1.64,1.64,0,0,1,.53.37,1.87,1.87,0,0,1,.38.59,2,2,0,0,1,.14.8A2,2,0,0,1,874.26,259.93Zm3.1-1.8h-.05a1.35,1.35,0,0,0-.5.09,1.05,1.05,0,0,0-.39.27,1.11,1.11,0,0,0-.25.44,2,2,0,0,0-.09.63v1.37h-.83v-3.6h.83v.81a1.64,1.64,0,0,1,.49-.66,1.13,1.13,0,0,1,.79-.22Zm3.87,1.17s0,.08,0,.12h-2.65a1.08,1.08,0,0,0,.36.68,1,1,0,0,0,.68.23,1.25,1.25,0,0,0,.53-.1,1.82,1.82,0,0,0,.44-.32l.49.42a2,2,0,0,1-.62.5,1.88,1.88,0,0,1-.86.18,1.92,1.92,0,0,1-.72-.14,1.66,1.66,0,0,1-.59-.38,1.74,1.74,0,0,1-.39-.59,1.89,1.89,0,0,1-.14-.77,2,2,0,0,1,.13-.73,1.71,1.71,0,0,1,.36-.59,1.76,1.76,0,0,1,.56-.41,1.8,1.8,0,0,1,1.46,0,1.41,1.41,0,0,1,.54.42,1.92,1.92,0,0,1,.32.62,2.35,2.35,0,0,1,.11.75Zm4.07,1.63h-.83v-2a1,1,0,0,0-.2-.65.7.7,0,0,0-.57-.23.78.78,0,0,0-.58.23.92.92,0,0,0-.22.66v2h-.84v-3.6h.84v.56a1.55,1.55,0,0,1,.19-.24,1,1,0,0,1,.25-.21,1.38,1.38,0,0,1,.3-.14,1.46,1.46,0,0,1,.38-.05,1.18,1.18,0,0,1,.94.38,1.42,1.42,0,0,1,.34,1Zm4.54,0H889v-.6a2,2,0,0,1-.49.48,1.3,1.3,0,0,1-.73.19,1.63,1.63,0,0,1-.62-.12,1.47,1.47,0,0,1-.53-.36,2,2,0,0,1-.38-.59,2.24,2.24,0,0,1-.14-.8,2.2,2.2,0,0,1,.14-.8,1.85,1.85,0,0,1,.37-.59,1.64,1.64,0,0,1,.53-.37,1.72,1.72,0,0,1,.63-.12,1.28,1.28,0,0,1,.73.19,1.93,1.93,0,0,1,.49.45V256h.84Zm4.31-1.63s0,.08,0,.12h-2.65a1.08,1.08,0,0,0,.36.68,1,1,0,0,0,.68.23,1.25,1.25,0,0,0,.53-.1,2.08,2.08,0,0,0,.45-.32l.48.42a2,2,0,0,1-.62.5,1.87,1.87,0,0,1-.85.18,1.94,1.94,0,0,1-.73-.14,1.66,1.66,0,0,1-.59-.38,1.9,1.9,0,0,1-.39-.59,2.07,2.07,0,0,1-.14-.77,2,2,0,0,1,.13-.73,1.87,1.87,0,0,1,.36-.59,1.76,1.76,0,0,1,.56-.41,1.64,1.64,0,0,1,.71-.15,1.62,1.62,0,0,1,.75.16,1.41,1.41,0,0,1,.54.42,1.92,1.92,0,0,1,.32.62,2.35,2.35,0,0,1,.11.75Zm4.38,1.63h-.84v-.6a2,2,0,0,1-.49.48,1.3,1.3,0,0,1-.73.19,1.67,1.67,0,0,1-.62-.12,1.47,1.47,0,0,1-.53-.36,2,2,0,0,1-.38-.59,2.24,2.24,0,0,1-.14-.8,2.2,2.2,0,0,1,.14-.8,1.85,1.85,0,0,1,.37-.59,1.58,1.58,0,0,1,1.16-.49,1.28,1.28,0,0,1,.73.19,1.93,1.93,0,0,1,.49.45V256h.84Z" transform="translate(-701.04 -229.65)"/></g><rect class="cls-12" x="13.28" y="67.09" width="2.22" height="2.91"/><path class="cls-12" d="M749.93,298.08h-2.36l-.67,1.57h3.69Z" transform="translate(-701.04 -229.65)"/><polygon class="cls-12" points="55.23 67.03 55.21 70 52.96 70 52.96 67.03 55.23 67.03"/><circle class="cls-12" cx="58.69" cy="68.7" r="1.26"/><rect class="cls-12" x="73.8" y="67.03" width="2.22" height="2.97"/><path class="cls-12" d="M744.43,299.65h-7.56a3.67,3.67,0,0,1,3.77-3h0A3.66,3.66,0,0,1,744.43,299.65Z" transform="translate(-701.04 -229.65)"/><path class="cls-12" d="M810.45,298.08h-2.36l-.67,1.57h3.69Z" transform="translate(-701.04 -229.65)"/><polygon class="cls-12" points="115.75 67.03 115.73 70 113.49 70 113.49 67.03 115.75 67.03"/><circle class="cls-12" cx="119.21" cy="68.7" r="1.26"/><rect class="cls-12" x="134.32" y="67.03" width="2.22" height="2.97"/><path class="cls-12" d="M805,299.65H797.4a3.66,3.66,0,0,1,3.76-3h0A3.68,3.68,0,0,1,805,299.65Z" transform="translate(-701.04 -229.65)"/><path class="cls-12" d="M871,298.08h-2.36l-.67,1.57h3.69Z" transform="translate(-701.04 -229.65)"/><polygon class="cls-12" points="176.27 67.03 176.26 70 174.01 70 174.01 67.03 176.27 67.03"/><circle class="cls-12" cx="179.73" cy="68.7" r="1.26"/><rect class="cls-12" x="194.84" y="67.03" width="2.22" height="2.97"/><path class="cls-12" d="M865.48,299.65h-7.56a3.66,3.66,0,0,1,3.76-3h0A3.67,3.67,0,0,1,865.48,299.65Z" transform="translate(-701.04 -229.65)"/></svg>