<svg id="Capa_1" data-name="Capa 1" xmlns="http://www.w3.org/2000/svg" viewBox="0 0 165.13 110.93"><defs><style>.cls-1{fill:#8fca00;}</style></defs><path class="cls-1" d="M2051.33,129.88a2.14,2.14,0,0,1-2-1.4l-1.49-4.1a1.21,1.21,0,0,1,1.14-1.63h33.82l-7.13-15.46h-11.29a14.51,14.51,0,0,1-9.61-3.47l-.14-.12a4.43,4.43,0,0,1,3-7.68h13.54V62.39h-40.53a2.45,2.45,0,0,1-2.06-3.75l9.83-15.5a2.42,2.42,0,0,1,2.06-1.14h51.74l2.52-6.91h-54.15a3.83,3.83,0,0,0-3.26,1.82l-16.78,27a1.89,1.89,0,0,1-3.5-1V59.26a1.63,1.63,0,0,0-1.63-1.63h-14.07a1.63,1.63,0,0,0-1.63,1.63V61a7.76,7.76,0,0,0,7.76,7.76h1.65a.5.5,0,0,1,.37.84c-2.51,2.73-9.78,12.27-9.78,31.1V146h23.62V136h70.33l-4.93-6.12Zm-28.42.51C2009.83,130.39,2011,120,2011,120s11.3-.17,11.89,0ZM2015.52,105l-3-11.47h27.77l4.68,13.59Z" transform="translate(-1999.72 -35.09)"/><path class="cls-1" d="M2164.85,62.39v16a88.12,88.12,0,0,1-7.17,35.5c-5.91,13.41-16.43,27.88-34.95,32.15-18.52-4.27-29.06-18.74-34.95-32.15a88.13,88.13,0,0,1-7.18-35.5v-16c19.25,0,21.74-27.3,21.74-27.3h40.78S2145.6,62.39,2164.85,62.39Z" transform="translate(-1999.72 -35.09)"/></svg>