<svg id="Capa_1" data-name="Capa 1" xmlns="http://www.w3.org/2000/svg" viewBox="0 0 200.13 70"><defs><style>.cls-1{fill:#fff;}.cls-2,.cls-5{fill:#a9dc0b;}.cls-2,.cls-3{stroke:#a9dc0b;stroke-miterlimit:10;}.cls-2{stroke-width:0.25px;}.cls-3{fill:none;stroke-linecap:round;stroke-width:0.75px;}.cls-4{opacity:0.15;}.cls-6{fill:#9fd800;}.cls-15,.cls-7{font-size:7px;fill:#191919;font-family:Silka-Regular, Silka;}.cls-8{letter-spacing:-0.04em;}.cls-9{letter-spacing:-0.04em;}.cls-10,.cls-11,.cls-12,.cls-13{font-family:Silka-Medium, Silka;font-weight:500;}.cls-10{letter-spacing:-0.07em;}.cls-12{letter-spacing:-0.04em;}.cls-13{letter-spacing:0em;}.cls-14{letter-spacing:-0.04em;}.cls-15{text-decoration:underline;}</style></defs><rect class="cls-1" x="0.06" width="200" height="70"/><path class="cls-2" d="M486,265.92v5.61h-2.78v-5.61a.85.85,0,0,1,.85-.85h1.08A.85.85,0,0,1,486,265.92Z" transform="translate(-467.1 -229.67)"/><path class="cls-3" d="M486,271.26s2.69-.9,7.3,1.75a4.86,4.86,0,0,0,3.23.59c1.75-.29,4.54-1.28,8.53-4.16.8-.57,1.07-1.52.34-2.18h0a1.66,1.66,0,0,0-1.91-.2l-4.83,2.68" transform="translate(-467.1 -229.67)"/><path class="cls-3" d="M486,265.45a8.81,8.81,0,0,1,8.93,1.19l3.44,2.73a1,1,0,0,1,.09,1.49h0a1,1,0,0,1-1.32.09,9.74,9.74,0,0,0-5.24-2.17" transform="translate(-467.1 -229.67)"/><line class="cls-3" x1="34.9" y1="36.5" x2="34.9" y2="32.47"/><polygon class="cls-2" points="28.13 31.18 30.76 34.48 37.27 31.18 34.54 27.88 28.13 31.18"/><polygon class="cls-2" points="28.13 31.18 21.23 27.88 18.51 31.18 25.73 34.48 28.13 31.18"/><line class="cls-3" x1="28.13" y1="31.48" x2="28.13" y2="36.08"/><polyline class="cls-3" points="21.47 28.02 27.89 26.01 34.29 28.02"/><line class="cls-3" x1="20.7" y1="32.11" x2="20.7" y2="34.26"/><line class="cls-3" x1="27.89" y1="26.01" x2="27.89" y2="29.49"/><g class="cls-4"><path class="cls-5" d="M483.14,239.1a1.45,1.45,0,0,0-1.72-.17l-3,1.85a.34.34,0,0,0-.06-.06l-2.41-1.92a6.37,6.37,0,0,0-4.92-1.36.35.35,0,0,0,.1-.24v-.92l3.33,1.55,1.13-1.57v2.05a.38.38,0,1,0,.75,0v-2.13l1.29,1.65,2.7-1.39v2.33a.38.38,0,0,0,.38.38.37.37,0,0,0,.37-.38v-2.72l1.63-.84-2-2.45-.09-.1h0a.32.32,0,0,0-.21-.18l-4.45-1.4-.15,0-.15,0-4.47,1.4a.41.41,0,0,0-.23.22,0,0,0,0,0,0,0,.35.35,0,0,0-.11.1l-2,2.42,1.52.71v1.26a.36.36,0,0,0,.2.32,5.93,5.93,0,0,0-1.1.32.94.94,0,0,0-.62-.22h-.75a1,1,0,0,0-1,1v4.31h2.69v-.1c.56-.12,2.16-.29,4.56,1.09a3.86,3.86,0,0,0,1.9.51,4.07,4.07,0,0,0,.61-.05,15.29,15.29,0,0,0,6.14-3,1.41,1.41,0,0,0,.61-1.1A1.46,1.46,0,0,0,483.14,239.1ZM469,242.15h-1.19v-3.56a.22.22,0,0,1,.22-.22h.75a.22.22,0,0,1,.22.22ZM481.5,235l-3.7,1.91-1.3-1.67,3.65-1.91Zm-6.12-3.05v1.93a.38.38,0,0,0,.38.38.37.37,0,0,0,.37-.38v-1.93l3.14,1-3.35,1.76-3.66-1.77ZM470,235l1.33-1.66,4,1.94-1.18,1.65-3.32-1.53Zm12.56,5.81a14.76,14.76,0,0,1-5.83,2.85,3.11,3.11,0,0,1-2-.37,7.36,7.36,0,0,0-4.93-1.2v-3.45a.22.22,0,0,0,0-.08,5.77,5.77,0,0,1,5.67.88l2.41,1.91.07.07,0,0v0a.27.27,0,0,1,0,.12.3.3,0,0,1-.09.25.31.31,0,0,1-.43,0,7.26,7.26,0,0,0-3.89-1.6.37.37,0,0,0-.39.36.38.38,0,0,0,.36.39,6.5,6.5,0,0,1,3.46,1.44,1,1,0,0,0,.65.23,1.09,1.09,0,0,0,.77-.32,1.07,1.07,0,0,0,.31-.83.06.06,0,0,0,0,0l3.08-1.88a.71.71,0,0,1,.84.09.68.68,0,0,1,.22.56A.73.73,0,0,1,482.57,240.76Z" transform="translate(-467.1 -229.67)"/></g><g class="cls-4"><path class="cls-5" d="M529,239.1a1.44,1.44,0,0,0-1.72-.17l-3,1.85-.06-.06-2.41-1.92a6.37,6.37,0,0,0-4.92-1.36.35.35,0,0,0,.1-.24v-.92l3.33,1.55,1.13-1.57v2.05a.38.38,0,1,0,.75,0v-2.13l1.29,1.65,2.7-1.4v2.34a.38.38,0,1,0,.75,0v-2.72l1.62-.84-2-2.46-.09-.09h0a.35.35,0,0,0-.21-.18l-4.45-1.4-.15,0-.14,0-4.47,1.4a.4.4,0,0,0-.24.22v0a.35.35,0,0,0-.11.1l-2,2.42,1.52.71v1.26a.35.35,0,0,0,.19.32,5.78,5.78,0,0,0-1.09.32h0a.93.93,0,0,0-.61-.22h-.76a1,1,0,0,0-1,1v4.31h2.7v-.1c.56-.12,2.16-.29,4.56,1.09a3.86,3.86,0,0,0,1.9.51,4.18,4.18,0,0,0,.61-.05,15.41,15.41,0,0,0,6.14-3,1.45,1.45,0,0,0,.13-2.26Zm-14.09,3.05h-1.2v-3.56a.22.22,0,0,1,.22-.22h.76a.22.22,0,0,1,.22.22ZM527.38,235l-3.7,1.91-1.3-1.67L526,233.3Zm-6.12-3.05v1.93a.38.38,0,1,0,.75,0v-1.93l3.14,1-3.35,1.76-3.66-1.77Zm-5.38,3,1.34-1.66,4,1.94-1.19,1.65-3.31-1.53Zm12.56,5.81a14.74,14.74,0,0,1-5.82,2.85,3.1,3.1,0,0,1-2-.37,7.37,7.37,0,0,0-4.93-1.2v-3.45a.22.22,0,0,0,0-.08,5.78,5.78,0,0,1,5.66.88l2.41,1.91a.31.31,0,0,1,.09.11l0,.06a.15.15,0,0,1,0,.07.35.35,0,0,1-.1.25.31.31,0,0,1-.43,0,7.22,7.22,0,0,0-3.88-1.6.37.37,0,0,0-.39.36.38.38,0,0,0,.35.39,6.47,6.47,0,0,1,3.46,1.44,1,1,0,0,0,.66.23,1.09,1.09,0,0,0,.77-.32,1.15,1.15,0,0,0,.31-.83.09.09,0,0,0,0-.05l3.08-1.87a.7.7,0,0,1,.83.09.69.69,0,0,1,.23.56A.71.71,0,0,1,528.44,240.76Z" transform="translate(-467.1 -229.67)"/></g><g class="cls-4"><path class="cls-5" d="M574.89,239.1a1.45,1.45,0,0,0-1.72-.17l-3,1.85-.06-.06-2.41-1.92a6.3,6.3,0,0,0-4.93-1.35.37.37,0,0,0,.1-.25v-.92l3.34,1.55,1.13-1.57v2.05a.37.37,0,0,0,.37.38.38.38,0,0,0,.38-.38v-2.13l1.29,1.65,2.7-1.4v2.34a.38.38,0,1,0,.75,0v-2.72l1.62-.84-2-2.45-.09-.1h0a.35.35,0,0,0-.21-.18l-4.45-1.4-.15,0a.32.32,0,0,0-.14,0l-4.47,1.4a.4.4,0,0,0-.24.22v0a.35.35,0,0,0-.11.1l-2,2.42,1.51.7v1.27a.36.36,0,0,0,.2.32,5.78,5.78,0,0,0-1.09.32h0a.93.93,0,0,0-.61-.22h-.76a1,1,0,0,0-1,1v4.31h2.7v-.1c.58-.13,2.18-.28,4.56,1.09a3.86,3.86,0,0,0,1.9.51,4.18,4.18,0,0,0,.61-.05,15.41,15.41,0,0,0,6.14-3,1.45,1.45,0,0,0,.13-2.26Zm-14.09,3.05h-1.2v-3.56a.22.22,0,0,1,.22-.22h.76a.22.22,0,0,1,.22.22ZM573.26,235l-3.7,1.91-1.31-1.67,3.65-1.91Zm-6.12-3.05v1.93a.38.38,0,1,0,.75,0v-1.93l3.14,1-3.35,1.76L564,232.9Zm-5.38,3,1.34-1.66,4,1.94-1.19,1.65-3.31-1.53Zm12.56,5.81a14.74,14.74,0,0,1-5.82,2.85,3.1,3.1,0,0,1-2-.37,7.37,7.37,0,0,0-4.93-1.2v-3.45a.22.22,0,0,0,0-.08,5.75,5.75,0,0,1,5.66.88l2.41,1.91a.31.31,0,0,1,.09.11l0,.06a.15.15,0,0,1,0,.07.35.35,0,0,1-.1.25.31.31,0,0,1-.43,0,7.22,7.22,0,0,0-3.88-1.6.36.36,0,0,0-.39.36.38.38,0,0,0,.35.39,6.47,6.47,0,0,1,3.46,1.44,1,1,0,0,0,.66.23,1.09,1.09,0,0,0,.77-.32,1.15,1.15,0,0,0,.31-.83.09.09,0,0,0,0-.05l3.08-1.87a.7.7,0,0,1,.83.09.69.69,0,0,1,.23.56A.71.71,0,0,1,574.32,240.76Z" transform="translate(-467.1 -229.67)"/></g><g class="cls-4"><path class="cls-5" d="M567.66,231.07l-.15,0a.32.32,0,0,0-.14,0l.14,0Z" transform="translate(-467.1 -229.67)"/></g><g class="cls-4"><path class="cls-5" d="M613.64,231.07a.32.32,0,0,0-.14,0l-.15,0,.15,0Z" transform="translate(-467.1 -229.67)"/></g><g class="cls-4"><path class="cls-5" d="M620.88,239.1a1.46,1.46,0,0,0-1.73-.17l-3,1.85a.34.34,0,0,0-.06-.06l-2.41-1.92a6.37,6.37,0,0,0-4.92-1.36.35.35,0,0,0,.1-.24v-.92l3.33,1.55,1.13-1.57v2.05a.38.38,0,1,0,.75,0v-2.13l1.29,1.65,2.7-1.4v2.34a.38.38,0,1,0,.75,0v-2.72l1.62-.84-2-2.45-.1-.11a0,0,0,0,0,0,0,.36.36,0,0,0-.21-.17l-4.45-1.4a.32.32,0,0,0-.14,0l-.15,0-4.47,1.4a.4.4,0,0,0-.25.24.47.47,0,0,0-.1.1l-2,2.42,1.52.71v1.26a.35.35,0,0,0,.19.32,5.78,5.78,0,0,0-1.09.32h0a.93.93,0,0,0-.61-.22h-.76a1,1,0,0,0-1,1v4.31h2.7v-.1c.56-.12,2.16-.29,4.56,1.09a3.86,3.86,0,0,0,1.9.51,4.18,4.18,0,0,0,.61-.05,15.41,15.41,0,0,0,6.14-3,1.47,1.47,0,0,0,.61-1.1A1.49,1.49,0,0,0,620.88,239.1Zm-14.1,3.05h-1.2v-3.56a.22.22,0,0,1,.22-.22h.76a.22.22,0,0,1,.22.22ZM619.24,235l-3.7,1.91-1.3-1.67,3.64-1.91Zm-6.12-3.05v1.93a.38.38,0,1,0,.75,0v-1.93l3.14,1-3.35,1.76L610,232.9Zm-5.38,3,1.34-1.66,4,1.94-1.19,1.65-3.31-1.53Zm12.56,5.81a14.74,14.74,0,0,1-5.82,2.85,3.1,3.1,0,0,1-2-.37,7.37,7.37,0,0,0-4.93-1.2v-3.45a.22.22,0,0,0,0-.08,5.75,5.75,0,0,1,5.66.88l2.41,1.91a.31.31,0,0,1,.09.11l0,.06a.15.15,0,0,1,0,.07.35.35,0,0,1-.1.25.31.31,0,0,1-.43,0,7.22,7.22,0,0,0-3.88-1.6.38.38,0,0,0,0,.75,6.47,6.47,0,0,1,3.46,1.44,1,1,0,0,0,.66.23,1.09,1.09,0,0,0,.77-.32,1.11,1.11,0,0,0,.31-.83.09.09,0,0,0,0-.05l3.08-1.87a.7.7,0,0,1,.83.09.69.69,0,0,1,.23.56A.71.71,0,0,1,620.3,240.76Z" transform="translate(-467.1 -229.67)"/></g><g class="cls-4"><path class="cls-5" d="M666.75,239.1a1.44,1.44,0,0,0-1.72-.17l-3,1.85-.06-.06-2.41-1.92a6.37,6.37,0,0,0-4.92-1.36.35.35,0,0,0,.1-.24v-.92l3.33,1.55,1.13-1.57v2.05a.38.38,0,1,0,.75,0v-2.13l1.29,1.65,2.7-1.4v2.34a.38.38,0,1,0,.75,0v-2.72l1.62-.84-2-2.46-.09-.09h0a.35.35,0,0,0-.21-.18l-4.45-1.4-.15,0a.32.32,0,0,0-.14,0l-4.47,1.4a.4.4,0,0,0-.24.22v0a.35.35,0,0,0-.11.1l-2,2.42,1.52.71v1.26a.35.35,0,0,0,.19.32,5.78,5.78,0,0,0-1.09.32h0a.93.93,0,0,0-.61-.22h-.76a1,1,0,0,0-1,1v4.31h2.7v-.1c.56-.12,2.16-.29,4.56,1.09a3.86,3.86,0,0,0,1.9.51,4.18,4.18,0,0,0,.61-.05,15.41,15.41,0,0,0,6.14-3,1.45,1.45,0,0,0,.13-2.26Zm-14.09,3.05h-1.2v-3.56a.22.22,0,0,1,.22-.22h.76a.22.22,0,0,1,.22.22ZM665.12,235l-3.7,1.91-1.3-1.67,3.64-1.91ZM659,231.92v1.93a.38.38,0,1,0,.75,0v-1.93l3.14,1-3.35,1.76-3.66-1.77Zm-5.38,3,1.34-1.66,4,1.94-1.19,1.65-3.31-1.53Zm12.56,5.81a14.74,14.74,0,0,1-5.82,2.85,3.1,3.1,0,0,1-2-.37,7.37,7.37,0,0,0-4.93-1.2v-3.45a.22.22,0,0,0,0-.08,5.78,5.78,0,0,1,5.66.88l2.41,1.91a.31.31,0,0,1,.09.11l0,.06a.15.15,0,0,1,0,.07.35.35,0,0,1-.1.25.31.31,0,0,1-.43,0,7.22,7.22,0,0,0-3.88-1.6.37.37,0,0,0-.39.36.38.38,0,0,0,.35.39,6.47,6.47,0,0,1,3.46,1.44,1,1,0,0,0,.66.23,1.09,1.09,0,0,0,.77-.32,1.11,1.11,0,0,0,.31-.83.09.09,0,0,0,0-.05l3.08-1.87a.7.7,0,0,1,.83.09.69.69,0,0,1,.23.56A.71.71,0,0,1,666.18,240.76Z" transform="translate(-467.1 -229.67)"/></g><g class="cls-4"><path class="cls-5" d="M659.52,231.07l-.15,0a.32.32,0,0,0-.14,0l.14,0Z" transform="translate(-467.1 -229.67)"/></g><g class="cls-4"><path class="cls-5" d="M505.58,237.62h-.76a.93.93,0,0,0-.61.22h0a5.78,5.78,0,0,0-1.09-.32.35.35,0,0,0,.19-.32v-1.26l1.52-.71-2-2.42a.35.35,0,0,0-.11-.1v0a.4.4,0,0,0-.24-.22l-4.47-1.4-.14,0-.15,0-4.45,1.4a.35.35,0,0,0-.21.18l-.1.1-2,2.46,1.62.84v2.72a.38.38,0,1,0,.75,0v-2.34l2.7,1.4,1.29-1.65v2.13a.38.38,0,1,0,.75,0v-2.05l1.13,1.57,3.33-1.55v.92a.35.35,0,0,0,.1.24,6.37,6.37,0,0,0-4.92,1.36l-2.41,1.92a.34.34,0,0,0-.06.06l-3-1.85a1.44,1.44,0,0,0-1.72.17,1.45,1.45,0,0,0,.13,2.26,15.41,15.41,0,0,0,6.14,3,4.18,4.18,0,0,0,.61.05,3.86,3.86,0,0,0,1.9-.51,6.56,6.56,0,0,1,4.56-1.09v.1h2.7v-4.31A1,1,0,0,0,505.58,237.62Zm-9.74-.74-3.7-1.91,1.36-1.67,3.65,1.91Zm1.88-2.21-3.35-1.76,3.14-1v1.93a.38.38,0,1,0,.75,0v-1.93l3.12,1Zm1.75,2.21-1.19-1.65,4-1.95,1.36,1.67-.85.4Zm-.55,6.36a3.1,3.1,0,0,1-2,.37,14.74,14.74,0,0,1-5.82-2.85.71.71,0,0,1-.3-.54.69.69,0,0,1,.23-.56.7.7,0,0,1,.83-.09l3.09,1.88a.06.06,0,0,0,0,0,1.06,1.06,0,0,0,1.07,1.15,1,1,0,0,0,.66-.23,6.47,6.47,0,0,1,3.46-1.44.38.38,0,0,0,.35-.39.36.36,0,0,0-.39-.36,7.22,7.22,0,0,0-3.88,1.6.31.31,0,0,1-.43,0,.35.35,0,0,1-.1-.25.15.15,0,0,1,0-.07l0-.06a.31.31,0,0,1,.09-.11l2.41-1.91a5.75,5.75,0,0,1,5.66-.88.22.22,0,0,0,0,.08V242A7.37,7.37,0,0,0,498.92,243.24Zm6.88-1.09h-1.2v-3.56a.22.22,0,0,1,.22-.22h.76a.22.22,0,0,1,.22.22Z" transform="translate(-467.1 -229.67)"/></g><g class="cls-4"><path class="cls-5" d="M551.46,237.62h-.76a.93.93,0,0,0-.61.22h0a5.78,5.78,0,0,0-1.09-.32.35.35,0,0,0,.19-.32v-1.26l1.52-.71-2-2.42a.35.35,0,0,0-.11-.1v0a.4.4,0,0,0-.24-.22l-4.47-1.4-.14,0-.15,0-4.45,1.4a.35.35,0,0,0-.21.18l-.1.1-2,2.46,1.62.84v2.72a.38.38,0,1,0,.75,0v-2.34l2.7,1.4,1.29-1.65v2.13a.38.38,0,1,0,.75,0v-2.05l1.13,1.57,3.33-1.55v.92a.35.35,0,0,0,.1.24,6.37,6.37,0,0,0-4.92,1.36l-2.41,1.92a.34.34,0,0,0-.06.06l-3-1.85a1.46,1.46,0,0,0-1.73.17,1.49,1.49,0,0,0-.47,1.16,1.47,1.47,0,0,0,.61,1.1,15.41,15.41,0,0,0,6.14,3,4.18,4.18,0,0,0,.61.05,3.86,3.86,0,0,0,1.9-.51,6.56,6.56,0,0,1,4.56-1.09v.1h2.7v-4.31A1,1,0,0,0,551.46,237.62Zm-9.74-.74L538,235l1.36-1.67,3.65,1.91Zm1.88-2.21-3.35-1.76,3.14-1v1.93a.38.38,0,1,0,.75,0v-1.93l3.12,1Zm1.75,2.21-1.19-1.65,4-1.95,1.36,1.67-.85.4Zm4.38,1.71V242a7.37,7.37,0,0,0-4.93,1.2,3.11,3.11,0,0,1-2,.37,14.74,14.74,0,0,1-5.82-2.85.71.71,0,0,1-.3-.54.69.69,0,0,1,.23-.56.7.7,0,0,1,.83-.09l3.08,1.87a.09.09,0,0,0,0,.05,1.11,1.11,0,0,0,.31.83,1.09,1.09,0,0,0,.77.32,1,1,0,0,0,.66-.23A6.47,6.47,0,0,1,546,241a.38.38,0,0,0,.35-.39.37.37,0,0,0-.39-.36,7.22,7.22,0,0,0-3.88,1.6.31.31,0,0,1-.43,0,.35.35,0,0,1-.1-.25.15.15,0,0,1,0-.07l0-.06a.31.31,0,0,1,.09-.11l2.41-1.91a5.78,5.78,0,0,1,5.66-.88A.22.22,0,0,0,549.73,238.59Zm1.95,3.56h-1.2v-3.56a.22.22,0,0,1,.22-.22h.76a.22.22,0,0,1,.22.22Z" transform="translate(-467.1 -229.67)"/></g><g class="cls-4"><path class="cls-5" d="M597.44,237.62h-.75a1,1,0,0,0-.62.22h0a5.78,5.78,0,0,0-1.09-.32.36.36,0,0,0,.2-.32v-1.27l1.51-.7-2-2.42a.35.35,0,0,0-.11-.1v0a.4.4,0,0,0-.24-.22l-4.47-1.4a.32.32,0,0,0-.14,0l-.15,0-4.45,1.4a.35.35,0,0,0-.21.18h0l-.09.09-2,2.46,1.62.84v2.72a.38.38,0,1,0,.75,0v-2.34l2.7,1.4,1.29-1.65v2.13a.38.38,0,0,0,.38.38.37.37,0,0,0,.37-.38v-2.05l1.13,1.57,3.34-1.55v.92a.35.35,0,0,0,.1.24,6.39,6.39,0,0,0-4.93,1.36l-2.41,1.92-.06.06-3-1.85a1.44,1.44,0,0,0-1.72.17,1.45,1.45,0,0,0,.13,2.26,15.41,15.41,0,0,0,6.14,3,4.18,4.18,0,0,0,.61.05,3.93,3.93,0,0,0,1.91-.51,6.53,6.53,0,0,1,4.55-1.09v.1h2.7v-4.31A1,1,0,0,0,597.44,237.62Zm-9.73-.74L584,235l1.36-1.67,3.65,1.91Zm1.87-2.21-3.35-1.76,3.14-1v1.93a.38.38,0,1,0,.75,0v-1.93l3.12,1Zm1.75,2.21-1.19-1.65,4-1.95L595.5,235l-.86.4Zm4.38,1.71V242a7.37,7.37,0,0,0-4.93,1.2,3.08,3.08,0,0,1-2,.37,14.7,14.7,0,0,1-5.83-2.85.75.75,0,0,1-.3-.54.69.69,0,0,1,.23-.56.7.7,0,0,1,.83-.09l3.09,1.88a.06.06,0,0,0,0,0,1.06,1.06,0,0,0,1.07,1.15,1,1,0,0,0,.66-.23A6.47,6.47,0,0,1,592,241a.38.38,0,0,0,.35-.39.36.36,0,0,0-.39-.36,7.22,7.22,0,0,0-3.88,1.6.31.31,0,0,1-.43,0,.35.35,0,0,1-.1-.25.15.15,0,0,1,0-.07l0-.06a.31.31,0,0,1,.09-.11l2.41-1.91a5.78,5.78,0,0,1,5.66-.88A.22.22,0,0,0,595.71,238.59Zm1.95,3.56h-1.2v-3.56a.22.22,0,0,1,.23-.22h.75a.22.22,0,0,1,.22.22Z" transform="translate(-467.1 -229.67)"/></g><g class="cls-4"><path class="cls-5" d="M589.89,231.07a.32.32,0,0,0-.14,0l-.15,0,.15,0Z" transform="translate(-467.1 -229.67)"/></g><g class="cls-4"><path class="cls-5" d="M643.32,237.62h-.76a.93.93,0,0,0-.61.22h0a5.78,5.78,0,0,0-1.09-.32.35.35,0,0,0,.19-.32v-1.26l1.52-.71-2-2.42a.35.35,0,0,0-.11-.1v0a.4.4,0,0,0-.24-.22l-4.47-1.4a.32.32,0,0,0-.14,0l-.15,0-4.45,1.4a.35.35,0,0,0-.21.18h0l-.09.09-2,2.46,1.62.84v2.72a.38.38,0,1,0,.75,0v-2.34l2.7,1.4,1.29-1.65v2.13a.38.38,0,0,0,.38.38.37.37,0,0,0,.37-.38v-2.05l1.13,1.57,3.33-1.55v.92a.35.35,0,0,0,.1.24,6.37,6.37,0,0,0-4.92,1.36l-2.41,1.92-.06.06-3-1.85a1.45,1.45,0,0,0-1.72.17,1.45,1.45,0,0,0,.13,2.26,15.41,15.41,0,0,0,6.14,3,4.18,4.18,0,0,0,.61.05,3.86,3.86,0,0,0,1.9-.51,6.56,6.56,0,0,1,4.56-1.09v.1h2.7v-4.31A1,1,0,0,0,643.32,237.62Zm-9.74-.74-3.7-1.91,1.36-1.67,3.65,1.91Zm1.88-2.21-3.35-1.76,3.14-1v1.93a.38.38,0,1,0,.75,0v-1.93l3.12,1Zm1.75,2.21L636,235.23l4-1.95,1.36,1.67-.85.4Zm4.38,1.71V242a7.37,7.37,0,0,0-4.93,1.2,3.1,3.1,0,0,1-2,.37,14.74,14.74,0,0,1-5.82-2.85.71.71,0,0,1-.3-.54.69.69,0,0,1,.23-.56.7.7,0,0,1,.83-.09l3.09,1.88a.06.06,0,0,0,0,0,1.06,1.06,0,0,0,1.07,1.15,1,1,0,0,0,.66-.23,6.47,6.47,0,0,1,3.46-1.44.38.38,0,0,0,.35-.39.36.36,0,0,0-.39-.36,7.22,7.22,0,0,0-3.88,1.6.31.31,0,0,1-.43,0,.35.35,0,0,1-.1-.25.15.15,0,0,1,0-.07l0-.06a.31.31,0,0,1,.09-.11l2.41-1.91a5.75,5.75,0,0,1,5.66-.88A.22.22,0,0,0,641.59,238.59Zm1.95,3.56h-1.2v-3.56a.22.22,0,0,1,.22-.22h.76a.22.22,0,0,1,.22.22Z" transform="translate(-467.1 -229.67)"/></g><g class="cls-4"><path class="cls-5" d="M635.77,231.07a.32.32,0,0,0-.14,0l-.15,0,.15,0Z" transform="translate(-467.1 -229.67)"/></g><g class="cls-4"><path class="cls-5" d="M483.14,256.1a1.45,1.45,0,0,0-1.72-.17l-3,1.85-.06-.06-2.41-1.92a6.37,6.37,0,0,0-4.92-1.36.35.35,0,0,0,.1-.24v-.92l3.33,1.55,1.13-1.57v2.05a.38.38,0,1,0,.75,0v-2.13l1.29,1.65,2.7-1.39v2.33a.38.38,0,0,0,.38.38.37.37,0,0,0,.37-.38v-2.72l1.63-.84-2-2.45-.09-.1h0a.32.32,0,0,0-.21-.18l-4.45-1.4-.15,0-.15,0-4.47,1.4a.41.41,0,0,0-.23.22,0,0,0,0,0,0,0,.35.35,0,0,0-.11.1l-2,2.42,1.52.71v1.26a.36.36,0,0,0,.2.32,5.93,5.93,0,0,0-1.1.32.94.94,0,0,0-.62-.22h-.75a1,1,0,0,0-1,1v4.31h2.69v-.1c.56-.12,2.16-.29,4.56,1.09a3.86,3.86,0,0,0,1.9.51,4.07,4.07,0,0,0,.61,0,15.29,15.29,0,0,0,6.14-3,1.41,1.41,0,0,0,.61-1.1A1.46,1.46,0,0,0,483.14,256.1Zm-14.1,3h-1.19v-3.56a.22.22,0,0,1,.22-.22h.75a.22.22,0,0,1,.22.22ZM481.5,252l-3.7,1.91-1.3-1.67,3.65-1.91Zm-6.12-3.05v1.93a.38.38,0,0,0,.38.38.37.37,0,0,0,.37-.38v-1.93l3.14,1-3.35,1.76-3.66-1.77ZM470,252l1.33-1.66,4,1.94-1.18,1.65-3.32-1.53Zm12.56,5.81a14.76,14.76,0,0,1-5.83,2.85,3.11,3.11,0,0,1-2-.37,7.36,7.36,0,0,0-4.93-1.2v-3.45a.22.22,0,0,0,0-.08,5.77,5.77,0,0,1,5.67.88l2.41,1.91.07.07,0,0v0a.27.27,0,0,1,0,.12.3.3,0,0,1-.09.25.31.31,0,0,1-.43,0,7.26,7.26,0,0,0-3.89-1.6.37.37,0,0,0-.39.36.38.38,0,0,0,.36.39,6.5,6.5,0,0,1,3.46,1.44,1,1,0,0,0,.65.23,1.09,1.09,0,0,0,.77-.32,1.07,1.07,0,0,0,.31-.83.06.06,0,0,0,0,0l3.08-1.88a.71.71,0,0,1,.84.09.68.68,0,0,1,.22.56A.73.73,0,0,1,482.57,257.76Z" transform="translate(-467.1 -229.67)"/></g><g class="cls-4"><path class="cls-5" d="M529,256.1a1.44,1.44,0,0,0-1.72-.17l-3,1.85-.06-.06-2.41-1.92a6.37,6.37,0,0,0-4.92-1.36.35.35,0,0,0,.1-.24v-.92l3.33,1.55,1.13-1.57v2.05a.38.38,0,1,0,.75,0v-2.13l1.29,1.65,2.7-1.4v2.34a.38.38,0,1,0,.75,0v-2.72l1.62-.84-2-2.46-.09-.09h0a.35.35,0,0,0-.21-.18l-4.45-1.4-.15,0-.14,0-4.47,1.4a.4.4,0,0,0-.24.22v0a.35.35,0,0,0-.11.1l-2,2.42,1.52.71v1.26a.35.35,0,0,0,.19.32,5.78,5.78,0,0,0-1.09.32h0a.93.93,0,0,0-.61-.22h-.76a1,1,0,0,0-1,1v4.31h2.7v-.1c.56-.12,2.16-.29,4.56,1.09a3.86,3.86,0,0,0,1.9.51,4.18,4.18,0,0,0,.61,0,15.41,15.41,0,0,0,6.14-3,1.45,1.45,0,0,0,.13-2.26Zm-14.09,3h-1.2v-3.56a.22.22,0,0,1,.22-.22h.76a.22.22,0,0,1,.22.22ZM527.38,252l-3.7,1.91-1.3-1.67L526,250.3Zm-6.12-3.05v1.93a.38.38,0,1,0,.75,0v-1.93l3.14,1-3.35,1.76-3.66-1.77Zm-5.38,3,1.34-1.66,4,1.94-1.19,1.65-3.31-1.53Zm12.56,5.81a14.74,14.74,0,0,1-5.82,2.85,3.1,3.1,0,0,1-2-.37,7.37,7.37,0,0,0-4.93-1.2v-3.45a.22.22,0,0,0,0-.08,5.78,5.78,0,0,1,5.66.88l2.41,1.91a.31.31,0,0,1,.09.11l0,.06a.15.15,0,0,1,0,.07.35.35,0,0,1-.1.25.31.31,0,0,1-.43,0,7.22,7.22,0,0,0-3.88-1.6.37.37,0,0,0-.39.36.38.38,0,0,0,.35.39,6.47,6.47,0,0,1,3.46,1.44,1,1,0,0,0,.66.23,1.09,1.09,0,0,0,.77-.32,1.15,1.15,0,0,0,.31-.83.09.09,0,0,0,0-.05l3.08-1.87a.7.7,0,0,1,.83.09.69.69,0,0,1,.23.56A.71.71,0,0,1,528.44,257.76Z" transform="translate(-467.1 -229.67)"/></g><g class="cls-4"><path class="cls-5" d="M574.89,256.1a1.45,1.45,0,0,0-1.72-.17l-3,1.85-.06-.06-2.41-1.92a6.3,6.3,0,0,0-4.93-1.35.37.37,0,0,0,.1-.25v-.92l3.34,1.55,1.13-1.57v2.05a.37.37,0,0,0,.37.38.38.38,0,0,0,.38-.38v-2.13l1.29,1.65,2.7-1.4v2.34a.38.38,0,1,0,.75,0v-2.72l1.62-.84-2-2.45-.09-.1h0a.35.35,0,0,0-.21-.18l-4.45-1.4-.15,0a.32.32,0,0,0-.14,0l-4.47,1.4a.4.4,0,0,0-.24.22v0a.35.35,0,0,0-.11.1l-2,2.42,1.51.7v1.27a.36.36,0,0,0,.2.32,5.78,5.78,0,0,0-1.09.32h0a.93.93,0,0,0-.61-.22h-.76a1,1,0,0,0-1,1v4.31h2.7v-.1c.58-.13,2.18-.28,4.56,1.09a3.86,3.86,0,0,0,1.9.51,4.18,4.18,0,0,0,.61,0,15.41,15.41,0,0,0,6.14-3,1.45,1.45,0,0,0,.13-2.26Zm-14.09,3h-1.2v-3.56a.22.22,0,0,1,.22-.22h.76a.22.22,0,0,1,.22.22ZM573.26,252l-3.7,1.91-1.31-1.67,3.65-1.91Zm-6.12-3.05v1.93a.38.38,0,1,0,.75,0v-1.93l3.14,1-3.35,1.76L564,249.9Zm-5.38,3,1.34-1.66,4,1.94-1.19,1.65-3.31-1.53Zm12.56,5.81a14.74,14.74,0,0,1-5.82,2.85,3.1,3.1,0,0,1-2-.37,7.37,7.37,0,0,0-4.93-1.2v-3.45a.22.22,0,0,0,0-.08,5.75,5.75,0,0,1,5.66.88l2.41,1.91a.31.31,0,0,1,.09.11l0,.06a.15.15,0,0,1,0,.07.35.35,0,0,1-.1.25.31.31,0,0,1-.43,0,7.22,7.22,0,0,0-3.88-1.6.36.36,0,0,0-.39.36.38.38,0,0,0,.35.39,6.47,6.47,0,0,1,3.46,1.44,1,1,0,0,0,.66.23,1.09,1.09,0,0,0,.77-.32,1.15,1.15,0,0,0,.31-.83.09.09,0,0,0,0-.05l3.08-1.87a.7.7,0,0,1,.83.09.69.69,0,0,1,.23.56A.71.71,0,0,1,574.32,257.76Z" transform="translate(-467.1 -229.67)"/></g><g class="cls-4"><path class="cls-5" d="M567.66,248.07l-.15,0a.32.32,0,0,0-.14,0l.14,0Z" transform="translate(-467.1 -229.67)"/></g><g class="cls-4"><path class="cls-5" d="M613.64,248.07a.32.32,0,0,0-.14,0l-.15,0,.15,0Z" transform="translate(-467.1 -229.67)"/></g><g class="cls-4"><path class="cls-5" d="M620.88,256.1a1.46,1.46,0,0,0-1.73-.17l-3,1.85a.34.34,0,0,0-.06-.06l-2.41-1.92a6.37,6.37,0,0,0-4.92-1.36.35.35,0,0,0,.1-.24v-.92l3.33,1.55,1.13-1.57v2.05a.38.38,0,1,0,.75,0v-2.13l1.29,1.65,2.7-1.4v2.34a.38.38,0,1,0,.75,0v-2.72l1.62-.84-2-2.45-.1-.11a0,0,0,0,0,0,0,.36.36,0,0,0-.21-.17l-4.45-1.4a.32.32,0,0,0-.14,0l-.15,0-4.47,1.4a.4.4,0,0,0-.25.24.47.47,0,0,0-.1.1l-2,2.42,1.52.71v1.26a.35.35,0,0,0,.19.32,5.78,5.78,0,0,0-1.09.32h0a.93.93,0,0,0-.61-.22h-.76a1,1,0,0,0-1,1v4.31h2.7v-.1c.56-.12,2.16-.29,4.56,1.09a3.86,3.86,0,0,0,1.9.51,4.18,4.18,0,0,0,.61,0,15.41,15.41,0,0,0,6.14-3,1.47,1.47,0,0,0,.61-1.1A1.49,1.49,0,0,0,620.88,256.1Zm-14.1,3h-1.2v-3.56a.22.22,0,0,1,.22-.22h.76a.22.22,0,0,1,.22.22ZM619.24,252l-3.7,1.91-1.3-1.67,3.64-1.91Zm-6.12-3.05v1.93a.38.38,0,1,0,.75,0v-1.93l3.14,1-3.35,1.76L610,249.9Zm-5.38,3,1.34-1.66,4,1.94-1.19,1.65-3.31-1.53Zm12.56,5.81a14.74,14.74,0,0,1-5.82,2.85,3.1,3.1,0,0,1-2-.37,7.37,7.37,0,0,0-4.93-1.2v-3.45a.22.22,0,0,0,0-.08,5.75,5.75,0,0,1,5.66.88l2.41,1.91a.31.31,0,0,1,.09.11l0,.06a.15.15,0,0,1,0,.07.35.35,0,0,1-.1.25.31.31,0,0,1-.43,0,7.22,7.22,0,0,0-3.88-1.6.38.38,0,0,0,0,.75,6.47,6.47,0,0,1,3.46,1.44,1,1,0,0,0,.66.23,1.09,1.09,0,0,0,.77-.32,1.11,1.11,0,0,0,.31-.83.09.09,0,0,0,0-.05l3.08-1.87a.7.7,0,0,1,.83.09.69.69,0,0,1,.23.56A.71.71,0,0,1,620.3,257.76Z" transform="translate(-467.1 -229.67)"/></g><g class="cls-4"><path class="cls-5" d="M666.75,256.1a1.44,1.44,0,0,0-1.72-.17l-3,1.85-.06-.06-2.41-1.92a6.37,6.37,0,0,0-4.92-1.36.35.35,0,0,0,.1-.24v-.92l3.33,1.55,1.13-1.57v2.05a.38.38,0,1,0,.75,0v-2.13l1.29,1.65,2.7-1.4v2.34a.38.38,0,1,0,.75,0v-2.72l1.62-.84-2-2.46-.09-.09h0a.35.35,0,0,0-.21-.18l-4.45-1.4-.15,0a.32.32,0,0,0-.14,0l-4.47,1.4a.4.4,0,0,0-.24.22v0a.35.35,0,0,0-.11.1l-2,2.42,1.52.71v1.26a.35.35,0,0,0,.19.32,5.78,5.78,0,0,0-1.09.32h0a.93.93,0,0,0-.61-.22h-.76a1,1,0,0,0-1,1v4.31h2.7v-.1c.56-.12,2.16-.29,4.56,1.09a3.86,3.86,0,0,0,1.9.51,4.18,4.18,0,0,0,.61,0,15.41,15.41,0,0,0,6.14-3,1.45,1.45,0,0,0,.13-2.26Zm-14.09,3h-1.2v-3.56a.22.22,0,0,1,.22-.22h.76a.22.22,0,0,1,.22.22ZM665.12,252l-3.7,1.91-1.3-1.67,3.64-1.91ZM659,248.92v1.93a.38.38,0,1,0,.75,0v-1.93l3.14,1-3.35,1.76-3.66-1.77Zm-5.38,3,1.34-1.66,4,1.94-1.19,1.65-3.31-1.53Zm12.56,5.81a14.74,14.74,0,0,1-5.82,2.85,3.1,3.1,0,0,1-2-.37,7.37,7.37,0,0,0-4.93-1.2v-3.45a.22.22,0,0,0,0-.08,5.78,5.78,0,0,1,5.66.88l2.41,1.91a.31.31,0,0,1,.09.11l0,.06a.15.15,0,0,1,0,.07.35.35,0,0,1-.1.25.31.31,0,0,1-.43,0,7.22,7.22,0,0,0-3.88-1.6.37.37,0,0,0-.39.36.38.38,0,0,0,.35.39,6.47,6.47,0,0,1,3.46,1.44,1,1,0,0,0,.66.23,1.09,1.09,0,0,0,.77-.32,1.11,1.11,0,0,0,.31-.83.09.09,0,0,0,0-.05l3.08-1.87a.7.7,0,0,1,.83.09.69.69,0,0,1,.23.56A.71.71,0,0,1,666.18,257.76Z" transform="translate(-467.1 -229.67)"/></g><g class="cls-4"><path class="cls-5" d="M659.52,248.07l-.15,0a.32.32,0,0,0-.14,0l.14,0Z" transform="translate(-467.1 -229.67)"/></g><g class="cls-4"><path class="cls-5" d="M505.58,254.62h-.76a.93.93,0,0,0-.61.22h0a5.78,5.78,0,0,0-1.09-.32.35.35,0,0,0,.19-.32v-1.26l1.52-.71-2-2.42a.35.35,0,0,0-.11-.1v0a.4.4,0,0,0-.24-.22l-4.47-1.4-.14,0-.15,0-4.45,1.4a.35.35,0,0,0-.21.18l-.1.1-2,2.46,1.62.84v2.72a.38.38,0,1,0,.75,0v-2.34l2.7,1.4,1.29-1.65v2.13a.38.38,0,1,0,.75,0v-2.05l1.13,1.57,3.33-1.55v.92a.35.35,0,0,0,.1.24,6.37,6.37,0,0,0-4.92,1.36l-2.41,1.92-.06.06-3-1.85a1.44,1.44,0,0,0-1.72.17,1.45,1.45,0,0,0,.13,2.26,15.41,15.41,0,0,0,6.14,3,4.18,4.18,0,0,0,.61,0,3.86,3.86,0,0,0,1.9-.51,6.56,6.56,0,0,1,4.56-1.09v.1h2.7v-4.31A1,1,0,0,0,505.58,254.62Zm-9.74-.74-3.7-1.91,1.36-1.67,3.65,1.91Zm1.88-2.21-3.35-1.76,3.14-1v1.93a.38.38,0,1,0,.75,0v-1.93l3.12,1Zm1.75,2.21-1.19-1.65,4-1.95,1.36,1.67-.85.4Zm-.55,6.36a3.1,3.1,0,0,1-2,.37,14.74,14.74,0,0,1-5.82-2.85.71.71,0,0,1-.3-.54.69.69,0,0,1,.23-.56.7.7,0,0,1,.83-.09l3.09,1.88a.06.06,0,0,0,0,0,1.06,1.06,0,0,0,1.07,1.15,1,1,0,0,0,.66-.23,6.47,6.47,0,0,1,3.46-1.44.38.38,0,0,0,.35-.39.36.36,0,0,0-.39-.36,7.22,7.22,0,0,0-3.88,1.6.31.31,0,0,1-.43,0,.35.35,0,0,1-.1-.25.15.15,0,0,1,0-.07l0-.06a.31.31,0,0,1,.09-.11l2.41-1.91a5.75,5.75,0,0,1,5.66-.88.22.22,0,0,0,0,.08V259A7.37,7.37,0,0,0,498.92,260.24Zm6.88-1.09h-1.2v-3.56a.22.22,0,0,1,.22-.22h.76a.22.22,0,0,1,.22.22Z" transform="translate(-467.1 -229.67)"/></g><g class="cls-4"><path class="cls-5" d="M551.46,254.62h-.76a.93.93,0,0,0-.61.22h0a5.78,5.78,0,0,0-1.09-.32.35.35,0,0,0,.19-.32v-1.26l1.52-.71-2-2.42a.35.35,0,0,0-.11-.1v0a.4.4,0,0,0-.24-.22l-4.47-1.4-.14,0-.15,0-4.45,1.4a.35.35,0,0,0-.21.18l-.1.1-2,2.46,1.62.84v2.72a.38.38,0,1,0,.75,0v-2.34l2.7,1.4,1.29-1.65v2.13a.38.38,0,1,0,.75,0v-2.05l1.13,1.57,3.33-1.55v.92a.35.35,0,0,0,.1.24,6.37,6.37,0,0,0-4.92,1.36l-2.41,1.92a.34.34,0,0,0-.06.06l-3-1.85a1.46,1.46,0,0,0-1.73.17,1.49,1.49,0,0,0-.47,1.16,1.47,1.47,0,0,0,.61,1.1,15.41,15.41,0,0,0,6.14,3,4.18,4.18,0,0,0,.61,0,3.86,3.86,0,0,0,1.9-.51,6.56,6.56,0,0,1,4.56-1.09v.1h2.7v-4.31A1,1,0,0,0,551.46,254.62Zm-9.74-.74L538,252l1.36-1.67,3.65,1.91Zm1.88-2.21-3.35-1.76,3.14-1v1.93a.38.38,0,1,0,.75,0v-1.93l3.12,1Zm1.75,2.21-1.19-1.65,4-1.95,1.36,1.67-.85.4Zm4.38,1.71V259a7.37,7.37,0,0,0-4.93,1.2,3.11,3.11,0,0,1-2,.37,14.74,14.74,0,0,1-5.82-2.85.71.71,0,0,1-.3-.54.69.69,0,0,1,.23-.56.7.7,0,0,1,.83-.09l3.08,1.87a.09.09,0,0,0,0,.05,1.11,1.11,0,0,0,.31.83,1.09,1.09,0,0,0,.77.32,1,1,0,0,0,.66-.23A6.47,6.47,0,0,1,546,258a.38.38,0,0,0,.35-.39.37.37,0,0,0-.39-.36,7.22,7.22,0,0,0-3.88,1.6.31.31,0,0,1-.43,0,.35.35,0,0,1-.1-.25.15.15,0,0,1,0-.07l0-.06a.31.31,0,0,1,.09-.11l2.41-1.91a5.78,5.78,0,0,1,5.66-.88A.22.22,0,0,0,549.73,255.59Zm1.95,3.56h-1.2v-3.56a.22.22,0,0,1,.22-.22h.76a.22.22,0,0,1,.22.22Z" transform="translate(-467.1 -229.67)"/></g><g class="cls-4"><path class="cls-5" d="M597.44,254.62h-.75a1,1,0,0,0-.62.22h0a5.78,5.78,0,0,0-1.09-.32.36.36,0,0,0,.2-.32v-1.27l1.51-.7-2-2.42a.35.35,0,0,0-.11-.1v0a.4.4,0,0,0-.24-.22l-4.47-1.4a.32.32,0,0,0-.14,0l-.15,0-4.45,1.4a.35.35,0,0,0-.21.18h0l-.09.09-2,2.46,1.62.84v2.72a.38.38,0,1,0,.75,0v-2.34l2.7,1.4,1.29-1.65v2.13a.38.38,0,0,0,.38.38.37.37,0,0,0,.37-.38v-2.05l1.13,1.57,3.34-1.55v.92a.35.35,0,0,0,.1.24,6.39,6.39,0,0,0-4.93,1.36l-2.41,1.92-.06.06-3-1.85a1.44,1.44,0,0,0-1.72.17,1.45,1.45,0,0,0,.13,2.26,15.41,15.41,0,0,0,6.14,3,4.18,4.18,0,0,0,.61,0,3.93,3.93,0,0,0,1.91-.51,6.53,6.53,0,0,1,4.55-1.09v.1h2.7v-4.31A1,1,0,0,0,597.44,254.62Zm-9.73-.74L584,252l1.36-1.67,3.65,1.91Zm1.87-2.21-3.35-1.76,3.14-1v1.93a.38.38,0,1,0,.75,0v-1.93l3.12,1Zm1.75,2.21-1.19-1.65,4-1.95L595.5,252l-.86.4Zm4.38,1.71V259a7.37,7.37,0,0,0-4.93,1.2,3.08,3.08,0,0,1-2,.37,14.7,14.7,0,0,1-5.83-2.85.75.75,0,0,1-.3-.54.69.69,0,0,1,.23-.56.7.7,0,0,1,.83-.09l3.09,1.88a.06.06,0,0,0,0,0,1.06,1.06,0,0,0,1.07,1.15,1,1,0,0,0,.66-.23A6.47,6.47,0,0,1,592,258a.38.38,0,0,0,.35-.39.36.36,0,0,0-.39-.36,7.22,7.22,0,0,0-3.88,1.6.31.31,0,0,1-.43,0,.35.35,0,0,1-.1-.25.15.15,0,0,1,0-.07l0-.06a.31.31,0,0,1,.09-.11l2.41-1.91a5.78,5.78,0,0,1,5.66-.88A.22.22,0,0,0,595.71,255.59Zm1.95,3.56h-1.2v-3.56a.22.22,0,0,1,.23-.22h.75a.22.22,0,0,1,.22.22Z" transform="translate(-467.1 -229.67)"/></g><g class="cls-4"><path class="cls-5" d="M589.89,248.07a.32.32,0,0,0-.14,0l-.15,0,.15,0Z" transform="translate(-467.1 -229.67)"/></g><g class="cls-4"><path class="cls-5" d="M643.32,254.62h-.76a.93.93,0,0,0-.61.22h0a5.78,5.78,0,0,0-1.09-.32.35.35,0,0,0,.19-.32v-1.26l1.52-.71-2-2.42a.35.35,0,0,0-.11-.1v0a.4.4,0,0,0-.24-.22l-4.47-1.4a.32.32,0,0,0-.14,0l-.15,0-4.45,1.4a.35.35,0,0,0-.21.18h0l-.09.09-2,2.46,1.62.84v2.72a.38.38,0,1,0,.75,0v-2.34l2.7,1.4,1.29-1.65v2.13a.38.38,0,0,0,.38.38.37.37,0,0,0,.37-.38v-2.05l1.13,1.57,3.33-1.55v.92a.35.35,0,0,0,.1.24,6.37,6.37,0,0,0-4.92,1.36l-2.41,1.92-.06.06-3-1.85a1.45,1.45,0,0,0-1.72.17,1.45,1.45,0,0,0,.13,2.26,15.41,15.41,0,0,0,6.14,3,4.18,4.18,0,0,0,.61,0,3.86,3.86,0,0,0,1.9-.51,6.56,6.56,0,0,1,4.56-1.09v.1h2.7v-4.31A1,1,0,0,0,643.32,254.62Zm-9.74-.74-3.7-1.91,1.36-1.67,3.65,1.91Zm1.88-2.21-3.35-1.76,3.14-1v1.93a.38.38,0,1,0,.75,0v-1.93l3.12,1Zm1.75,2.21L636,252.23l4-1.95,1.36,1.67-.85.4Zm4.38,1.71V259a7.37,7.37,0,0,0-4.93,1.2,3.1,3.1,0,0,1-2,.37,14.74,14.74,0,0,1-5.82-2.85.71.71,0,0,1-.3-.54.69.69,0,0,1,.23-.56.7.7,0,0,1,.83-.09l3.09,1.88a.06.06,0,0,0,0,0,1.06,1.06,0,0,0,1.07,1.15,1,1,0,0,0,.66-.23,6.47,6.47,0,0,1,3.46-1.44.38.38,0,0,0,.35-.39.36.36,0,0,0-.39-.36,7.22,7.22,0,0,0-3.88,1.6.31.31,0,0,1-.43,0,.35.35,0,0,1-.1-.25.15.15,0,0,1,0-.07l0-.06a.31.31,0,0,1,.09-.11l2.41-1.91a5.75,5.75,0,0,1,5.66-.88A.22.22,0,0,0,641.59,255.59Zm1.95,3.56h-1.2v-3.56a.22.22,0,0,1,.22-.22h.76a.22.22,0,0,1,.22.22Z" transform="translate(-467.1 -229.67)"/></g><g class="cls-4"><path class="cls-5" d="M635.77,248.07a.32.32,0,0,0-.14,0l-.15,0,.15,0Z" transform="translate(-467.1 -229.67)"/></g><g class="cls-4"><path class="cls-5" d="M483.14,273.7a1.45,1.45,0,0,0-1.72-.17l-3,1.85-.06-.06-2.41-1.92A6.37,6.37,0,0,0,471,272a.35.35,0,0,0,.1-.24v-.92l3.33,1.55,1.13-1.57v2.05a.38.38,0,1,0,.75,0v-2.13l1.29,1.65,2.7-1.39v2.33a.38.38,0,0,0,.38.38.37.37,0,0,0,.37-.38v-2.72l1.63-.84-2-2.45-.09-.1h0a.32.32,0,0,0-.21-.18l-4.45-1.4-.15-.05-.15.05-4.47,1.4a.41.41,0,0,0-.23.22v0a.35.35,0,0,0-.11.1l-2,2.42,1.52.71v1.26a.36.36,0,0,0,.2.32,5.93,5.93,0,0,0-1.1.32.94.94,0,0,0-.62-.22h-.75a1,1,0,0,0-1,1v4.31h2.69v-.1c.56-.12,2.16-.29,4.56,1.09a3.86,3.86,0,0,0,1.9.51,4.07,4.07,0,0,0,.61-.05,15.29,15.29,0,0,0,6.14-3,1.41,1.41,0,0,0,.61-1.1A1.46,1.46,0,0,0,483.14,273.7ZM469,276.75h-1.19v-3.56a.22.22,0,0,1,.22-.22h.75a.22.22,0,0,1,.22.22Zm12.46-7.18-3.7,1.91-1.3-1.67,3.65-1.91Zm-6.12-3.05v1.93a.38.38,0,0,0,.38.38.37.37,0,0,0,.37-.38v-1.93l3.14,1-3.35,1.76-3.66-1.77Zm-5.37,3,1.33-1.66,4,1.94-1.18,1.65L470.86,270Zm12.56,5.81a14.76,14.76,0,0,1-5.83,2.85,3.11,3.11,0,0,1-2-.37,7.36,7.36,0,0,0-4.93-1.2v-3.45a.22.22,0,0,0,0-.08,5.77,5.77,0,0,1,5.67.88l2.41,1.91.07.07,0,0v0a.27.27,0,0,1,0,.12.3.3,0,0,1-.09.25.31.31,0,0,1-.43,0,7.26,7.26,0,0,0-3.89-1.6.37.37,0,0,0-.39.36.38.38,0,0,0,.36.39A6.5,6.5,0,0,1,477,277a1,1,0,0,0,.65.23,1.09,1.09,0,0,0,.77-.32,1.07,1.07,0,0,0,.31-.83.06.06,0,0,0,0,0l3.08-1.88a.71.71,0,0,1,.84.09.68.68,0,0,1,.22.56A.73.73,0,0,1,482.57,275.36Z" transform="translate(-467.1 -229.67)"/></g><g class="cls-4"><path class="cls-5" d="M529,273.7a1.44,1.44,0,0,0-1.72-.17l-3,1.85-.06-.06-2.41-1.92a6.37,6.37,0,0,0-4.92-1.36.35.35,0,0,0,.1-.24v-.92l3.33,1.55,1.13-1.57v2.05a.38.38,0,1,0,.75,0v-2.13l1.29,1.65,2.7-1.4v2.34a.38.38,0,1,0,.75,0v-2.72l1.62-.84-2-2.46-.09-.09h0a.35.35,0,0,0-.21-.18l-4.45-1.4-.15-.05-.14.05-4.47,1.4a.4.4,0,0,0-.24.22v0a.35.35,0,0,0-.11.1l-2,2.42,1.52.71v1.26a.35.35,0,0,0,.19.32,5.78,5.78,0,0,0-1.09.32h0a.93.93,0,0,0-.61-.22h-.76a1,1,0,0,0-1,1v4.31h2.7v-.1c.56-.12,2.16-.29,4.56,1.09a3.86,3.86,0,0,0,1.9.51,4.18,4.18,0,0,0,.61-.05,15.41,15.41,0,0,0,6.14-3,1.45,1.45,0,0,0,.13-2.26Zm-14.09,3.05h-1.2v-3.56a.22.22,0,0,1,.22-.22h.76a.22.22,0,0,1,.22.22Zm12.46-7.18-3.7,1.91-1.3-1.67L526,267.9Zm-6.12-3.05v1.93a.38.38,0,1,0,.75,0v-1.93l3.14,1-3.35,1.76-3.66-1.77Zm-5.38,3,1.34-1.66,4,1.94-1.19,1.65L516.74,270Zm12.56,5.81a14.74,14.74,0,0,1-5.82,2.85,3.1,3.1,0,0,1-2-.37,7.37,7.37,0,0,0-4.93-1.2v-3.45a.22.22,0,0,0,0-.08,5.78,5.78,0,0,1,5.66.88l2.41,1.91a.31.31,0,0,1,.09.11l0,.06a.15.15,0,0,1,0,.07.35.35,0,0,1-.1.25.31.31,0,0,1-.43,0,7.22,7.22,0,0,0-3.88-1.6.37.37,0,0,0-.39.36.38.38,0,0,0,.35.39,6.47,6.47,0,0,1,3.46,1.44,1,1,0,0,0,.66.23,1.09,1.09,0,0,0,.77-.32,1.15,1.15,0,0,0,.31-.83.09.09,0,0,0,0,0l3.08-1.87a.7.7,0,0,1,.83.09.69.69,0,0,1,.23.56A.71.71,0,0,1,528.44,275.36Z" transform="translate(-467.1 -229.67)"/></g><g class="cls-4"><path class="cls-5" d="M574.89,273.7a1.45,1.45,0,0,0-1.72-.17l-3,1.85-.06-.06-2.41-1.92a6.3,6.3,0,0,0-4.93-1.35.37.37,0,0,0,.1-.25v-.92l3.34,1.55,1.13-1.57v2.05a.37.37,0,0,0,.37.38.38.38,0,0,0,.38-.38v-2.13l1.29,1.65,2.7-1.4v2.34a.38.38,0,1,0,.75,0v-2.72l1.62-.84-2-2.45-.09-.1h0a.35.35,0,0,0-.21-.18l-4.45-1.4a.4.4,0,0,0-.15,0,.32.32,0,0,0-.14,0l-4.47,1.4a.4.4,0,0,0-.24.22v0a.35.35,0,0,0-.11.1l-2,2.42,1.51.7v1.27a.36.36,0,0,0,.2.32,5.78,5.78,0,0,0-1.09.32h0a.93.93,0,0,0-.61-.22h-.76a1,1,0,0,0-1,1v4.31h2.7v-.1c.58-.13,2.18-.28,4.56,1.09a3.86,3.86,0,0,0,1.9.51,4.18,4.18,0,0,0,.61-.05,15.41,15.41,0,0,0,6.14-3,1.45,1.45,0,0,0,.13-2.26Zm-14.09,3.05h-1.2v-3.56a.22.22,0,0,1,.22-.22h.76a.22.22,0,0,1,.22.22Zm12.46-7.18-3.7,1.91-1.31-1.67,3.65-1.91Zm-6.12-3.05v1.93a.38.38,0,1,0,.75,0v-1.93l3.14,1-3.35,1.76L564,267.5Zm-5.38,3,1.34-1.66,4,1.94-1.19,1.65L562.62,270Zm12.56,5.81a14.74,14.74,0,0,1-5.82,2.85,3.1,3.1,0,0,1-2-.37,7.37,7.37,0,0,0-4.93-1.2v-3.45a.22.22,0,0,0,0-.08,5.75,5.75,0,0,1,5.66.88l2.41,1.91a.31.31,0,0,1,.09.11l0,.06a.15.15,0,0,1,0,.07.35.35,0,0,1-.1.25.31.31,0,0,1-.43,0,7.22,7.22,0,0,0-3.88-1.6.36.36,0,0,0-.39.36.38.38,0,0,0,.35.39,6.47,6.47,0,0,1,3.46,1.44,1,1,0,0,0,.66.23,1.09,1.09,0,0,0,.77-.32,1.15,1.15,0,0,0,.31-.83.09.09,0,0,0,0,0l3.08-1.87a.7.7,0,0,1,.83.09.69.69,0,0,1,.23.56A.71.71,0,0,1,574.32,275.36Z" transform="translate(-467.1 -229.67)"/></g><g class="cls-4"><path class="cls-5" d="M567.66,265.67a.4.4,0,0,0-.15,0,.32.32,0,0,0-.14,0l.14-.05Z" transform="translate(-467.1 -229.67)"/></g><g class="cls-4"><path class="cls-5" d="M613.64,265.67a.32.32,0,0,0-.14,0,.4.4,0,0,0-.15,0l.15-.05Z" transform="translate(-467.1 -229.67)"/></g><g class="cls-4"><path class="cls-5" d="M620.88,273.7a1.46,1.46,0,0,0-1.73-.17l-3,1.85-.06-.06-2.41-1.92a6.37,6.37,0,0,0-4.92-1.36.35.35,0,0,0,.1-.24v-.92l3.33,1.55,1.13-1.57v2.05a.38.38,0,1,0,.75,0v-2.13l1.29,1.65L618,271v2.34a.38.38,0,1,0,.75,0v-2.72l1.62-.84-2-2.45-.1-.11h0a.36.36,0,0,0-.21-.17l-4.45-1.4a.32.32,0,0,0-.14,0,.4.4,0,0,0-.15,0l-4.47,1.4a.4.4,0,0,0-.25.24.47.47,0,0,0-.1.1l-2,2.42,1.52.71v1.26a.35.35,0,0,0,.19.32,5.78,5.78,0,0,0-1.09.32h0a.93.93,0,0,0-.61-.22h-.76a1,1,0,0,0-1,1v4.31h2.7v-.1c.56-.12,2.16-.29,4.56,1.09a3.86,3.86,0,0,0,1.9.51,4.18,4.18,0,0,0,.61-.05,15.41,15.41,0,0,0,6.14-3,1.47,1.47,0,0,0,.61-1.1A1.49,1.49,0,0,0,620.88,273.7Zm-14.1,3.05h-1.2v-3.56a.22.22,0,0,1,.22-.22h.76a.22.22,0,0,1,.22.22Zm12.46-7.18-3.7,1.91-1.3-1.67,3.64-1.91Zm-6.12-3.05v1.93a.38.38,0,1,0,.75,0v-1.93l3.14,1-3.35,1.76L610,267.5Zm-5.38,3,1.34-1.66,4,1.94-1.19,1.65L608.6,270Zm12.56,5.81a14.74,14.74,0,0,1-5.82,2.85,3.1,3.1,0,0,1-2-.37,7.37,7.37,0,0,0-4.93-1.2v-3.45a.22.22,0,0,0,0-.08,5.75,5.75,0,0,1,5.66.88l2.41,1.91a.31.31,0,0,1,.09.11l0,.06a.15.15,0,0,1,0,.07.35.35,0,0,1-.1.25.31.31,0,0,1-.43,0,7.22,7.22,0,0,0-3.88-1.6.38.38,0,0,0,0,.75,6.47,6.47,0,0,1,3.46,1.44,1,1,0,0,0,.66.23,1.09,1.09,0,0,0,.77-.32,1.11,1.11,0,0,0,.31-.83.09.09,0,0,0,0,0l3.08-1.87a.7.7,0,0,1,.83.09.69.69,0,0,1,.23.56A.71.71,0,0,1,620.3,275.36Z" transform="translate(-467.1 -229.67)"/></g><g class="cls-4"><path class="cls-5" d="M666.75,273.7a1.44,1.44,0,0,0-1.72-.17l-3,1.85-.06-.06-2.41-1.92a6.37,6.37,0,0,0-4.92-1.36.35.35,0,0,0,.1-.24v-.92l3.33,1.55,1.13-1.57v2.05a.38.38,0,1,0,.75,0v-2.13l1.29,1.65,2.7-1.4v2.34a.38.38,0,1,0,.75,0v-2.72l1.62-.84-2-2.46-.09-.09h0a.35.35,0,0,0-.21-.18l-4.45-1.4a.4.4,0,0,0-.15,0,.32.32,0,0,0-.14,0l-4.47,1.4a.4.4,0,0,0-.24.22v0a.35.35,0,0,0-.11.1l-2,2.42,1.52.71v1.26a.35.35,0,0,0,.19.32,5.78,5.78,0,0,0-1.09.32h0a.93.93,0,0,0-.61-.22h-.76a1,1,0,0,0-1,1v4.31h2.7v-.1c.56-.12,2.16-.29,4.56,1.09a3.86,3.86,0,0,0,1.9.51,4.18,4.18,0,0,0,.61-.05,15.41,15.41,0,0,0,6.14-3,1.45,1.45,0,0,0,.13-2.26Zm-14.09,3.05h-1.2v-3.56a.22.22,0,0,1,.22-.22h.76a.22.22,0,0,1,.22.22Zm12.46-7.18-3.7,1.91-1.3-1.67,3.64-1.91ZM659,266.52v1.93a.38.38,0,1,0,.75,0v-1.93l3.14,1-3.35,1.76-3.66-1.77Zm-5.38,3,1.34-1.66,4,1.94-1.19,1.65L654.48,270Zm12.56,5.81a14.74,14.74,0,0,1-5.82,2.85,3.1,3.1,0,0,1-2-.37,7.37,7.37,0,0,0-4.93-1.2v-3.45a.22.22,0,0,0,0-.08,5.78,5.78,0,0,1,5.66.88l2.41,1.91a.31.31,0,0,1,.09.11l0,.06a.15.15,0,0,1,0,.07.35.35,0,0,1-.1.25.31.31,0,0,1-.43,0,7.22,7.22,0,0,0-3.88-1.6.37.37,0,0,0-.39.36.38.38,0,0,0,.35.39,6.47,6.47,0,0,1,3.46,1.44,1,1,0,0,0,.66.23,1.09,1.09,0,0,0,.77-.32,1.11,1.11,0,0,0,.31-.83.09.09,0,0,0,0,0l3.08-1.87a.7.7,0,0,1,.83.09.69.69,0,0,1,.23.56A.71.71,0,0,1,666.18,275.36Z" transform="translate(-467.1 -229.67)"/></g><g class="cls-4"><path class="cls-5" d="M659.52,265.67a.4.4,0,0,0-.15,0,.32.32,0,0,0-.14,0l.14-.05Z" transform="translate(-467.1 -229.67)"/></g><g class="cls-4"><path class="cls-5" d="M505.58,272.22h-.76a.93.93,0,0,0-.61.22h0a5.78,5.78,0,0,0-1.09-.32.35.35,0,0,0,.19-.32v-1.26l1.52-.71-2-2.42a.35.35,0,0,0-.11-.1v0a.4.4,0,0,0-.24-.22l-4.47-1.4-.14-.05-.15.05-4.45,1.4a.35.35,0,0,0-.21.18l-.1.1-2,2.46,1.62.84v2.72a.38.38,0,1,0,.75,0V271l2.7,1.4,1.29-1.65v2.13a.38.38,0,1,0,.75,0v-2.05l1.13,1.57,3.33-1.55v.92a.35.35,0,0,0,.1.24,6.37,6.37,0,0,0-4.92,1.36l-2.41,1.92-.06.06-3-1.85a1.44,1.44,0,0,0-1.72.17,1.45,1.45,0,0,0,.13,2.26,15.41,15.41,0,0,0,6.14,3,4.18,4.18,0,0,0,.61.05,3.86,3.86,0,0,0,1.9-.51,6.56,6.56,0,0,1,4.56-1.09v.1h2.7v-4.31A1,1,0,0,0,505.58,272.22Zm-9.74-.74-3.7-1.91,1.36-1.67,3.65,1.91Zm1.88-2.21-3.35-1.76,3.14-1v1.93a.38.38,0,1,0,.75,0v-1.93l3.12,1Zm1.75,2.21-1.19-1.65,4-1.95,1.36,1.67-.85.4Zm-.55,6.36a3.1,3.1,0,0,1-2,.37,14.74,14.74,0,0,1-5.82-2.85.71.71,0,0,1-.3-.54.69.69,0,0,1,.23-.56.7.7,0,0,1,.83-.09l3.09,1.88a.06.06,0,0,0,0,0,1.06,1.06,0,0,0,1.07,1.15,1,1,0,0,0,.66-.23,6.47,6.47,0,0,1,3.46-1.44.38.38,0,0,0,.35-.39.36.36,0,0,0-.39-.36,7.22,7.22,0,0,0-3.88,1.6.31.31,0,0,1-.43,0,.35.35,0,0,1-.1-.25.15.15,0,0,1,0-.07l0-.06a.31.31,0,0,1,.09-.11L498.2,274a5.75,5.75,0,0,1,5.66-.88.22.22,0,0,0,0,.08v3.45A7.37,7.37,0,0,0,498.92,277.84Zm6.88-1.09h-1.2v-3.56a.22.22,0,0,1,.22-.22h.76a.22.22,0,0,1,.22.22Z" transform="translate(-467.1 -229.67)"/></g><g class="cls-4"><path class="cls-5" d="M551.46,272.22h-.76a.93.93,0,0,0-.61.22h0a5.78,5.78,0,0,0-1.09-.32.35.35,0,0,0,.19-.32v-1.26l1.52-.71-2-2.42a.35.35,0,0,0-.11-.1v0a.4.4,0,0,0-.24-.22l-4.47-1.4-.14-.05-.15.05-4.45,1.4a.35.35,0,0,0-.21.18l-.1.1-2,2.46,1.62.84v2.72a.38.38,0,1,0,.75,0V271l2.7,1.4,1.29-1.65v2.13a.38.38,0,1,0,.75,0v-2.05l1.13,1.57,3.33-1.55v.92a.35.35,0,0,0,.1.24,6.37,6.37,0,0,0-4.92,1.36l-2.41,1.92-.06.06-3-1.85a1.46,1.46,0,0,0-1.73.17,1.49,1.49,0,0,0-.47,1.16,1.47,1.47,0,0,0,.61,1.1,15.41,15.41,0,0,0,6.14,3,4.18,4.18,0,0,0,.61.05,3.86,3.86,0,0,0,1.9-.51,6.56,6.56,0,0,1,4.56-1.09v.1h2.7v-4.31A1,1,0,0,0,551.46,272.22Zm-9.74-.74-3.7-1.91,1.36-1.67,3.65,1.91Zm1.88-2.21-3.35-1.76,3.14-1v1.93a.38.38,0,1,0,.75,0v-1.93l3.12,1Zm1.75,2.21-1.19-1.65,4-1.95,1.36,1.67-.85.4Zm4.38,1.71v3.45a7.37,7.37,0,0,0-4.93,1.2,3.11,3.11,0,0,1-2,.37,14.74,14.74,0,0,1-5.82-2.85.71.71,0,0,1-.3-.54.69.69,0,0,1,.23-.56.7.7,0,0,1,.83-.09L540.8,276a.09.09,0,0,0,0,0,1.11,1.11,0,0,0,.31.83,1.09,1.09,0,0,0,.77.32,1,1,0,0,0,.66-.23,6.47,6.47,0,0,1,3.46-1.44.38.38,0,0,0,.35-.39.37.37,0,0,0-.39-.36,7.22,7.22,0,0,0-3.88,1.6.31.31,0,0,1-.43,0,.35.35,0,0,1-.1-.25.15.15,0,0,1,0-.07l0-.06a.31.31,0,0,1,.09-.11l2.41-1.91a5.78,5.78,0,0,1,5.66-.88A.22.22,0,0,0,549.73,273.19Zm1.95,3.56h-1.2v-3.56a.22.22,0,0,1,.22-.22h.76a.22.22,0,0,1,.22.22Z" transform="translate(-467.1 -229.67)"/></g><g class="cls-4"><path class="cls-5" d="M597.44,272.22h-.75a1,1,0,0,0-.62.22h0a5.78,5.78,0,0,0-1.09-.32.36.36,0,0,0,.2-.32v-1.27l1.51-.7-2-2.42a.35.35,0,0,0-.11-.1v0a.4.4,0,0,0-.24-.22l-4.47-1.4a.32.32,0,0,0-.14,0,.4.4,0,0,0-.15,0l-4.45,1.4a.35.35,0,0,0-.21.18h0l-.09.09-2,2.46,1.62.84v2.72a.38.38,0,1,0,.75,0V271l2.7,1.4,1.29-1.65v2.13a.38.38,0,0,0,.38.38.37.37,0,0,0,.37-.38v-2.05l1.13,1.57,3.34-1.55v.92a.35.35,0,0,0,.1.24,6.39,6.39,0,0,0-4.93,1.36l-2.41,1.92-.06.06-3-1.85a1.44,1.44,0,0,0-1.72.17,1.45,1.45,0,0,0,.13,2.26,15.41,15.41,0,0,0,6.14,3,4.18,4.18,0,0,0,.61.05,3.93,3.93,0,0,0,1.91-.51,6.53,6.53,0,0,1,4.55-1.09v.1h2.7v-4.31A1,1,0,0,0,597.44,272.22Zm-9.73-.74L584,269.57l1.36-1.67,3.65,1.91Zm1.87-2.21-3.35-1.76,3.14-1v1.93a.38.38,0,1,0,.75,0v-1.93l3.12,1Zm1.75,2.21-1.19-1.65,4-1.95,1.37,1.67-.86.4Zm4.38,1.71v3.45a7.37,7.37,0,0,0-4.93,1.2,3.08,3.08,0,0,1-2,.37,14.7,14.7,0,0,1-5.83-2.85.75.75,0,0,1-.3-.54.69.69,0,0,1,.23-.56.7.7,0,0,1,.83-.09l3.09,1.88a.06.06,0,0,0,0,0,1.06,1.06,0,0,0,1.07,1.15,1,1,0,0,0,.66-.23,6.47,6.47,0,0,1,3.46-1.44.38.38,0,0,0,.35-.39.36.36,0,0,0-.39-.36,7.22,7.22,0,0,0-3.88,1.6.31.31,0,0,1-.43,0,.35.35,0,0,1-.1-.25.15.15,0,0,1,0-.07l0-.06a.31.31,0,0,1,.09-.11l2.41-1.91a5.78,5.78,0,0,1,5.66-.88A.22.22,0,0,0,595.71,273.19Zm1.95,3.56h-1.2v-3.56a.22.22,0,0,1,.23-.22h.75a.22.22,0,0,1,.22.22Z" transform="translate(-467.1 -229.67)"/></g><g class="cls-4"><path class="cls-5" d="M589.89,265.67a.32.32,0,0,0-.14,0,.4.4,0,0,0-.15,0l.15-.05Z" transform="translate(-467.1 -229.67)"/></g><g class="cls-4"><path class="cls-5" d="M643.32,272.22h-.76a.93.93,0,0,0-.61.22h0a5.78,5.78,0,0,0-1.09-.32.35.35,0,0,0,.19-.32v-1.26l1.52-.71-2-2.42a.35.35,0,0,0-.11-.1v0a.4.4,0,0,0-.24-.22l-4.47-1.4a.32.32,0,0,0-.14,0,.4.4,0,0,0-.15,0l-4.45,1.4a.35.35,0,0,0-.21.18h0l-.09.09-2,2.46,1.62.84v2.72a.38.38,0,1,0,.75,0V271l2.7,1.4,1.29-1.65v2.13a.38.38,0,0,0,.38.38.37.37,0,0,0,.37-.38v-2.05l1.13,1.57,3.33-1.55v.92a.35.35,0,0,0,.1.24,6.37,6.37,0,0,0-4.92,1.36l-2.41,1.92-.06.06-3-1.85a1.45,1.45,0,0,0-1.72.17,1.45,1.45,0,0,0,.13,2.26,15.41,15.41,0,0,0,6.14,3,4.18,4.18,0,0,0,.61.05,3.86,3.86,0,0,0,1.9-.51,6.56,6.56,0,0,1,4.56-1.09v.1h2.7v-4.31A1,1,0,0,0,643.32,272.22Zm-9.74-.74-3.7-1.91,1.36-1.67,3.65,1.91Zm1.88-2.21-3.35-1.76,3.14-1v1.93a.38.38,0,1,0,.75,0v-1.93l3.12,1Zm1.75,2.21L636,269.83l4-1.95,1.36,1.67-.85.4Zm4.38,1.71v3.45a7.37,7.37,0,0,0-4.93,1.2,3.1,3.1,0,0,1-2,.37,14.74,14.74,0,0,1-5.82-2.85.71.71,0,0,1-.3-.54.69.69,0,0,1,.23-.56.7.7,0,0,1,.83-.09l3.09,1.88a.06.06,0,0,0,0,0,1.06,1.06,0,0,0,1.07,1.15,1,1,0,0,0,.66-.23,6.47,6.47,0,0,1,3.46-1.44.38.38,0,0,0,.35-.39.36.36,0,0,0-.39-.36,7.22,7.22,0,0,0-3.88,1.6.31.31,0,0,1-.43,0,.35.35,0,0,1-.1-.25.15.15,0,0,1,0-.07l0-.06a.31.31,0,0,1,.09-.11l2.41-1.91a5.75,5.75,0,0,1,5.66-.88A.22.22,0,0,0,641.59,273.19Zm1.95,3.56h-1.2v-3.56a.22.22,0,0,1,.22-.22h.76a.22.22,0,0,1,.22.22Z" transform="translate(-467.1 -229.67)"/></g><g class="cls-4"><path class="cls-5" d="M635.77,265.67a.32.32,0,0,0-.14,0,.4.4,0,0,0-.15,0l.15-.05Z" transform="translate(-467.1 -229.67)"/></g><g class="cls-4"><path class="cls-5" d="M483.14,290.73a1.45,1.45,0,0,0-1.72-.17l-3,1.85a.34.34,0,0,0-.06-.06l-2.41-1.92a6.37,6.37,0,0,0-4.92-1.36.35.35,0,0,0,.1-.24v-.92l3.33,1.55,1.13-1.57v2.05a.38.38,0,1,0,.75,0v-2.13l1.29,1.65,2.7-1.39v2.33a.38.38,0,0,0,.38.38.37.37,0,0,0,.37-.38v-2.72l1.63-.84-2-2.45-.09-.1h0a.32.32,0,0,0-.21-.18l-4.45-1.4-.15-.05-.15.05-4.47,1.4a.41.41,0,0,0-.23.22v0a.35.35,0,0,0-.11.1l-2,2.42,1.52.71v1.26a.36.36,0,0,0,.2.32,5.93,5.93,0,0,0-1.1.32.94.94,0,0,0-.62-.22h-.75a1,1,0,0,0-1,1v4.31h2.69v-.1c.56-.12,2.16-.29,4.56,1.09a3.86,3.86,0,0,0,1.9.51,4.07,4.07,0,0,0,.61,0,15.29,15.29,0,0,0,6.14-3,1.41,1.41,0,0,0,.61-1.1A1.46,1.46,0,0,0,483.14,290.73Zm-14.1,3h-1.19v-3.56a.22.22,0,0,1,.22-.22h.75a.22.22,0,0,1,.22.22Zm12.46-7.18-3.7,1.91-1.3-1.67,3.65-1.91Zm-6.12-3.05v1.93a.38.38,0,0,0,.38.38.37.37,0,0,0,.37-.38v-1.93l3.14,1-3.35,1.76-3.66-1.77Zm-5.37,3,1.33-1.66,4,1.94-1.18,1.65L470.86,287Zm12.56,5.81a14.76,14.76,0,0,1-5.83,2.85,3.11,3.11,0,0,1-2-.37,7.36,7.36,0,0,0-4.93-1.2v-3.45a.22.22,0,0,0,0-.08,5.77,5.77,0,0,1,5.67.88l2.41,1.91.07.07,0,0v0a.27.27,0,0,1,0,.12.3.3,0,0,1-.09.25.31.31,0,0,1-.43,0,7.26,7.26,0,0,0-3.89-1.6.37.37,0,0,0-.39.36.38.38,0,0,0,.36.39A6.5,6.5,0,0,1,477,294a1,1,0,0,0,.65.23,1.09,1.09,0,0,0,.77-.32,1.07,1.07,0,0,0,.31-.83.06.06,0,0,0,0,0l3.08-1.88a.71.71,0,0,1,.84.09.68.68,0,0,1,.22.56A.73.73,0,0,1,482.57,292.39Z" transform="translate(-467.1 -229.67)"/></g><g class="cls-4"><path class="cls-5" d="M529,290.73a1.44,1.44,0,0,0-1.72-.17l-3,1.85a.34.34,0,0,0-.06-.06l-2.41-1.92a6.37,6.37,0,0,0-4.92-1.36.35.35,0,0,0,.1-.24v-.92l3.33,1.55,1.13-1.57v2.05a.38.38,0,1,0,.75,0v-2.13l1.29,1.65,2.7-1.4v2.34a.38.38,0,1,0,.75,0v-2.72l1.62-.84-2-2.46-.09-.09h0a.35.35,0,0,0-.21-.18l-4.45-1.4-.15-.05-.14.05L517,284.1a.4.4,0,0,0-.24.22v0a.35.35,0,0,0-.11.1l-2,2.42,1.52.71v1.26a.35.35,0,0,0,.19.32,5.78,5.78,0,0,0-1.09.32h0a.93.93,0,0,0-.61-.22h-.76a1,1,0,0,0-1,1v4.31h2.7v-.1c.56-.12,2.16-.29,4.56,1.09a3.86,3.86,0,0,0,1.9.51,4.18,4.18,0,0,0,.61,0,15.41,15.41,0,0,0,6.14-3,1.45,1.45,0,0,0,.13-2.26Zm-14.09,3h-1.2v-3.56a.22.22,0,0,1,.22-.22h.76a.22.22,0,0,1,.22.22Zm12.46-7.18-3.7,1.91-1.3-1.67,3.64-1.91Zm-6.12-3.05v1.93a.38.38,0,1,0,.75,0v-1.93l3.14,1-3.35,1.76-3.66-1.77Zm-5.38,3,1.34-1.66,4,1.94-1.19,1.65L516.74,287Zm12.56,5.81a14.74,14.74,0,0,1-5.82,2.85,3.1,3.1,0,0,1-2-.37,7.37,7.37,0,0,0-4.93-1.2v-3.45a.22.22,0,0,0,0-.08,5.78,5.78,0,0,1,5.66.88l2.41,1.91a.31.31,0,0,1,.09.11l0,.06a.15.15,0,0,1,0,.07.35.35,0,0,1-.1.25.31.31,0,0,1-.43,0,7.22,7.22,0,0,0-3.88-1.6.37.37,0,0,0-.39.36.38.38,0,0,0,.35.39,6.47,6.47,0,0,1,3.46,1.44,1,1,0,0,0,.66.23,1.09,1.09,0,0,0,.77-.32,1.15,1.15,0,0,0,.31-.83.09.09,0,0,0,0-.05l3.08-1.87a.7.7,0,0,1,.83.09.69.69,0,0,1,.23.56A.71.71,0,0,1,528.44,292.39Z" transform="translate(-467.1 -229.67)"/></g><g class="cls-4"><path class="cls-5" d="M574.89,290.73a1.45,1.45,0,0,0-1.72-.17l-3,1.85a.34.34,0,0,0-.06-.06l-2.41-1.92a6.3,6.3,0,0,0-4.93-1.35.37.37,0,0,0,.1-.25v-.92l3.34,1.55,1.13-1.57v2.05a.37.37,0,0,0,.37.38.38.38,0,0,0,.38-.38v-2.13l1.29,1.65,2.7-1.4v2.34a.38.38,0,1,0,.75,0v-2.72l1.62-.84-2-2.45-.09-.1h0a.35.35,0,0,0-.21-.18l-4.45-1.4-.15,0a.32.32,0,0,0-.14,0l-4.47,1.4a.4.4,0,0,0-.24.22v0a.35.35,0,0,0-.11.1l-2,2.42,1.51.7v1.27a.36.36,0,0,0,.2.32,5.78,5.78,0,0,0-1.09.32h0a.93.93,0,0,0-.61-.22h-.76a1,1,0,0,0-1,1v4.31h2.7v-.1c.58-.13,2.18-.28,4.56,1.09a3.86,3.86,0,0,0,1.9.51,4.18,4.18,0,0,0,.61,0,15.41,15.41,0,0,0,6.14-3,1.45,1.45,0,0,0,.13-2.26Zm-14.09,3h-1.2v-3.56a.22.22,0,0,1,.22-.22h.76a.22.22,0,0,1,.22.22Zm12.46-7.18-3.7,1.91-1.31-1.67,3.65-1.91Zm-6.12-3.05v1.93a.38.38,0,1,0,.75,0v-1.93l3.14,1-3.35,1.76L564,284.53Zm-5.38,3,1.34-1.66,4,1.94-1.19,1.65L562.62,287Zm12.56,5.81a14.74,14.74,0,0,1-5.82,2.85,3.1,3.1,0,0,1-2-.37,7.37,7.37,0,0,0-4.93-1.2v-3.45a.22.22,0,0,0,0-.08,5.75,5.75,0,0,1,5.66.88l2.41,1.91a.31.31,0,0,1,.09.11l0,.06a.15.15,0,0,1,0,.07.35.35,0,0,1-.1.25.31.31,0,0,1-.43,0,7.22,7.22,0,0,0-3.88-1.6.36.36,0,0,0-.39.36.38.38,0,0,0,.35.39,6.47,6.47,0,0,1,3.46,1.44,1,1,0,0,0,.66.23,1.09,1.09,0,0,0,.77-.32,1.15,1.15,0,0,0,.31-.83.09.09,0,0,0,0-.05l3.08-1.87a.7.7,0,0,1,.83.09.69.69,0,0,1,.23.56A.71.71,0,0,1,574.32,292.39Z" transform="translate(-467.1 -229.67)"/></g><g class="cls-4"><path class="cls-5" d="M567.66,282.7l-.15,0a.32.32,0,0,0-.14,0l.14-.05Z" transform="translate(-467.1 -229.67)"/></g><g class="cls-4"><path class="cls-5" d="M613.64,282.7a.32.32,0,0,0-.14,0l-.15,0,.15-.05Z" transform="translate(-467.1 -229.67)"/></g><g class="cls-4"><path class="cls-5" d="M620.88,290.73a1.46,1.46,0,0,0-1.73-.17l-3,1.85a.34.34,0,0,0-.06-.06l-2.41-1.92a6.37,6.37,0,0,0-4.92-1.36.35.35,0,0,0,.1-.24v-.92l3.33,1.55,1.13-1.57v2.05a.38.38,0,1,0,.75,0v-2.13l1.29,1.65,2.7-1.4v2.34a.38.38,0,1,0,.75,0v-2.72l1.62-.84-2-2.45-.1-.11h0a.36.36,0,0,0-.21-.17l-4.45-1.4a.32.32,0,0,0-.14,0l-.15,0-4.47,1.4a.4.4,0,0,0-.25.24.47.47,0,0,0-.1.1l-2,2.42,1.52.71v1.26a.35.35,0,0,0,.19.32,5.78,5.78,0,0,0-1.09.32h0a.93.93,0,0,0-.61-.22h-.76a1,1,0,0,0-1,1v4.31h2.7v-.1c.56-.12,2.16-.29,4.56,1.09a3.86,3.86,0,0,0,1.9.51,4.18,4.18,0,0,0,.61,0,15.41,15.41,0,0,0,6.14-3,1.47,1.47,0,0,0,.61-1.1A1.49,1.49,0,0,0,620.88,290.73Zm-14.1,3h-1.2v-3.56a.22.22,0,0,1,.22-.22h.76a.22.22,0,0,1,.22.22Zm12.46-7.18-3.7,1.91-1.3-1.67,3.64-1.91Zm-6.12-3.05v1.93a.38.38,0,1,0,.75,0v-1.93l3.14,1-3.35,1.76L610,284.53Zm-5.38,3,1.34-1.66,4,1.94-1.19,1.65L608.6,287Zm12.56,5.81a14.74,14.74,0,0,1-5.82,2.85,3.1,3.1,0,0,1-2-.37,7.37,7.37,0,0,0-4.93-1.2v-3.45a.22.22,0,0,0,0-.08,5.75,5.75,0,0,1,5.66.88l2.41,1.91a.31.31,0,0,1,.09.11l0,.06a.15.15,0,0,1,0,.07.35.35,0,0,1-.1.25.31.31,0,0,1-.43,0,7.22,7.22,0,0,0-3.88-1.6.38.38,0,0,0,0,.75,6.47,6.47,0,0,1,3.46,1.44,1,1,0,0,0,.66.23,1.09,1.09,0,0,0,.77-.32,1.11,1.11,0,0,0,.31-.83.09.09,0,0,0,0-.05l3.08-1.87a.7.7,0,0,1,.83.09.69.69,0,0,1,.23.56A.71.71,0,0,1,620.3,292.39Z" transform="translate(-467.1 -229.67)"/></g><g class="cls-4"><path class="cls-5" d="M666.75,290.73a1.44,1.44,0,0,0-1.72-.17l-3,1.85a.34.34,0,0,0-.06-.06l-2.41-1.92a6.37,6.37,0,0,0-4.92-1.36.35.35,0,0,0,.1-.24v-.92l3.33,1.55,1.13-1.57v2.05a.38.38,0,1,0,.75,0v-2.13l1.29,1.65,2.7-1.4v2.34a.38.38,0,1,0,.75,0v-2.72l1.62-.84-2-2.46-.09-.09h0a.35.35,0,0,0-.21-.18l-4.45-1.4-.15,0a.32.32,0,0,0-.14,0l-4.47,1.4a.4.4,0,0,0-.24.22v0a.35.35,0,0,0-.11.1l-2,2.42,1.52.71v1.26a.35.35,0,0,0,.19.32,5.78,5.78,0,0,0-1.09.32h0a.93.93,0,0,0-.61-.22h-.76a1,1,0,0,0-1,1v4.31h2.7v-.1c.56-.12,2.16-.29,4.56,1.09a3.86,3.86,0,0,0,1.9.51,4.18,4.18,0,0,0,.61,0,15.41,15.41,0,0,0,6.14-3,1.45,1.45,0,0,0,.13-2.26Zm-14.09,3h-1.2v-3.56a.22.22,0,0,1,.22-.22h.76a.22.22,0,0,1,.22.22Zm12.46-7.18-3.7,1.91-1.3-1.67,3.64-1.91ZM659,283.55v1.93a.38.38,0,1,0,.75,0v-1.93l3.14,1-3.35,1.76-3.66-1.77Zm-5.38,3,1.34-1.66,4,1.94-1.19,1.65L654.48,287Zm12.56,5.81a14.74,14.74,0,0,1-5.82,2.85,3.1,3.1,0,0,1-2-.37,7.37,7.37,0,0,0-4.93-1.2v-3.45a.22.22,0,0,0,0-.08,5.78,5.78,0,0,1,5.66.88l2.41,1.91a.31.31,0,0,1,.09.11l0,.06a.15.15,0,0,1,0,.07.35.35,0,0,1-.1.25.31.31,0,0,1-.43,0,7.22,7.22,0,0,0-3.88-1.6.37.37,0,0,0-.39.36.38.38,0,0,0,.35.39,6.47,6.47,0,0,1,3.46,1.44,1,1,0,0,0,.66.23A1.09,1.09,0,0,0,662,294a1.11,1.11,0,0,0,.31-.83.09.09,0,0,0,0-.05l3.08-1.87a.7.7,0,0,1,.83.09.69.69,0,0,1,.23.56A.71.71,0,0,1,666.18,292.39Z" transform="translate(-467.1 -229.67)"/></g><g class="cls-4"><path class="cls-5" d="M659.52,282.7l-.15,0a.32.32,0,0,0-.14,0l.14-.05Z" transform="translate(-467.1 -229.67)"/></g><g class="cls-4"><path class="cls-5" d="M505.58,289.25h-.76a.93.93,0,0,0-.61.22h0a5.78,5.78,0,0,0-1.09-.32.35.35,0,0,0,.19-.32v-1.26l1.52-.71-2-2.42a.35.35,0,0,0-.11-.1v0a.4.4,0,0,0-.24-.22L498,282.7l-.14-.05-.15.05-4.45,1.4a.35.35,0,0,0-.21.18l-.1.1-2,2.46,1.62.84v2.72a.38.38,0,1,0,.75,0v-2.34l2.7,1.4,1.29-1.65v2.13a.38.38,0,1,0,.75,0v-2.05l1.13,1.57,3.33-1.55v.92a.35.35,0,0,0,.1.24,6.37,6.37,0,0,0-4.92,1.36l-2.41,1.92a.34.34,0,0,0-.06.06l-3-1.85a1.44,1.44,0,0,0-1.72.17,1.45,1.45,0,0,0,.13,2.26,15.41,15.41,0,0,0,6.14,3,4.18,4.18,0,0,0,.61,0,3.86,3.86,0,0,0,1.9-.51,6.56,6.56,0,0,1,4.56-1.09v.1h2.7v-4.31A1,1,0,0,0,505.58,289.25Zm-9.74-.74-3.7-1.91,1.36-1.67,3.65,1.91Zm1.88-2.21-3.35-1.76,3.14-1v1.93a.38.38,0,1,0,.75,0v-1.93l3.12,1Zm1.75,2.21-1.19-1.65,4-1.95,1.36,1.67-.85.4Zm-.55,6.36a3.1,3.1,0,0,1-2,.37,14.74,14.74,0,0,1-5.82-2.85.71.71,0,0,1-.3-.54.69.69,0,0,1,.23-.56.7.7,0,0,1,.83-.09l3.09,1.88a.06.06,0,0,0,0,0,1.06,1.06,0,0,0,1.07,1.15,1,1,0,0,0,.66-.23,6.47,6.47,0,0,1,3.46-1.44.38.38,0,0,0,.35-.39.36.36,0,0,0-.39-.36,7.22,7.22,0,0,0-3.88,1.6.31.31,0,0,1-.43,0,.35.35,0,0,1-.1-.25.15.15,0,0,1,0-.07l0-.06a.31.31,0,0,1,.09-.11L498.2,291a5.75,5.75,0,0,1,5.66-.88.22.22,0,0,0,0,.08v3.45A7.37,7.37,0,0,0,498.92,294.87Zm6.88-1.09h-1.2v-3.56a.22.22,0,0,1,.22-.22h.76a.22.22,0,0,1,.22.22Z" transform="translate(-467.1 -229.67)"/></g><g class="cls-4"><path class="cls-5" d="M551.46,289.25h-.76a.93.93,0,0,0-.61.22h0a5.78,5.78,0,0,0-1.09-.32.35.35,0,0,0,.19-.32v-1.26l1.52-.71-2-2.42a.35.35,0,0,0-.11-.1v0a.4.4,0,0,0-.24-.22l-4.47-1.4-.14-.05-.15.05-4.45,1.4a.35.35,0,0,0-.21.18l-.1.1-2,2.46,1.62.84v2.72a.38.38,0,1,0,.75,0v-2.34l2.7,1.4,1.29-1.65v2.13a.38.38,0,1,0,.75,0v-2.05l1.13,1.57,3.33-1.55v.92a.35.35,0,0,0,.1.24,6.37,6.37,0,0,0-4.92,1.36l-2.41,1.92a.34.34,0,0,0-.06.06l-3-1.85a1.46,1.46,0,0,0-1.73.17,1.49,1.49,0,0,0-.47,1.16,1.47,1.47,0,0,0,.61,1.1,15.41,15.41,0,0,0,6.14,3,4.18,4.18,0,0,0,.61,0,3.86,3.86,0,0,0,1.9-.51,6.56,6.56,0,0,1,4.56-1.09v.1h2.7v-4.31A1,1,0,0,0,551.46,289.25Zm-9.74-.74L538,286.6l1.36-1.67,3.65,1.91Zm1.88-2.21-3.35-1.76,3.14-1v1.93a.38.38,0,1,0,.75,0v-1.93l3.12,1Zm1.75,2.21-1.19-1.65,4-1.95,1.36,1.67-.85.4Zm4.38,1.71v3.45a7.37,7.37,0,0,0-4.93,1.2,3.11,3.11,0,0,1-2,.37,14.74,14.74,0,0,1-5.82-2.85.71.71,0,0,1-.3-.54.69.69,0,0,1,.23-.56.7.7,0,0,1,.83-.09l3.08,1.87a.09.09,0,0,0,0,.05,1.11,1.11,0,0,0,.31.83,1.09,1.09,0,0,0,.77.32,1,1,0,0,0,.66-.23A6.47,6.47,0,0,1,546,292.6a.38.38,0,0,0,.35-.39.37.37,0,0,0-.39-.36,7.22,7.22,0,0,0-3.88,1.6.31.31,0,0,1-.43,0,.35.35,0,0,1-.1-.25.15.15,0,0,1,0-.07l0-.06a.31.31,0,0,1,.09-.11l2.41-1.91a5.78,5.78,0,0,1,5.66-.88A.22.22,0,0,0,549.73,290.22Zm1.95,3.56h-1.2v-3.56a.22.22,0,0,1,.22-.22h.76a.22.22,0,0,1,.22.22Z" transform="translate(-467.1 -229.67)"/></g><g class="cls-4"><path class="cls-5" d="M597.44,289.25h-.75a1,1,0,0,0-.62.22h0a5.78,5.78,0,0,0-1.09-.32.36.36,0,0,0,.2-.32v-1.27l1.51-.7-2-2.42a.35.35,0,0,0-.11-.1v0a.4.4,0,0,0-.24-.22l-4.47-1.4a.32.32,0,0,0-.14,0l-.15,0-4.45,1.4a.35.35,0,0,0-.21.18h0l-.09.09-2,2.46,1.62.84v2.72a.38.38,0,1,0,.75,0v-2.34l2.7,1.4,1.29-1.65v2.13a.38.38,0,0,0,.38.38.37.37,0,0,0,.37-.38v-2.05l1.13,1.57,3.34-1.55v.92a.35.35,0,0,0,.1.24,6.39,6.39,0,0,0-4.93,1.36l-2.41,1.92a.34.34,0,0,0-.06.06l-3-1.85a1.44,1.44,0,0,0-1.72.17,1.45,1.45,0,0,0,.13,2.26,15.41,15.41,0,0,0,6.14,3,4.18,4.18,0,0,0,.61,0,3.93,3.93,0,0,0,1.91-.51,6.53,6.53,0,0,1,4.55-1.09v.1h2.7v-4.31A1,1,0,0,0,597.44,289.25Zm-9.73-.74L584,286.6l1.36-1.67,3.65,1.91Zm1.87-2.21-3.35-1.76,3.14-1v1.93a.38.38,0,1,0,.75,0v-1.93l3.12,1Zm1.75,2.21-1.19-1.65,4-1.95,1.37,1.67-.86.4Zm4.38,1.71v3.45a7.37,7.37,0,0,0-4.93,1.2,3.08,3.08,0,0,1-2,.37,14.7,14.7,0,0,1-5.83-2.85.75.75,0,0,1-.3-.54.69.69,0,0,1,.23-.56.7.7,0,0,1,.83-.09l3.09,1.88a.06.06,0,0,0,0,0,1.06,1.06,0,0,0,1.07,1.15,1,1,0,0,0,.66-.23A6.47,6.47,0,0,1,592,292.6a.38.38,0,0,0,.35-.39.36.36,0,0,0-.39-.36,7.22,7.22,0,0,0-3.88,1.6.31.31,0,0,1-.43,0,.35.35,0,0,1-.1-.25.15.15,0,0,1,0-.07l0-.06a.31.31,0,0,1,.09-.11l2.41-1.91a5.78,5.78,0,0,1,5.66-.88A.22.22,0,0,0,595.71,290.22Zm1.95,3.56h-1.2v-3.56a.22.22,0,0,1,.23-.22h.75a.22.22,0,0,1,.22.22Z" transform="translate(-467.1 -229.67)"/></g><g class="cls-4"><path class="cls-5" d="M589.89,282.7a.32.32,0,0,0-.14,0l-.15,0,.15-.05Z" transform="translate(-467.1 -229.67)"/></g><rect class="cls-6" x="72.06" y="25.01" width="31.59" height="8.88"/><g class="cls-4"><path class="cls-5" d="M643.32,289.25h-.76a.93.93,0,0,0-.61.22h0a5.78,5.78,0,0,0-1.09-.32.35.35,0,0,0,.19-.32v-1.26l1.52-.71-2-2.42a.35.35,0,0,0-.11-.1v0a.4.4,0,0,0-.24-.22l-4.47-1.4a.32.32,0,0,0-.14,0l-.15,0L631,284.1a.35.35,0,0,0-.21.18h0l-.09.09-2,2.46,1.62.84v2.72a.38.38,0,1,0,.75,0v-2.34l2.7,1.4,1.29-1.65v2.13a.38.38,0,0,0,.38.38.37.37,0,0,0,.37-.38v-2.05l1.13,1.57,3.33-1.55v.92a.35.35,0,0,0,.1.24,6.37,6.37,0,0,0-4.92,1.36l-2.41,1.92a.34.34,0,0,0-.06.06l-3-1.85a1.45,1.45,0,0,0-1.72.17,1.45,1.45,0,0,0,.13,2.26,15.41,15.41,0,0,0,6.14,3,4.18,4.18,0,0,0,.61,0,3.86,3.86,0,0,0,1.9-.51,6.56,6.56,0,0,1,4.56-1.09v.1h2.7v-4.31A1,1,0,0,0,643.32,289.25Zm-9.74-.74-3.7-1.91,1.36-1.67,3.65,1.91Zm1.88-2.21-3.35-1.76,3.14-1v1.93a.38.38,0,1,0,.75,0v-1.93l3.12,1Zm1.75,2.21L636,286.86l4-1.95,1.36,1.67-.85.4Zm4.38,1.71v3.45a7.37,7.37,0,0,0-4.93,1.2,3.1,3.1,0,0,1-2,.37,14.74,14.74,0,0,1-5.82-2.85.71.71,0,0,1-.3-.54.69.69,0,0,1,.23-.56.7.7,0,0,1,.83-.09l3.09,1.88a.06.06,0,0,0,0,0,1.06,1.06,0,0,0,1.07,1.15,1,1,0,0,0,.66-.23,6.47,6.47,0,0,1,3.46-1.44.38.38,0,0,0,.35-.39.36.36,0,0,0-.39-.36,7.22,7.22,0,0,0-3.88,1.6.31.31,0,0,1-.43,0,.35.35,0,0,1-.1-.25.15.15,0,0,1,0-.07l0-.06a.31.31,0,0,1,.09-.11l2.41-1.91a5.75,5.75,0,0,1,5.66-.88A.22.22,0,0,0,641.59,290.22Zm1.95,3.56h-1.2v-3.56a.22.22,0,0,1,.22-.22h.76a.22.22,0,0,1,.22.22Z" transform="translate(-467.1 -229.67)"/></g><text class="cls-7" transform="translate(62.7 23.6)">Comp<tspan class="cls-8" x="21.19" y="0">r</tspan><tspan x="23.7" y="0">a y </tspan><tspan class="cls-8" x="36.14" y="0">r</tspan><tspan x="38.65" y="0">eti</tspan><tspan class="cls-9" x="47.63" y="0">r</tspan><tspan x="50.15" y="0">a en nuest</tspan><tspan class="cls-8" x="86.51" y="0">r</tspan><tspan x="89.03" y="0">as tiendas </tspan><tspan x="0" y="8.4">en </tspan><tspan class="cls-10" x="10.46" y="8.4">2</tspan><tspan class="cls-11" x="14.06" y="8.4">4 ho</tspan><tspan class="cls-12" x="29.06" y="8.4">r</tspan><tspan class="cls-13" x="31.69" y="8.4">as</tspan><tspan x="39.92" y="8.4" xml:space="preserve"> y </tspan><tspan class="cls-8" x="47.8" y="8.4">r</tspan><tspan x="50.32" y="8.4">ecibe un bono de </tspan><tspan class="cls-8" x="0" y="16.8">r</tspan><tspan x="2.51" y="16.8">ega</tspan><tspan class="cls-14" x="15.88" y="16.8">l</tspan><tspan x="17.63" y="16.8">o o cupn de descuent</tspan><tspan class="cls-9" x="97.61" y="16.8">o</tspan><tspan x="101.83" y="16.8">.</tspan></text><g class="cls-4"><path class="cls-5" d="M635.77,282.7a.32.32,0,0,0-.14,0l-.15,0,.15-.05Z" transform="translate(-467.1 -229.67)"/></g><text class="cls-15" transform="translate(62.72 58.34)">Conoce ms aqu</text></svg>