<svg id="Capa_1" data-name="Capa 1" xmlns="http://www.w3.org/2000/svg" viewBox="0 0 120.91 105.35"><defs><style>.cls-1{fill:#8fca00;}</style></defs><path class="cls-1" d="M1124.67,93.28l-.53,1.33L1022,55.41l1.8-4.5a7.63,7.63,0,0,1,1.45-2.4c3.82-4.15,10.33-1.95,10.33-1.95s71.93,27.79,82.67,31.8S1124.67,93.28,1124.67,93.28Z" transform="translate(-1004.59 -37.88)"/><path class="cls-1" d="M1118.2,55.84V66.68h-21.63l-27.69-10.84C1069.17,56,1118.2,55.84,1118.2,55.84Z" transform="translate(-1004.59 -37.88)"/><path class="cls-1" d="M1118.2,70.91v3.85h-1l-9.83-3.85Z" transform="translate(-1004.59 -37.88)"/><path class="cls-1" d="M1118.2,48.2v3.56h-59.76l-20.56-8a14.85,14.85,0,0,0-10-.39,14,14,0,0,0-8.63,8.35H1008.1V47.44s-.11-9.51,11.26-9.51h89c.63,0,1.25,0,1.88,0C1112.13,37.82,1118.2,38.38,1118.2,48.2Z" transform="translate(-1004.59 -37.88)"/><path class="cls-1" d="M1017.51,56c-1.47,3.7-3,7.5-4.39,10.93h-5V56Z" transform="translate(-1004.59 -37.88)"/><path class="cls-1" d="M1011.69,70.5c-2.09,5.11-3.59,8.74-3.59,8.74V70.5Z" transform="translate(-1004.59 -37.88)"/><path class="cls-1" d="M1122.48,98.87c-1,2.64-2.38,6-3.83,9.7L1016.55,69l3.91-9.82h0Z" transform="translate(-1004.59 -37.88)"/><path class="cls-1" d="M1014.92,73h0l-9.66,24.19s-3.12,9.67,4.1,12.46S1093,142.29,1093,142.29s10.33,4.42,14.59-5.9c2-4.84,5.88-14.61,9.45-23.63Zm36.33,39.59a2.15,2.15,0,0,1-2.76,1.14l-31.59-12.32a2.16,2.16,0,0,1-1.24-2.76l.11-.29a2.15,2.15,0,0,1,2.82-1.25l31.48,12.62A2.16,2.16,0,0,1,1051.25,112.61Zm30.91-.24a2.21,2.21,0,0,1-2.82,1.17l-58.51-22.87a2.2,2.2,0,0,1-1.22-2.93h0a2.19,2.19,0,0,1,2.81-1.17l58.51,22.87A2.21,2.21,0,0,1,1082.16,112.37Z" transform="translate(-1004.59 -37.88)"/></svg>