<svg xmlns="http://www.w3.org/2000/svg" viewBox="0 0 200.75 70"><defs><style>.cls-1{fill:#fff;}.cls-2,.cls-4,.cls-5,.cls-6,.cls-7{fill:none;}.cls-2,.cls-3,.cls-5,.cls-6,.cls-7{stroke:#a9dc0b;}.cls-2,.cls-3,.cls-4,.cls-5,.cls-6,.cls-7{stroke-miterlimit:10;}.cls-3{fill:#a9dc0b;stroke-width:0.25px;}.cls-4{stroke:#fff;}.cls-4,.cls-5,.cls-6,.cls-7{stroke-width:0.75px;}.cls-5,.cls-7{stroke-linecap:round;}.cls-6,.cls-7{opacity:0.15;}.cls-8{fill:#9fd800;}.cls-20,.cls-9{font-size:7px;fill:#191919;}.cls-16,.cls-17,.cls-18,.cls-9{font-family:Silka-Medium, Silka;font-weight:500;}.cls-10{letter-spacing:-0.04em;}.cls-11,.cls-17{letter-spacing:-0.05em;}.cls-12{letter-spacing:-0.11em;}.cls-13,.cls-14,.cls-20{font-family:Silka-Regular, Silka;}.cls-13,.cls-14{font-weight:400;}.cls-14,.cls-15{letter-spacing:-0.04em;}.cls-18{letter-spacing:-0.11em;}.cls-19{fill:#000;}.cls-20{text-decoration:underline;}</style></defs><g id="Capa_2" data-name="Capa 2"><rect class="cls-1" x="0.38" width="200" height="70"/><line class="cls-2" x1="23.72" y1="39.26" x2="41.5" y2="39.26"/><path class="cls-2" d="M47.21,268.93h5.1a1.07,1.07,0,0,0,.9-1.63L51,263.77a1,1,0,0,0-.82-.45H47.8a1.42,1.42,0,0,1-1-.42L42,258.05a2.84,2.84,0,0,0-2-.82H30.15a2.82,2.82,0,0,0-2,.87l-4,4.13a2.81,2.81,0,0,1-2,.85H15.31a1.56,1.56,0,0,0-1.56,1.56v2.73a1.56,1.56,0,0,0,1.56,1.56h1.37" transform="translate(0.38 -229.67)"/><circle class="cls-2" cx="20.21" cy="39.26" r="3.16"/><circle class="cls-2" cx="44.66" cy="39.26" r="3.16"/><path class="cls-3" d="M26.61,262l2.53-2.67a2,2,0,0,1,1.45-.62H39.5a2,2,0,0,1,1.49.67l2.47,2.48a.72.72,0,0,1-.54,1.21H27.07A.64.64,0,0,1,26.61,262Z" transform="translate(0.38 -229.67)"/><line class="cls-4" x1="35.28" y1="28.59" x2="35.28" y2="33.86"/><line class="cls-5" x1="32.89" y1="34.53" x2="34.99" y2="34.53"/><line class="cls-5" x1="39.28" y1="34.53" x2="41.5" y2="34.53"/><line class="cls-6" x1="12.45" y1="15.13" x2="0.38" y2="15.13"/><path class="cls-6" d="M0,233.32a3,3,0,0,1,1.1-.22h9.81a2.79,2.79,0,0,1,2,.82l4.84,4.84a1.45,1.45,0,0,0,1,.42h2.38a1,1,0,0,1,.81.45l2.21,3.54a1.06,1.06,0,0,1-.9,1.63h-5.1" transform="translate(0.38 -229.67)"/><circle class="cls-6" cx="15.6" cy="15.12" r="3.16"/><path class="cls-6" d="M13.86,239H0V235.3l.09-.1a2,2,0,0,1,1.44-.62h8.91a2,2,0,0,1,1.5.67l2.47,2.48A.73.73,0,0,1,13.86,239Z" transform="translate(0.38 -229.67)"/><line class="cls-6" x1="6.23" y1="4.91" x2="6.23" y2="9.28"/><line class="cls-7" x1="3.83" y1="10.4" x2="5.93" y2="10.4"/><line class="cls-7" x1="10.22" y1="10.4" x2="12.44" y2="10.4"/><line class="cls-6" x1="40.5" y1="15.12" x2="58.28" y2="15.12"/><path class="cls-6" d="M64,244.8h5.09a1.07,1.07,0,0,0,.91-1.63l-2.21-3.53a1,1,0,0,0-.82-.46H64.58a1.46,1.46,0,0,1-1-.41l-4.84-4.85a2.84,2.84,0,0,0-2-.82H46.93a2.81,2.81,0,0,0-2,.86l-4,4.13a2.78,2.78,0,0,1-2,.86H32.09a1.56,1.56,0,0,0-1.56,1.56v2.73a1.56,1.56,0,0,0,1.56,1.56h1.37" transform="translate(0.38 -229.67)"/><circle class="cls-6" cx="36.99" cy="15.12" r="3.16"/><circle class="cls-6" cx="61.44" cy="15.12" r="3.16"/><path class="cls-6" d="M43.39,237.88l2.53-2.67a2,2,0,0,1,1.45-.63h8.91a2,2,0,0,1,1.49.68l2.47,2.48A.72.72,0,0,1,59.7,239H43.85A.64.64,0,0,1,43.39,237.88Z" transform="translate(0.38 -229.67)"/><line class="cls-6" x1="52.06" y1="4.91" x2="52.06" y2="9.28"/><line class="cls-7" x1="49.66" y1="10.4" x2="51.77" y2="10.4"/><line class="cls-7" x1="56.06" y1="10.4" x2="58.28" y2="10.4"/><line class="cls-6" x1="86.39" y1="15.12" x2="104.17" y2="15.12"/><path class="cls-6" d="M109.88,244.8H115a1.07,1.07,0,0,0,.91-1.63l-2.21-3.53a1,1,0,0,0-.82-.46h-2.38a1.46,1.46,0,0,1-1-.41l-4.85-4.85a2.8,2.8,0,0,0-2-.82H92.82a2.81,2.81,0,0,0-2,.86l-4,4.13a2.78,2.78,0,0,1-2,.86H78a1.56,1.56,0,0,0-1.56,1.56v2.73A1.56,1.56,0,0,0,78,244.8h1.37" transform="translate(0.38 -229.67)"/><circle class="cls-6" cx="82.88" cy="15.12" r="3.16"/><circle class="cls-6" cx="107.33" cy="15.12" r="3.16"/><path class="cls-6" d="M89.28,237.88l2.53-2.67a2,2,0,0,1,1.45-.63h8.91a2,2,0,0,1,1.49.68l2.47,2.48a.72.72,0,0,1-.54,1.21H89.74A.63.63,0,0,1,89.28,237.88Z" transform="translate(0.38 -229.67)"/><line class="cls-6" x1="97.95" y1="4.91" x2="97.95" y2="9.28"/><line class="cls-7" x1="95.55" y1="10.4" x2="97.66" y2="10.4"/><line class="cls-7" x1="101.95" y1="10.4" x2="104.17" y2="10.4"/><line class="cls-6" x1="132.27" y1="15.12" x2="150.05" y2="15.12"/><path class="cls-6" d="M155.76,244.8h5.1a1.07,1.07,0,0,0,.9-1.63l-2.21-3.53a1,1,0,0,0-.81-.46h-2.39a1.46,1.46,0,0,1-1-.41l-4.84-4.85a2.84,2.84,0,0,0-2-.82h-9.81a2.77,2.77,0,0,0-2,.86l-4,4.13a2.77,2.77,0,0,1-2,.86h-6.84a1.56,1.56,0,0,0-1.56,1.56v2.73a1.56,1.56,0,0,0,1.56,1.56h1.36" transform="translate(0.38 -229.67)"/><circle class="cls-6" cx="128.76" cy="15.12" r="3.16"/><circle class="cls-6" cx="153.21" cy="15.12" r="3.16"/><path class="cls-6" d="M135.16,237.88l2.54-2.67a2,2,0,0,1,1.44-.63h8.91a2,2,0,0,1,1.5.68l2.47,2.48a.73.73,0,0,1-.55,1.21H135.63A.64.64,0,0,1,135.16,237.88Z" transform="translate(0.38 -229.67)"/><line class="cls-6" x1="143.84" y1="4.91" x2="143.84" y2="9.28"/><line class="cls-7" x1="141.44" y1="10.4" x2="143.54" y2="10.4"/><line class="cls-7" x1="147.83" y1="10.4" x2="150.05" y2="10.4"/><line class="cls-6" x1="178.16" y1="15.12" x2="195.94" y2="15.12"/><path class="cls-6" d="M171.12,244.8h-1.36a1.56,1.56,0,0,1-1.56-1.56v-2.73a1.56,1.56,0,0,1,1.56-1.56h6.84a2.77,2.77,0,0,0,2-.86l4-4.13a2.77,2.77,0,0,1,2-.86h9.81a2.79,2.79,0,0,1,2,.82l3.61,3.61" transform="translate(0.38 -229.67)"/><circle class="cls-6" cx="174.65" cy="15.12" r="3.16"/><path class="cls-6" d="M200,247.68a3,3,0,0,1-1.27.27,3.16,3.16,0,1,1,0-6.31,3,3,0,0,1,1.27.27" transform="translate(0.38 -229.67)"/><path class="cls-6" d="M181.05,237.88l2.54-2.67a2,2,0,0,1,1.44-.63h8.91a2,2,0,0,1,1.5.68l2.47,2.48a.73.73,0,0,1-.55,1.21H181.51A.64.64,0,0,1,181.05,237.88Z" transform="translate(0.38 -229.67)"/><line class="cls-6" x1="189.73" y1="4.91" x2="189.73" y2="9.28"/><line class="cls-7" x1="187.33" y1="10.4" x2="189.43" y2="10.4"/><line class="cls-7" x1="193.72" y1="10.4" x2="195.94" y2="10.4"/><line class="cls-6" x1="5.26" y1="40.76" x2="23.04" y2="40.76"/><path class="cls-6" d="M0,264.58H3.69a2.81,2.81,0,0,0,2-.86l4-4.13a2.81,2.81,0,0,1,2-.86H21.5a2.76,2.76,0,0,1,2,.82l4.85,4.84a1.41,1.41,0,0,0,1,.42h2.38a1,1,0,0,1,.82.46l2.2,3.53a1.06,1.06,0,0,1-.9,1.63h-5.1" transform="translate(0.38 -229.67)"/><path class="cls-6" d="M0,273.27a3,3,0,0,0,1.37.32,3.16,3.16,0,1,0,0-6.32,3,3,0,0,0-1.37.32" transform="translate(0.38 -229.67)"/><circle class="cls-6" cx="26.2" cy="40.76" r="3.16"/><path class="cls-6" d="M8.15,263.51l2.53-2.67a2,2,0,0,1,1.45-.63H21a2,2,0,0,1,1.49.68L25,263.37a.73.73,0,0,1-.55,1.21H8.61A.63.63,0,0,1,8.15,263.51Z" transform="translate(0.38 -229.67)"/><line class="cls-6" x1="16.82" y1="30.54" x2="16.82" y2="34.91"/><line class="cls-7" x1="14.42" y1="36.03" x2="16.53" y2="36.03"/><line class="cls-7" x1="20.81" y1="36.03" x2="23.04" y2="36.03"/><line class="cls-6" x1="51.09" y1="40.76" x2="68.87" y2="40.76"/><path class="cls-6" d="M74.58,270.43h5.1a1.07,1.07,0,0,0,.9-1.63l-2.21-3.53a1,1,0,0,0-.82-.45H75.17a1.47,1.47,0,0,1-1-.42l-4.84-4.85a2.84,2.84,0,0,0-2-.82H57.53a2.77,2.77,0,0,0-2,.86l-4,4.13a2.78,2.78,0,0,1-2,.86H42.69a1.56,1.56,0,0,0-1.56,1.56v2.73a1.56,1.56,0,0,0,1.56,1.56h1.36" transform="translate(0.38 -229.67)"/><circle class="cls-6" cx="47.58" cy="40.76" r="3.16"/><circle class="cls-6" cx="72.03" cy="40.76" r="3.16"/><path class="cls-6" d="M54,263.51l2.54-2.67a2,2,0,0,1,1.44-.63h8.91a2,2,0,0,1,1.49.68l2.48,2.48a.73.73,0,0,1-.55,1.21H54.44A.64.64,0,0,1,54,263.51Z" transform="translate(0.38 -229.67)"/><line class="cls-6" x1="62.66" y1="30.54" x2="62.66" y2="34.91"/><line class="cls-7" x1="60.26" y1="36.03" x2="62.36" y2="36.03"/><line class="cls-7" x1="66.65" y1="36.03" x2="68.87" y2="36.03"/><line class="cls-6" x1="96.98" y1="40.76" x2="114.76" y2="40.76"/><path class="cls-6" d="M120.47,270.43h5.1a1.07,1.07,0,0,0,.9-1.63l-2.21-3.53a1,1,0,0,0-.82-.45h-2.38a1.47,1.47,0,0,1-1-.42l-4.84-4.85a2.84,2.84,0,0,0-2-.82h-9.81a2.77,2.77,0,0,0-2,.86l-4,4.13a2.78,2.78,0,0,1-2,.86H88.57A1.55,1.55,0,0,0,87,266.14v2.73a1.55,1.55,0,0,0,1.55,1.56h1.37" transform="translate(0.38 -229.67)"/><circle class="cls-6" cx="93.47" cy="40.76" r="3.16"/><circle class="cls-6" cx="117.92" cy="40.76" r="3.16"/><path class="cls-6" d="M99.87,263.51l2.53-2.67a2,2,0,0,1,1.45-.63h8.91a2,2,0,0,1,1.49.68l2.48,2.48a.73.73,0,0,1-.55,1.21H100.33A.64.64,0,0,1,99.87,263.51Z" transform="translate(0.38 -229.67)"/><line class="cls-6" x1="108.54" y1="30.54" x2="108.54" y2="34.91"/><line class="cls-7" x1="106.15" y1="36.03" x2="108.25" y2="36.03"/><line class="cls-7" x1="112.54" y1="36.03" x2="114.76" y2="36.03"/><line class="cls-6" x1="142.87" y1="40.76" x2="160.65" y2="40.76"/><path class="cls-6" d="M166.35,270.43h5.1a1.06,1.06,0,0,0,.9-1.63l-2.2-3.53a1,1,0,0,0-.82-.45H167a1.49,1.49,0,0,1-1-.42l-4.84-4.85a2.82,2.82,0,0,0-2-.82H149.3a2.81,2.81,0,0,0-2,.86l-4,4.13a2.77,2.77,0,0,1-2,.86h-6.84a1.56,1.56,0,0,0-1.56,1.56v2.73a1.56,1.56,0,0,0,1.56,1.56h1.36" transform="translate(0.38 -229.67)"/><circle class="cls-6" cx="139.36" cy="40.76" r="3.16"/><circle class="cls-6" cx="163.8" cy="40.76" r="3.16"/><path class="cls-6" d="M145.76,263.51l2.53-2.67a2,2,0,0,1,1.45-.63h8.91a2,2,0,0,1,1.49.68l2.47,2.48a.73.73,0,0,1-.55,1.21H146.22A.63.63,0,0,1,145.76,263.51Z" transform="translate(0.38 -229.67)"/><line class="cls-6" x1="154.43" y1="30.54" x2="154.43" y2="34.91"/><line class="cls-7" x1="152.03" y1="36.03" x2="154.14" y2="36.03"/><line class="cls-7" x1="158.42" y1="36.03" x2="160.65" y2="36.03"/><line class="cls-6" x1="200.38" y1="40.76" x2="188.76" y2="40.76"/><path class="cls-6" d="M181.71,270.43h-1.36a1.56,1.56,0,0,1-1.56-1.56v-2.73a1.56,1.56,0,0,1,1.56-1.56h6.84a2.77,2.77,0,0,0,2-.86l4-4.13a2.81,2.81,0,0,1,2-.86H200" transform="translate(0.38 -229.67)"/><circle class="cls-6" cx="185.25" cy="40.76" r="3.16"/><path class="cls-6" d="M200,260.21v4.37h-7.89a.63.63,0,0,1-.46-1.07l2.53-2.68a2,2,0,0,1,1.44-.62Z" transform="translate(0.38 -229.67)"/><line class="cls-6" x1="200.32" y1="30.54" x2="200.32" y2="34.91"/><line class="cls-7" x1="197.92" y1="36.03" x2="200.03" y2="36.03"/><line class="cls-6" x1="12.45" y1="63.42" x2="0.38" y2="63.42"/><path class="cls-6" d="M0,281.61a3,3,0,0,1,1.1-.22h9.81a2.79,2.79,0,0,1,2,.82l4.84,4.84a1.45,1.45,0,0,0,1,.42h2.38a1,1,0,0,1,.81.45l2.21,3.54a1.06,1.06,0,0,1-.9,1.63h-5.1" transform="translate(0.38 -229.67)"/><circle class="cls-6" cx="15.6" cy="63.41" r="3.16"/><path class="cls-6" d="M0,287.24H13.86a.73.73,0,0,0,.55-1.22l-2.47-2.48a2,2,0,0,0-1.5-.67H1.53a2,2,0,0,0-1.44.62l-.09.1" transform="translate(0.38 -229.67)"/><line class="cls-6" x1="6.23" y1="53.2" x2="6.23" y2="57.57"/><line class="cls-7" x1="3.83" y1="58.69" x2="5.93" y2="58.69"/><line class="cls-7" x1="10.22" y1="58.69" x2="12.44" y2="58.69"/><line class="cls-6" x1="40.5" y1="63.41" x2="58.28" y2="63.41"/><path class="cls-6" d="M64,293.09h5.09a1.07,1.07,0,0,0,.91-1.63l-2.21-3.53a1,1,0,0,0-.82-.46H64.58a1.42,1.42,0,0,1-1-.42l-4.84-4.84a2.84,2.84,0,0,0-2-.82H46.93a2.81,2.81,0,0,0-2,.86l-4,4.13a2.78,2.78,0,0,1-2,.86H32.09a1.56,1.56,0,0,0-1.56,1.56v2.73a1.56,1.56,0,0,0,1.56,1.56h1.37" transform="translate(0.38 -229.67)"/><circle class="cls-6" cx="36.99" cy="63.41" r="3.16"/><circle class="cls-6" cx="61.44" cy="63.41" r="3.16"/><path class="cls-6" d="M43.39,286.17l2.53-2.67a2,2,0,0,1,1.45-.63h8.91a2,2,0,0,1,1.49.68L60.24,286a.72.72,0,0,1-.54,1.21H43.85A.64.64,0,0,1,43.39,286.17Z" transform="translate(0.38 -229.67)"/><line class="cls-6" x1="52.06" y1="53.2" x2="52.06" y2="57.57"/><line class="cls-7" x1="49.66" y1="58.69" x2="51.77" y2="58.69"/><line class="cls-7" x1="56.06" y1="58.69" x2="58.28" y2="58.69"/><line class="cls-6" x1="86.39" y1="63.41" x2="104.17" y2="63.41"/><path class="cls-6" d="M109.88,293.09H115a1.07,1.07,0,0,0,.91-1.63l-2.21-3.53a1,1,0,0,0-.82-.46h-2.38a1.42,1.42,0,0,1-1-.42l-4.85-4.84a2.8,2.8,0,0,0-2-.82H92.82a2.81,2.81,0,0,0-2,.86l-4,4.13a2.78,2.78,0,0,1-2,.86H78a1.56,1.56,0,0,0-1.56,1.56v2.73A1.56,1.56,0,0,0,78,293.09h1.37" transform="translate(0.38 -229.67)"/><circle class="cls-6" cx="82.88" cy="63.41" r="3.16"/><circle class="cls-6" cx="107.33" cy="63.41" r="3.16"/><path class="cls-6" d="M89.28,286.17l2.53-2.67a2,2,0,0,1,1.45-.63h8.91a2,2,0,0,1,1.49.68l2.47,2.48a.72.72,0,0,1-.54,1.21H89.74A.63.63,0,0,1,89.28,286.17Z" transform="translate(0.38 -229.67)"/><line class="cls-6" x1="97.95" y1="53.2" x2="97.95" y2="57.57"/><line class="cls-7" x1="95.55" y1="58.69" x2="97.66" y2="58.69"/><line class="cls-7" x1="101.95" y1="58.69" x2="104.17" y2="58.69"/><line class="cls-6" x1="132.27" y1="63.41" x2="150.05" y2="63.41"/><path class="cls-6" d="M155.76,293.09h5.1a1.07,1.07,0,0,0,.9-1.63l-2.21-3.53a1,1,0,0,0-.81-.46h-2.39a1.42,1.42,0,0,1-1-.42l-4.84-4.84a2.84,2.84,0,0,0-2-.82h-9.81a2.77,2.77,0,0,0-2,.86l-4,4.13a2.77,2.77,0,0,1-2,.86h-6.84a1.56,1.56,0,0,0-1.56,1.56v2.73a1.56,1.56,0,0,0,1.56,1.56h1.36" transform="translate(0.38 -229.67)"/><circle class="cls-6" cx="128.76" cy="63.41" r="3.16"/><circle class="cls-6" cx="153.21" cy="63.41" r="3.16"/><path class="cls-6" d="M135.16,286.17l2.54-2.67a2,2,0,0,1,1.44-.63h8.91a2,2,0,0,1,1.5.68L152,286a.73.73,0,0,1-.55,1.21H135.63A.64.64,0,0,1,135.16,286.17Z" transform="translate(0.38 -229.67)"/><line class="cls-6" x1="143.84" y1="53.2" x2="143.84" y2="57.57"/><line class="cls-7" x1="141.44" y1="58.69" x2="143.54" y2="58.69"/><line class="cls-7" x1="147.83" y1="58.69" x2="150.05" y2="58.69"/><line class="cls-6" x1="178.16" y1="63.41" x2="195.94" y2="63.41"/><path class="cls-6" d="M171.12,293.09h-1.36a1.56,1.56,0,0,1-1.56-1.56V288.8a1.56,1.56,0,0,1,1.56-1.56h6.84a2.77,2.77,0,0,0,2-.86l4-4.13a2.77,2.77,0,0,1,2-.86h9.81a2.79,2.79,0,0,1,2,.82l3.61,3.61" transform="translate(0.38 -229.67)"/><circle class="cls-6" cx="174.65" cy="63.41" r="3.16"/><path class="cls-6" d="M200,296a3,3,0,0,1-1.27.27,3.16,3.16,0,1,1,0-6.31,3,3,0,0,1,1.27.27" transform="translate(0.38 -229.67)"/><path class="cls-6" d="M181.05,286.17l2.54-2.67a2,2,0,0,1,1.44-.63h8.91a2,2,0,0,1,1.5.68l2.47,2.48a.73.73,0,0,1-.55,1.21H181.51A.64.64,0,0,1,181.05,286.17Z" transform="translate(0.38 -229.67)"/><line class="cls-6" x1="189.73" y1="53.2" x2="189.73" y2="57.57"/><line class="cls-7" x1="187.33" y1="58.69" x2="189.43" y2="58.69"/><line class="cls-7" x1="193.72" y1="58.69" x2="195.94" y2="58.69"/><rect class="cls-8" x="118.21" y="24.89" width="41.13" height="8.88"/><rect class="cls-8" x="67.76" y="16.66" width="59.25" height="8.88"/><text class="cls-9" transform="translate(68.82 23.35)">Comp<tspan class="cls-10" x="21.14" y="0">r</tspan><tspan x="23.77" y="0">a tu S</tspan><tspan class="cls-11" x="43.5" y="0">O</tspan><tspan class="cls-12" x="48.95" y="0">A</tspan><tspan x="53" y="0">T</tspan><tspan class="cls-13" x="57.07" y="0" xml:space="preserve"> aquí y pod</tspan><tspan class="cls-14" x="95.64" y="0">r</tspan><tspan class="cls-13" x="98.15" y="0">ás </tspan><tspan class="cls-13"><tspan x="0" y="8.4">escoger ent</tspan><tspan class="cls-15" x="41.8" y="8.4">r</tspan><tspan x="44.32" y="8.4">e </tspan><tspan class="cls-16" x="50.53" y="8.4">SUPERS</tspan><tspan class="cls-17" x="76.36" y="8.4">O</tspan><tspan class="cls-18" x="81.81" y="8.4">A</tspan><tspan class="cls-16" x="85.87" y="8.4">T</tspan><tspan x="89.94" y="8.4" xml:space="preserve"> y </tspan><tspan x="0" y="16.8">g</tspan><tspan class="cls-15" x="4.56" y="16.8">r</tspan><tspan x="7.07" y="16.8">andes beneficio</tspan><tspan class="cls-15" x="62.84" y="16.8">s</tspan><tspan class="cls-19" x="66.26" y="16.8">.</tspan></tspan></text><text class="cls-20" transform="translate(68.81 58.4)">Conoce más aquí</text></g></svg>